<svg width="172" height="20" viewBox="0 0 172 20" fill="none" xmlns="http://www.w3.org/2000/svg">
<path fill-rule="evenodd" clip-rule="evenodd" d="M3.67346 4.94965L0.66748 9.39259V14.5416V19.6906H2.37413H4.08078V16.1115V12.5324H10.054H16.0273V16.1115V19.6906H17.734H19.4406L19.4437 14.6083L19.4469 9.52601L16.4281 5.01636L13.4093 0.506714H10.0444H6.67915L3.67346 4.94965ZM28.8186 1.15095C27.2627 1.94207 26.3798 3.22338 26.1298 5.05215C25.7057 8.15651 27.3728 10.7406 30.1922 11.3485C31.0213 11.5272 33.6772 11.6735 36.0944 11.6735C40.1101 11.6735 40.5385 11.723 41.0581 12.2461C41.8594 13.0527 41.8429 15.1102 41.0291 15.8524C40.5009 16.3343 39.8783 16.4085 35.6904 16.4875C30.6718 16.5823 29.4487 16.3761 29.1932 15.3923C29.065 14.8989 28.8024 14.8231 27.2241 14.8231H25.4031L25.5871 15.6105C25.9119 16.9989 26.8614 18.2596 28.0737 18.9121C29.185 19.5105 29.6017 19.5475 35.2271 19.5475C41.0741 19.5475 41.2268 19.5323 42.4565 18.8316C45.2426 17.244 45.8774 12.8268 43.6949 10.2158C42.4542 8.73146 41.5841 8.52416 36.5873 8.52215C31.7902 8.52043 30.1433 8.24928 29.6839 7.38486C29.1989 6.47291 29.3431 4.85488 29.9649 4.22896C30.4889 3.70155 30.913 3.65631 35.346 3.65631C37.9927 3.65631 40.3706 3.7382 40.6301 3.83841C40.8895 3.93863 41.2169 4.32517 41.3574 4.6974C41.5872 5.30584 41.7866 5.37427 43.332 5.37427H45.0511L44.8637 4.58687C44.437 2.79618 43.6633 1.82038 41.9968 0.97085C41.2507 0.590608 40.093 0.506714 35.5861 0.506714C30.4468 0.506714 30.0022 0.54909 28.8186 1.15095ZM52.2333 6.50412L55.138 12.5015L56.6313 12.517L58.1246 12.5324V16.1115V19.6906H59.6802H61.2358L61.3158 16.1831L61.3957 12.6756L62.8426 12.5906C64.1534 12.5138 64.3314 12.4193 64.7347 11.5884C64.9797 11.0842 66.2747 8.38414 67.6124 5.58902L70.045 0.506714H68.3503H66.6556L64.4566 4.94478L62.2575 9.38285H59.7633H57.269L55.07 4.94478L52.871 0.506714H51.0998H49.3283L52.2333 6.50412ZM77.1973 1.15124C75.4764 2.06834 74.6205 3.70384 74.6268 6.06346C74.633 8.32745 75.4431 9.82866 77.1907 10.8136C78.3973 11.4939 78.7301 11.5352 83.7243 11.6277C87.8726 11.7041 89.0863 11.8146 89.4587 12.1496C90.6741 13.2434 90.2679 15.7121 88.7874 16.2318C87.7039 16.612 79.4776 16.6432 78.5051 16.271C78.1171 16.1227 77.7161 15.7362 77.614 15.412C77.4541 14.9047 77.1941 14.8231 75.7409 14.8231C74.2294 14.8231 74.0533 14.8843 74.0533 15.41C74.0533 16.9187 75.8393 18.8746 77.6888 19.3917C78.2705 19.5543 80.9314 19.688 83.6014 19.6889C90.3606 19.6912 91.8295 19.1864 92.955 16.4746C94.0879 13.7453 93.1186 10.3924 90.8467 9.18328C89.7027 8.57426 89.2587 8.52387 85.0308 8.52215C79.4594 8.52043 78.4792 8.30254 78.0423 6.96997C77.8682 6.43884 77.8102 5.66661 77.9132 5.25316C78.2744 3.80491 78.8618 3.65631 84.2275 3.65631H89.1552L89.6399 4.51357C90.0896 5.30899 90.2417 5.37084 91.7598 5.37255C93.1043 5.37399 93.3953 5.28837 93.3953 4.8921C93.3953 3.93147 92.2428 2.06548 91.2171 1.36569C90.1942 0.667916 90.0204 0.647587 84.3151 0.563407C78.6331 0.479513 78.4252 0.496692 77.1973 1.15124ZM97.9464 2.08151V3.65631H102.355H106.764V11.6735V19.6906H108.328H109.893V11.6735V3.65631H114.302H118.711V2.08151V0.506714H108.328H97.9464V2.08151ZM124.684 10.0987V19.6906H133.502H142.319V18.1158V16.541H135.066H127.813V14.1072V11.6735H132.648H137.484V9.9555V8.23754H132.648H127.813V5.94693V3.65631H135.066H142.319V2.08151V0.506714H133.502H124.684V10.0987ZM148.861 10.0987V19.6906H150.426H151.99V12.5324C151.99 8.59545 152.086 5.38 152.204 5.38716C152.321 5.39432 153.873 7.19817 155.654 9.39573C158.867 13.3634 158.898 13.3914 160.062 13.3874C161.224 13.3834 161.265 13.3462 164.506 9.35536L167.777 5.32731L167.853 12.509L167.929 19.6906H169.63H171.332V10.0987V0.506714L169.412 0.524466L167.492 0.542505L163.844 4.97943C161.838 7.41951 160.092 9.37655 159.965 9.32788C159.837 9.27949 158.108 7.27462 156.122 4.8732L152.511 0.506714H150.686H148.861V10.0987ZM13.607 6.448L15.4618 9.23969L10.157 9.31785C7.23921 9.3608 4.79757 9.34105 4.73101 9.27405C4.66445 9.20705 5.41907 7.91857 6.40779 6.41106L8.20517 3.66977L9.97867 3.66318L11.7522 3.65631L13.607 6.448Z" fill="white"/>
</svg>
