<svg width="128" height="158" viewBox="0 0 128 158" fill="none" xmlns="http://www.w3.org/2000/svg">
<path d="M108.389 44.7823C110.135 51.8 109.358 59.931 106.514 68.1723C102.352 80.2306 93.7069 92.7478 81.6035 102.928C69.4992 113.108 56.1565 119.084 44.3371 120.478C36.2692 121.43 28.8126 120.252 22.9661 116.711L26.618 121.785C31.5323 128.613 40.7042 131.158 51.8899 129.342C63.0232 127.534 75.8826 121.429 87.7898 111.414C99.698 101.399 108.327 89.4294 112.679 78.2223C117.05 66.9668 117.019 56.7716 112.118 49.9637L108.389 44.7823ZM17.4209 109.007C17.4229 109.01 17.4249 109.012 17.4268 109.015C22.8779 116.581 32.5452 119.721 44.0282 118.366C55.4824 117.014 68.5354 111.198 80.4322 101.192C92.3299 91.185 100.747 78.943 104.769 67.2897C108.8 55.6092 108.36 44.7414 102.921 37.1857C97.4714 29.6138 87.8013 26.4714 76.3141 27.8269C64.8599 29.1785 51.807 34.9948 39.9101 45.0008C28.0124 55.0077 19.5954 67.2497 15.5735 78.903C11.5422 90.5835 11.9826 101.451 17.4209 109.007Z" fill="#EAFA35" stroke="black" stroke-width="2"/>
<path d="M39.906 44.9995C28.0083 55.0063 19.5913 67.2484 15.5693 78.9017C11.538 90.5822 11.9785 101.45 17.4168 109.006C22.8668 116.578 32.5369 119.72 44.024 118.365C55.4783 117.013 68.5312 111.197 80.428 101.191C92.3257 91.1838 100.743 78.9417 104.765 67.2884C108.796 55.6079 108.355 44.7401 102.917 37.1844C97.4672 29.6124 87.7971 26.4701 76.3099 27.8255C64.8557 29.1771 51.8028 34.9934 39.906 44.9995Z" fill="white" stroke="black" stroke-width="2"/>
<path d="M43.941 49.8178C33.782 58.3623 26.4278 68.5704 22.7223 78.1197C18.9982 87.7172 19.0489 96.358 23.1872 102.108C27.3399 107.877 35.1133 110.06 44.6532 108.514C54.1409 106.976 65.1079 101.775 75.266 93.2309C85.425 84.6864 92.7792 74.4782 96.4847 64.929C100.209 55.3315 100.158 46.6906 96.0198 40.941C91.8671 35.1715 84.0937 32.9886 74.5538 34.5347C65.0661 36.0723 54.0991 41.2741 43.941 49.8178Z" fill="#0F0F0F" stroke="black" stroke-width="2"/>
<path d="M47.9305 55.3548C38.3472 63.415 31.2929 72.8788 27.6099 81.6182C23.8979 90.4262 23.7316 98.1489 27.2954 103.1C30.8757 108.075 37.883 109.801 46.7082 108.074C55.4627 106.36 65.6877 101.29 75.2701 93.2308C84.8534 85.1705 91.9078 75.7068 95.5908 66.9674C99.3027 58.1594 99.4691 50.4366 95.9052 45.4852C92.3249 40.5109 85.3177 38.7846 76.4925 40.5118C67.738 42.2252 57.513 47.2952 47.9305 55.3548Z" stroke="#191919" stroke-width="2"/>
<path fill-rule="evenodd" clip-rule="evenodd" d="M67.3666 76.3284L34.903 108.253C32.988 107.715 31.2766 106.873 29.8211 105.711C28.3711 104.555 27.252 103.142 26.449 101.52L58.8979 69.6102L55.0215 80.984L59.2456 79.2567L67.3666 76.3284ZM39.3503 108.95L70.2602 78.5532L66.7051 89.4122L72.1939 87.7591L78.7686 67.6735L70.8037 70.5452L62.8388 73.4168L67.4741 58.6808L45.6236 66.5588L44.3391 71.5664L56.0448 67.3456L25.1976 97.6804C23.3492 87.6615 30.0191 72.7584 43.2355 59.7615C60.7757 42.5126 83.2937 35.07 93.4309 43.1582C103.568 51.2463 97.5566 71.8591 80.0163 89.1081C66.8117 102.093 50.79 109.52 39.3503 108.95Z" fill="#EAFA35"/>
</svg>
