<svg width="103" height="104" viewBox="0 0 103 104" fill="none" xmlns="http://www.w3.org/2000/svg">
<path d="M45.7739 97.133C39.1139 97.8466 32.7051 93.7575 27.8002 86.1273C22.9196 78.535 19.6657 67.6204 19.2439 55.1842C18.8222 42.747 21.3156 31.2233 25.6417 22.6558C29.9876 14.049 36.0497 8.64773 42.6886 7.93641L47.5217 7.41855C42.4968 10.1528 38.1508 14.9164 34.8208 20.9292C29.8764 29.857 27.0635 41.7012 27.4927 54.356C27.9219 67.0118 31.5149 78.1618 37.0186 85.9577C40.7201 91.2007 45.338 94.9891 50.4926 96.6274L45.7739 97.133ZM58.2917 95.7918C50.9002 96.5838 43.8701 92.5137 38.531 84.9509C33.2081 77.4112 29.6795 66.5358 29.2581 54.1112C28.8368 41.6857 31.6055 30.1433 36.373 21.5349C41.1522 12.9054 47.8322 7.38529 55.2063 6.59518C62.5978 5.80321 69.628 9.87328 74.9671 17.436C80.29 24.9757 83.8186 35.8512 84.2399 48.2757C84.6613 60.7013 81.8925 72.2437 77.1251 80.852C72.3459 89.4816 65.6659 95.0017 58.2917 95.7918Z" fill="#EAFA35" stroke="black" stroke-width="1.70353"/>
<path d="M84.2434 48.2777C84.6648 60.7033 81.896 72.2457 77.1286 80.854C72.3494 89.4835 65.6694 95.0037 58.2952 95.7938C50.9038 96.5857 43.8736 92.5157 38.5345 84.9529C33.2116 77.4132 29.683 66.5378 29.2617 54.1132C28.8403 41.6876 31.6091 30.1452 36.3765 21.5369C41.1557 12.9074 47.8357 7.38724 55.2099 6.59713C62.6013 5.80516 69.6315 9.87523 74.9706 17.438C80.2935 24.9777 83.8221 35.8531 84.2434 48.2777Z" fill="white" stroke="black" stroke-width="1.70353"/>
<path d="M79.219 48.4469C79.5787 59.0564 77.4495 68.8802 73.7624 76.1771C70.0556 83.5131 64.9074 88.0734 59.3052 88.6736C53.6818 89.2762 48.237 85.8269 44.0524 79.3218C39.8922 72.8544 37.1147 63.5496 36.755 52.9412C36.3952 42.3318 38.5244 32.5079 42.2115 25.211C45.9183 17.875 51.0665 13.3148 56.6687 12.7145C62.2921 12.112 67.7369 15.5612 71.9215 22.0664C76.0817 28.5337 78.8592 37.8385 79.219 48.4469Z" fill="#0F0F0F" stroke="black" stroke-width="1.70353"/>
<path d="M73.7921 49.0241C74.1315 59.0325 72.2841 68.2808 69.0658 75.1323C65.8207 82.041 61.3338 86.2377 56.5157 86.754C51.6732 87.2728 46.9097 84.0388 43.2145 77.8618C39.5507 71.7374 37.0918 62.9446 36.7525 52.9372C36.4131 42.9288 38.2605 33.6806 41.4788 26.829C44.7239 19.9204 49.2108 15.7236 54.0289 15.2074C58.8714 14.6885 63.6349 17.9225 67.3301 24.0995C70.9939 30.224 73.4528 39.0168 73.7921 49.0241Z" stroke="#191919" stroke-width="1.70353"/>
<path fill-rule="evenodd" clip-rule="evenodd" d="M50.9758 48.6292L49.3803 85.0192C50.7252 85.8731 52.1413 86.4439 53.6111 86.6909C55.0745 86.9377 56.5134 86.8502 57.9073 86.4627L59.5022 50.0892L54.8173 58.4716L53.5828 55.0321L50.9758 48.6292ZM46.5854 82.741L48.1045 48.0926L43.5537 56.0087L41.598 51.8552L50.0161 37.2137L52.5731 43.4933L55.1301 49.773L61.4069 39.1433L68.4217 56.3706L66.1331 59.8096L62.3754 50.5804L60.8593 85.1584C67.8034 80.911 73.0904 68.9797 73.7399 54.1648C74.602 34.503 66.9712 17.1104 56.7375 15.3876C46.5038 13.6647 37.4709 28.2521 36.6088 47.9138C35.9598 62.7155 40.1226 76.2282 46.5854 82.741Z" fill="#EAFA35"/>
</svg>
