<svg width="166" height="210" viewBox="0 0 166 210" fill="none" xmlns="http://www.w3.org/2000/svg">
<path d="M127.002 168.584C119.239 177.235 106.315 179.316 91.4119 175.244C76.5598 171.186 60.0071 161.069 45.3177 145.818C30.6274 130.566 20.6478 113.135 16.3554 97.3278C12.0496 81.4707 13.5252 67.546 21.2713 58.9132L28.2776 51.1049C24.2939 60.5371 23.967 72.1892 26.7877 84.4024C30.6642 101.187 40.5183 119.258 55.3858 134.694C70.2542 150.131 87.3861 160.077 103.101 163.647C114.527 166.242 125.313 165.481 133.917 160.878L127.002 168.584ZM141.273 152.68C132.69 162.245 119.019 165.075 103.631 161.58C88.2744 158.093 71.4143 148.335 56.7344 133.094C42.0536 117.852 32.398 100.079 28.618 83.7122C24.8316 67.3175 26.9732 52.5586 35.5421 43.0088C44.1247 33.4439 57.7957 30.6132 73.1841 34.1081C88.5402 37.5958 105.4 47.3531 120.08 62.5944C134.761 77.8365 144.417 95.6094 148.197 111.976C151.983 128.371 149.841 143.13 141.273 152.68Z" fill="#EAFA35" stroke="black" stroke-width="2"/>
<path d="M120.086 62.5928C134.767 77.8349 144.423 95.6078 148.203 111.975C151.989 128.37 149.848 143.128 141.279 152.678C132.696 162.243 119.025 165.074 103.637 161.579C88.2805 158.091 71.4204 148.334 56.7405 133.093C42.0597 117.85 32.4041 100.078 28.6241 83.7106C24.8377 67.3159 26.9793 52.557 35.5482 43.0073C44.1308 33.4423 57.8018 30.6116 73.1902 34.1066C88.5464 37.5942 105.406 47.3516 120.086 62.5928Z" fill="white" stroke="black" stroke-width="2"/>
<path d="M113.94 68.5102C126.477 81.5265 134.986 96.399 138.642 109.878C142.311 123.406 141.034 135.232 134.47 142.547C127.889 149.882 116.908 151.675 104.191 148.205C91.5246 144.748 77.4007 136.121 64.8646 123.106C52.3278 110.089 43.8184 95.2169 40.1624 81.7383C36.493 68.21 37.7707 56.384 44.3348 49.0685C50.9156 41.7344 61.8965 39.9405 74.6136 43.4111C87.2798 46.8679 101.404 55.4949 113.94 68.5102Z" fill="#0F0F0F" stroke="black" stroke-width="2"/>
<path d="M107.748 75.4008C119.574 87.6787 127.784 101.501 131.527 113.88C135.291 126.33 134.454 136.96 128.771 143.293C123.069 149.648 113.18 150.922 101.465 147.312C89.819 143.723 76.6823 135.381 64.8574 123.104C53.0316 110.826 44.822 97.0044 41.0791 84.6254C37.3148 72.1755 38.1523 61.5448 43.8348 55.2118C49.5366 48.8574 59.4259 47.583 71.1407 51.1933C82.7868 54.7825 95.9235 63.1237 107.748 75.4008Z" stroke="#191919" stroke-width="2"/>
<path fill-rule="evenodd" clip-rule="evenodd" d="M78.2119 101.163L117.514 148.888C120.181 148.438 122.616 147.551 124.751 146.194C126.877 144.844 128.593 143.1 129.912 141.028L90.6271 93.325L94.2333 109.22L88.7706 106.282L78.2119 101.163ZM111.402 149.187L73.98 103.746L77.2258 118.901L70.0426 115.881L64.0403 87.8502L74.3961 92.8701L84.7519 97.8899L80.6028 77.352L109.012 91.1234L110.029 98.0607L94.81 90.6825L132.156 136.031C136.095 122.788 129.219 101.732 113.218 82.3022C91.9827 56.5163 62.608 43.2358 47.7401 52.6811C32.8724 62.1263 38.0374 90.7866 59.2728 116.573C75.2592 135.985 95.8531 148.307 111.402 149.187Z" fill="#EAFA35"/>
</svg>
