<svg width="16" height="16" viewBox="0 0 16 16" fill="none" xmlns="http://www.w3.org/2000/svg">
<path d="M8.00059 5.4039C6.56699 5.4039 5.39707 6.57382 5.39707 8.00741C5.39707 9.441 6.56699 10.6109 8.00059 10.6109C9.43418 10.6109 10.6041 9.441 10.6041 8.00741C10.6041 6.57382 9.43418 5.4039 8.00059 5.4039ZM15.8092 8.00741C15.8092 6.92929 15.819 5.86093 15.7584 4.78476C15.6979 3.53476 15.4127 2.42538 14.4986 1.51132C13.5826 0.595307 12.4752 0.312104 11.2252 0.251557C10.1471 0.191011 9.07871 0.200776 8.00254 0.200776C6.92441 0.200776 5.85606 0.191011 4.77988 0.251557C3.52988 0.312104 2.42051 0.59726 1.50644 1.51132C0.590425 2.42734 0.307222 3.53476 0.246675 4.78476C0.186128 5.86288 0.195893 6.93124 0.195893 8.00741C0.195893 9.08358 0.186128 10.1539 0.246675 11.2301C0.307222 12.4801 0.592378 13.5894 1.50644 14.5035C2.42246 15.4195 3.52988 15.7027 4.77988 15.7633C5.85801 15.8238 6.92637 15.814 8.00254 15.814C9.08067 15.814 10.149 15.8238 11.2252 15.7633C12.4752 15.7027 13.5846 15.4176 14.4986 14.5035C15.4147 13.5875 15.6979 12.4801 15.7584 11.2301C15.8209 10.1539 15.8092 9.08554 15.8092 8.00741ZM8.00059 12.0133C5.78379 12.0133 3.99472 10.2242 3.99472 8.00741C3.99472 5.79062 5.78379 4.00155 8.00059 4.00155C10.2174 4.00155 12.0065 5.79062 12.0065 8.00741C12.0065 10.2242 10.2174 12.0133 8.00059 12.0133ZM12.1705 4.77304C11.6529 4.77304 11.235 4.35507 11.235 3.83749C11.235 3.31992 11.6529 2.90195 12.1705 2.90195C12.6881 2.90195 13.1061 3.31992 13.1061 3.83749C13.1062 3.96039 13.0821 4.08212 13.0352 4.19569C12.9882 4.30927 12.9193 4.41246 12.8324 4.49937C12.7455 4.58627 12.6423 4.65518 12.5287 4.70214C12.4151 4.7491 12.2934 4.77319 12.1705 4.77304Z" fill="white"/>
</svg>
