<svg width="114" height="33" viewBox="0 0 114 33" fill="none" xmlns="http://www.w3.org/2000/svg">
<path fill-rule="evenodd" clip-rule="evenodd" d="M59.3383 0.624024C55.8589 1.4747 53.6667 4.66172 53.6667 8.86989C53.6667 10.8465 53.5195 11.0749 52.1389 11.2327C51.2989 11.3287 50.6112 11.6553 50.6112 11.9587C50.6112 12.2621 51.2989 12.5887 52.1389 12.6847L53.6667 12.8596V21.3344C53.6667 28.3031 53.5117 29.9631 52.7939 30.6764C52.3134 31.1531 51.6884 31.5431 51.405 31.5431C51.1212 31.5431 50.8889 31.7914 50.8889 32.0948C50.8889 32.4258 53.1111 32.6465 56.4444 32.6465C61.7021 32.6465 63.5932 32.06 60.6771 31.3329C58.8894 30.8877 58.6833 29.7871 58.6744 20.6476L58.6666 12.7862H63.6665H68.6665V21.362C68.6665 29.732 68.6992 29.9709 70.0303 31.2921C71.8392 33.0889 75.8641 33.1656 78.6663 31.4565C80.6391 30.2533 80.2085 29.3248 78.178 30.4039C76.6408 31.2209 75.5602 31.1382 74.5391 30.1248C73.8236 29.4137 73.6664 27.7735 73.6664 21.0222V12.7862H76.4441C78.543 12.7862 79.2219 12.5838 79.2219 11.9587C79.2219 11.3337 78.543 11.1312 76.4441 11.1312H73.6664V7.54532C73.6664 3.55341 73.1308 2.99126 72.0792 5.87982C71.6947 6.93572 70.6253 8.54937 69.7026 9.4657C68.102 11.0551 67.8115 11.1312 63.346 11.1312H58.6666V7.85702C58.6666 3.29799 59.3799 1.63193 61.2366 1.85426C62.3343 1.98555 62.8493 2.49254 63.3193 3.90648C64.4876 7.41788 67.8331 7.66117 67.8331 4.23473C67.8331 1.44878 63.4993 -0.393262 59.3383 0.624024ZM84.1207 3.13193C83.1112 5.33146 84.2723 7.26948 86.599 7.26948C88.8184 7.26948 89.7773 6.43701 89.7773 4.51112C89.7773 2.58522 88.8184 1.75275 86.599 1.75275C85.1696 1.75275 84.6107 2.06389 84.1207 3.13193ZM0.889648 2.79651C0.889648 3.06683 1.48686 3.43701 2.21741 3.61906C2.9474 3.80111 3.73294 4.38644 3.96349 4.91991C4.57293 6.3333 4.97959 22.0499 4.51737 26.3353C4.1646 29.6112 3.95294 30.0922 2.50963 30.9076C1.62242 31.4091 0.895204 32.0098 0.892982 32.2437C0.891315 32.4771 6.20235 32.6012 12.695 32.5196L24.5004 32.3706L25.1232 27.6814C25.7726 22.7925 25.6354 21.7382 24.5743 23.4633C20.2644 30.4674 19.3705 31.1983 15.0711 31.2397C10.2484 31.286 10.334 31.5288 10.334 17.8064C10.334 7.88681 10.4806 5.65198 11.1989 4.63414C11.6745 3.95944 12.4095 3.40777 12.8328 3.40777C13.2556 3.40777 13.7561 3.15952 13.945 2.8561C14.1667 2.49972 11.9139 2.30442 7.589 2.30442C3.9046 2.30442 0.889648 2.52564 0.889648 2.79651ZM35.1486 11.2537C32.2998 12.0034 28.9454 15.2621 28.1759 18.0271C27.2015 21.5297 27.4432 23.9532 29.0837 27.1479C31.0303 30.9379 34.0014 32.6465 38.6458 32.6465C46.0162 32.6465 50.725 25.9028 48.6662 18.2974C47.7912 15.0641 44.6512 12.0602 41.2613 11.2123C38.3663 10.4885 38.0491 10.4907 35.1486 11.2537ZM101.372 11.4429C93.1628 13.953 91.0606 25.6237 97.8866 30.7939C100.239 32.5753 105.36 33.2263 108.114 32.0931C110.009 31.3136 113.11 28.0499 113.11 26.8346C113.11 25.4924 112.316 25.9232 111.527 27.6941C110.588 29.8015 108.296 30.9914 105.179 30.9914C102.281 30.9914 100.49 29.4424 99.7816 26.3226C99.3771 24.5418 99.4638 24.2555 100.523 23.8804C112.856 19.5067 113.11 19.376 113.11 17.4252C113.11 15.0194 110.403 11.9074 107.648 11.1477C105.1 10.4449 104.55 10.4708 101.372 11.4429ZM81.444 11.6829C81.444 11.9863 81.8102 12.2345 82.2579 12.2345C83.7951 12.2345 84.2218 14.3745 84.2218 22.0891C84.2218 28.3721 84.059 29.9709 83.349 30.6764C82.8685 31.1531 82.2435 31.5431 81.9602 31.5431C81.6763 31.5431 81.444 31.7914 81.444 32.0948C81.444 32.4236 83.5735 32.6465 86.7217 32.6465C89.87 32.6465 91.9995 32.4236 91.9995 32.0948C91.9995 31.7914 91.7672 31.5431 91.4834 31.5431C91.2 31.5431 90.575 31.1531 90.0945 30.6764C89.37 29.9565 89.2217 28.2248 89.2217 20.4705V11.1312H85.3329C83.1107 11.1312 81.444 11.3679 81.444 11.6829ZM41.5802 13.1878C42.9224 14.3888 43.6607 17.3784 43.6607 21.613C43.6607 28.1558 41.9446 31.5431 38.6302 31.5431C36.0741 31.5431 34.9742 30.7101 33.9242 27.981C32.6664 24.7101 32.9664 16.4124 34.4225 14.2057C36.1247 11.6261 39.3263 11.1709 41.5802 13.1878ZM107.199 13.3335C107.774 13.8813 108.356 15.4039 108.511 16.766L108.789 19.2143L104.699 20.6923C98.9288 22.7776 98.996 22.8024 99.4221 18.7548C99.6193 16.8791 100.17 14.7557 100.645 14.0358C102.255 11.5957 105.059 11.2956 107.199 13.3335Z" fill="white"/>
</svg>
