<svg width="171" height="171" viewBox="0 0 171 171" fill="none" xmlns="http://www.w3.org/2000/svg">
<path d="M66.2774 6.92764L68.8336 14.6887C69.3682 16.3117 69.2817 17.774 68.5742 19.0757C67.8748 20.3611 66.7137 21.2711 65.0907 21.8057C63.4677 22.3402 61.9869 22.3004 60.6483 21.6862C59.318 21.0557 58.3855 19.929 57.851 18.306L55.2947 10.5449L58.2601 9.56826L60.6957 16.9633C61.0132 17.9273 61.4862 18.5831 62.1147 18.9307C62.7392 19.2661 63.4298 19.3092 64.1863 19.06C64.9429 18.8108 65.4727 18.3658 65.7756 17.7249C66.0746 17.0719 66.0653 16.2633 65.7477 15.2993L63.3121 7.90431L66.2774 6.92764Z" fill="white"/>
<path d="M73.6016 9.38239C73.6506 9.75174 73.9293 10.0452 74.4378 10.2629C74.9445 10.4678 75.8006 10.6199 77.0062 10.7191C78.5369 10.827 79.6828 11.1609 80.444 11.7209C81.218 12.2791 81.6785 13.1123 81.8256 14.2203C81.9861 15.4303 81.6756 16.5083 80.8939 17.4545C80.1123 18.4007 78.9382 18.9777 77.3716 19.1856C74.2385 19.6014 72.0917 18.4154 70.9311 15.6274L73.381 14.0191C73.7642 14.9533 74.2363 15.6294 74.7972 16.0474C75.3692 16.451 76.1073 16.5928 77.0116 16.4728C77.6102 16.3934 78.0709 16.2026 78.3937 15.9006C78.7276 15.5841 78.8683 15.2285 78.8159 14.8336C78.7483 14.3242 78.453 13.9551 77.9302 13.7264C77.4056 13.485 76.614 13.3308 75.5554 13.264C72.6824 13.1009 71.104 11.9496 70.82 9.80988C70.6662 8.65089 70.9822 7.66284 71.768 6.84572C72.5538 6.0286 73.6727 5.52369 75.1246 5.33099C76.4364 5.15689 77.5507 5.30062 78.4673 5.76219C79.384 6.22375 80.1565 7.0155 80.785 8.13742L78.6559 9.81971C77.9258 8.32247 76.8412 7.66935 75.402 7.86036C74.8289 7.93642 74.3728 8.11359 74.0339 8.39186C73.695 8.67013 73.5509 9.00031 73.6016 9.38239Z" fill="white"/>
<path d="M83.8361 18.3718L84.3963 4.89323L94.2357 5.30218L94.1221 8.03641L87.402 7.75711L87.3004 10.2025L93.4813 10.4594L93.3708 13.1166L87.1899 12.8597L87.0691 15.7672L93.8469 16.0489L93.7333 18.7832L83.8361 18.3718Z" fill="white"/>
<path d="M95.3069 19.0896L98.2956 5.93463L104.441 7.3308C106.032 7.69229 107.201 8.34653 107.948 9.2935C108.707 10.2433 108.925 11.4261 108.604 12.8418C108.282 14.2575 107.574 15.2297 106.479 15.7582C105.396 16.2896 104.059 16.3746 102.468 16.0131L99.3675 15.3086L98.3513 19.7813L95.3069 19.0896ZM100.768 9.14455L99.9396 12.7904L102.965 13.4778C104.419 13.808 105.283 13.3654 105.559 12.1501C105.836 10.9349 105.247 10.1621 103.794 9.83196L100.768 9.14455Z" fill="white"/>
<path d="M105.322 21.3125L115.62 11.0119L118.319 12.149L118.145 26.7134L115.019 25.3968L115.164 21.924L110.831 20.0987L108.448 22.629L105.322 21.3125ZM114.368 16.3187L112.769 18.0293L115.291 19.0915L115.398 16.7526L115.415 16.216C115.413 15.9225 115.442 15.5377 115.503 15.0615C115.445 15.1344 115.359 15.2379 115.247 15.3719C115.14 15.494 115.046 15.6009 114.966 15.6925C114.885 15.7841 114.81 15.8638 114.74 15.9318L114.368 16.3187Z" fill="white"/>
<path d="M124.854 31.5312L125.311 25.4384L123.917 24.5067L120.961 28.9287L118.365 27.1938L125.862 15.9784L130.749 19.2448C132.094 20.1444 132.938 21.1254 133.279 22.1877C133.627 23.2393 133.447 24.2938 132.74 25.3513C132.198 26.163 131.547 26.6861 130.787 26.9203C130.028 27.1546 129.139 27.1784 128.12 26.9919L127.642 33.3947L124.854 31.5312ZM127.044 19.8282L125.33 22.3918L127.878 24.0946C128.828 24.73 129.589 24.6205 130.161 23.766C130.732 22.9115 130.542 22.1665 129.591 21.5311L127.044 19.8282Z" fill="white"/>
<path d="M127.753 33.5672L141.159 27.8721L143.236 29.9373L137.621 43.3768L135.215 40.9855L136.65 37.8198L133.315 34.5046L130.158 35.9585L127.753 33.5672ZM138.01 32.3239L135.887 33.3114L137.828 35.2407L138.803 33.112L139.02 32.6208C139.128 32.3479 139.299 32.0022 139.534 31.5836C139.453 31.6292 139.335 31.6932 139.181 31.7754C139.036 31.8485 138.909 31.9125 138.8 31.9673C138.691 32.0221 138.591 32.0678 138.5 32.1045L138.01 32.3239Z" fill="white"/>
<path d="M145.659 50.4174L143.284 52.0652L137.648 43.942L148.733 36.2526L150.512 38.8178L141.803 44.8595L145.659 50.4174Z" fill="white"/>
<path d="M150.636 61.0742L148.017 62.2991L143.828 53.3441L156.047 47.628L157.37 50.4559L147.769 54.9471L150.636 61.0742Z" fill="white"/>
<path d="M148.344 63.6552L161.36 60.1114L163.947 69.6134L161.307 70.3323L159.54 63.8426L157.179 64.4856L158.804 70.4546L156.238 71.1532L154.613 65.1842L151.805 65.9487L153.587 72.4941L150.946 73.213L148.344 63.6552Z" fill="white"/>
<path d="M154.885 84.4299L152.007 84.7014L151.079 74.8587L164.509 73.5915L164.802 76.6997L154.25 77.6954L154.885 84.4299Z" fill="white"/>
<path d="M162.766 106.039L154.726 104.579C153.045 104.274 151.801 103.5 150.995 102.257C150.2 101.028 149.955 99.5736 150.26 97.8924C150.565 96.2111 151.307 94.929 152.486 94.0462C153.675 93.1783 155.11 92.8969 156.792 93.2022L164.831 94.6618L164.274 97.7336L156.613 96.3428C155.614 96.1615 154.812 96.264 154.207 96.6503C153.614 97.0388 153.246 97.625 153.104 98.4087C152.962 99.1925 153.1 99.8705 153.518 100.443C153.949 101.017 154.664 101.395 155.663 101.576L163.324 102.967L162.766 106.039Z" fill="white"/>
<path d="M157.041 111.273C156.694 111.139 156.304 111.242 155.87 111.583C155.448 111.927 154.905 112.603 154.24 113.61C153.412 114.897 152.571 115.739 151.716 116.137C150.857 116.546 149.908 116.549 148.868 116.147C147.733 115.708 146.939 114.919 146.486 113.782C146.034 112.645 146.092 111.342 146.661 109.872C147.798 106.933 149.864 105.624 152.859 105.945L153.091 108.858C152.091 108.746 151.273 108.835 150.639 109.125C150.012 109.432 149.534 110.009 149.206 110.858C148.988 111.419 148.934 111.913 149.044 112.34C149.16 112.784 149.404 113.078 149.774 113.221C150.252 113.406 150.717 113.325 151.167 112.977C151.63 112.634 152.144 112.016 152.71 111.122C154.229 108.687 155.992 107.859 158 108.636C159.087 109.057 159.8 109.806 160.138 110.885C160.476 111.964 160.381 113.185 159.854 114.547C159.378 115.777 158.718 116.683 157.875 117.263C157.032 117.844 155.969 118.14 154.687 118.152L154.236 115.484C155.895 115.563 156.986 114.927 157.509 113.577C157.717 113.039 157.781 112.556 157.7 112.126C157.619 111.696 157.399 111.412 157.041 111.273Z" fill="white"/>
<path d="M144.406 116.054L156.008 123.069L150.887 131.538L148.534 130.115L152.031 124.331L149.926 123.059L146.709 128.379L144.422 126.996L147.639 121.676L145.136 120.162L141.609 125.996L139.255 124.573L144.406 116.054Z" fill="white"/>
<path d="M138.181 125.71L148.299 134.613L144.14 139.34C143.063 140.564 141.931 141.277 140.743 141.48C139.547 141.693 138.405 141.32 137.316 140.362C136.227 139.404 135.712 138.318 135.771 137.105C135.822 135.901 136.385 134.687 137.462 133.464L139.561 131.079L136.121 128.051L138.181 125.71ZM144.302 135.251L141.498 132.783L139.45 135.11C138.466 136.228 138.442 137.198 139.376 138.021C140.311 138.843 141.27 138.695 142.254 137.578L144.302 135.251Z" fill="white"/>
<path d="M131.44 133.438L135.571 147.405L133.283 149.234L120.57 142.125L123.22 140.007L126.202 141.793L129.875 138.858L128.79 135.556L131.44 133.438ZM131.507 143.771L130.768 141.549L128.63 143.257L130.634 144.468L131.097 144.74C131.356 144.878 131.68 145.088 132.069 145.369C132.033 145.283 131.983 145.158 131.919 144.996C131.862 144.843 131.813 144.71 131.771 144.595C131.729 144.481 131.695 144.377 131.669 144.282L131.507 143.771Z" fill="white"/>
<path d="M113.142 145.732L118.279 149.039L119.763 148.259L117.286 143.551L120.049 142.098L126.33 154.036L121.128 156.773C119.696 157.527 118.431 157.8 117.335 157.593C116.245 157.397 115.404 156.737 114.811 155.611C114.357 154.747 114.208 153.925 114.364 153.146C114.52 152.367 114.923 151.574 115.573 150.768L110.174 147.293L113.142 145.732ZM122.383 153.239L120.947 150.51L118.235 151.937C117.223 152.469 116.957 153.19 117.435 154.1C117.914 155.009 118.659 155.198 119.671 154.666L122.383 153.239Z" fill="white"/>
<path d="M109.952 147.32L108.528 161.816L105.719 162.65L96.6138 151.281L99.8653 150.316L101.956 153.092L106.464 151.754L106.701 148.286L109.952 147.32ZM106.129 156.919L106.279 154.583L103.656 155.362L105.057 157.238L105.384 157.663C105.572 157.889 105.793 158.205 106.048 158.612C106.047 158.518 106.048 158.384 106.049 158.209C106.055 158.047 106.059 157.905 106.063 157.783C106.067 157.661 106.075 157.552 106.086 157.455L106.129 156.919Z" fill="white"/>
<path d="M86.5952 154.939L86.2905 152.064L96.1218 151.022L97.5436 164.438L94.439 164.767L93.3219 154.226L86.5952 154.939Z" fill="white"/>
<path d="M74.8134 154.255L74.9868 151.364L84.8732 151.957L84.0638 165.447L80.9418 165.26L81.5778 154.661L74.8134 154.255Z" fill="white"/>
<path d="M73.6947 150.964L70.5982 164.094L61.0133 161.834L61.6414 159.17L68.1877 160.714L68.7495 158.332L62.7284 156.912L63.3389 154.323L69.3599 155.743L70.0279 152.911L63.4254 151.354L64.0535 148.69L73.6947 150.964Z" fill="white"/>
<path d="M52.3141 146.799L53.4506 144.141L62.5409 148.028L57.2374 160.432L54.3668 159.204L58.5338 149.458L52.3141 146.799Z" fill="white"/>
<path d="M29.5001 143.395L34.6479 137.021C35.7245 135.688 37.0033 134.966 38.4846 134.854C39.9477 134.744 41.3456 135.228 42.6785 136.304C44.0113 137.381 44.7829 138.65 44.9934 140.111C45.1857 141.575 44.7436 142.973 43.6671 144.306L38.5192 150.679L36.0841 148.712L40.9891 142.64C41.6285 141.848 41.9238 141.093 41.8748 140.374C41.8178 139.666 41.4786 139.061 40.8573 138.559C40.236 138.057 39.573 137.853 38.8684 137.946C38.1558 138.049 37.4797 138.497 36.8403 139.289L31.9352 145.362L29.5001 143.395Z" fill="white"/>
<path d="M27.6649 135.879C27.9483 135.637 28.0431 135.244 27.9494 134.699C27.846 134.162 27.5082 133.361 26.9361 132.295C26.1946 130.952 25.8519 129.808 25.9081 128.865C25.9559 127.912 26.4049 127.072 27.2549 126.347C28.1832 125.554 29.2569 125.229 30.4759 125.37C31.695 125.512 32.8176 126.184 33.8437 127.386C35.8959 129.789 36.0674 132.236 34.3583 134.726L31.6766 133.544C32.2524 132.714 32.5632 131.951 32.6092 131.253C32.637 130.553 32.3548 129.856 31.7625 129.163C31.3704 128.703 30.9598 128.42 30.5308 128.314C30.0837 128.206 29.7087 128.281 29.4058 128.539C29.015 128.873 28.8657 129.322 28.958 129.885C29.0405 130.456 29.3414 131.204 29.8608 132.129C31.2857 134.629 31.1774 136.58 29.5359 137.982C28.6467 138.741 27.6456 139.013 26.5326 138.797C25.4196 138.582 24.3875 137.917 23.4365 136.803C22.5773 135.797 22.0922 134.784 21.9813 133.763C21.8704 132.743 22.115 131.664 22.715 130.527L25.2844 131.399C24.4246 132.826 24.466 134.091 25.4087 135.196C25.7841 135.635 26.1807 135.922 26.5985 136.055C27.0163 136.188 27.3718 136.13 27.6649 135.879Z" fill="white"/>
<path d="M29.6434 122.401L18.015 129.24L13.0228 120.751L15.3817 119.364L18.7913 125.161L20.901 123.921L17.7649 118.588L20.0574 117.24L23.1934 122.572L25.7018 121.097L22.2629 115.25L24.6218 113.862L29.6434 122.401Z" fill="white"/>
<path d="M24.0365 112.359L11.3557 116.946L9.21307 111.022C8.6583 109.488 8.57774 108.152 8.9714 107.012C9.36069 105.861 10.2377 105.038 11.6024 104.545C12.9671 104.051 14.1673 104.122 15.2031 104.758C16.2345 105.382 17.0276 106.461 17.5824 107.995L18.6635 110.984L22.975 109.424L24.0365 112.359ZM12.7217 113.133L16.2361 111.862L15.1811 108.945C14.6744 107.544 13.8353 107.056 12.6639 107.479C11.4924 107.903 11.16 108.816 11.6667 110.216L12.7217 113.133Z" fill="white"/>
<path d="M20.4812 102.745L6.24482 99.6666L5.73867 96.7813L18.0769 89.0405L18.663 92.3814L15.6649 94.14L16.4774 98.7715L19.8951 99.4046L20.4812 102.745ZM11.3843 97.8454L13.688 98.263L13.2152 95.5676L11.1911 96.7444L10.7309 97.0208C10.4851 97.1813 10.1456 97.3648 9.71219 97.5713C9.80521 97.5811 9.93842 97.5968 10.1118 97.6186C10.2725 97.6426 10.4132 97.6635 10.5337 97.6815C10.6543 97.6995 10.7622 97.7197 10.8574 97.7421L11.3843 97.8454Z" fill="white"/>
<path d="M18.4801 80.7975L13.113 83.7172L13.0858 85.3936L18.4041 85.4799L18.3534 88.6015L4.86496 88.3826L4.96037 82.5055C4.98664 80.8869 5.35372 79.6464 6.06159 78.7841C6.75661 77.9217 7.74001 77.5007 9.01178 77.5214C9.98808 77.5372 10.7805 77.8007 11.389 78.3117C11.9974 78.8227 12.4995 79.5568 12.8952 80.5141L18.5345 77.4447L18.4801 80.7975ZM7.45917 85.3023L10.5422 85.3523L10.592 82.2885C10.6105 81.1452 10.106 80.5652 9.07828 80.5485C8.05059 80.5318 7.52747 81.0952 7.50891 82.2385L7.45917 85.3023Z" fill="white"/>
<path d="M18.6081 77.2243L6.55033 69.0534L7.15786 66.1878L21.4939 63.6126L20.7904 66.9307L17.3525 67.4429L16.3773 72.043L19.3116 73.9062L18.6081 77.2243ZM11.9981 69.2824L13.9794 70.5299L14.547 67.8528L12.2299 68.189L11.6998 68.2736C11.4119 68.3307 11.0283 68.3742 10.5492 68.404C10.6319 68.4478 10.7496 68.5121 10.9023 68.597C11.0425 68.6793 11.1651 68.7512 11.2702 68.8129C11.3753 68.8746 11.4679 68.9336 11.5479 68.99L11.9981 69.2824Z" fill="white"/>
<path d="M23.0599 53.079L25.7308 54.1848L21.9491 63.3193L9.48483 58.159L10.6791 55.2744L20.4724 59.329L23.0599 53.079Z" fill="white"/>
<path d="M29.2743 43.0694L31.7315 44.6015L26.4917 53.005L15.025 45.8551L16.6797 43.2014L25.6892 48.8191L29.2743 43.0694Z" fill="white"/>
<path d="M32.7735 43.6776L22.7907 34.6392L29.3888 27.3518L31.4139 29.1853L26.9075 34.1624L28.7187 35.8022L32.8635 31.2244L34.8315 33.0063L30.6867 37.5841L32.8402 39.5338L37.3852 34.5139L39.4103 36.3474L32.7735 43.6776Z" fill="white"/>
<path d="M46.6288 26.9349L48.4211 29.1897L40.7097 35.3193L32.3458 24.7969L34.7809 22.8613L41.3526 31.1288L46.6288 26.9349Z" fill="white"/>
<path d="M111.592 83.907L104.747 91.1633L90.0928 77.3169L96.9384 70.0605L111.592 83.907Z" fill="black"/>
<path d="M111.591 83.9071L104.746 91.1634L101.981 94.0617L108.827 86.8054L111.591 83.9071Z" fill="#E1E31A"/>
<path d="M108.827 86.8052L101.981 94.0616L93.3164 85.8674L100.158 78.6111L108.827 86.8052Z" fill="#E1E31A"/>
<path d="M108.926 87.9298L102.08 95.1904L94.374 87.9001L101.22 80.6438L108.926 87.9298Z" fill="black"/>
<path d="M112.725 83.9453L105.88 91.2016L102.08 95.1905L108.926 87.9299L112.725 83.9453Z" fill="black"/>
<path d="M88.035 79.4175L81.1895 86.6738L89.9562 76.1543L96.8018 68.8979L88.035 79.4175Z" fill="black"/>
<path d="M88.1708 80.5801L81.3252 87.8407L90.092 77.3169L96.9376 70.0605L88.1708 80.5801Z" fill="#E1E31A"/>
<path d="M88.1701 80.5802L81.3246 87.8408L70.1851 77.3085L77.0306 70.0521L88.1701 80.5802Z" fill="black"/>
<path d="M117.462 108.332L110.616 115.589C117.044 108.774 120.388 99.0987 119.051 88.3881C116.478 67.8031 97.5725 51.0583 76.9079 51.0583C66.9953 51.0583 58.4543 54.9114 52.5288 61.1917L59.3744 53.9354C65.2956 47.6508 73.8408 43.802 83.7535 43.802C104.418 43.802 123.323 60.5467 125.896 81.1318C127.234 91.8423 123.89 101.517 117.462 108.332Z" fill="black"/>
<path d="M77.4833 55.6583C68.7974 55.6583 61.3129 59.0319 56.1201 64.5357L62.9657 57.2793C68.1585 51.7755 75.643 48.402 84.3289 48.402C93.0402 48.402 101.398 51.801 107.975 57.3345C105.692 59.7533 103.413 62.172 101.13 64.5908C94.5525 59.0531 86.1947 55.6583 77.4833 55.6583Z" fill="#E1E31A"/>
<path d="M101.129 64.5908C103.412 62.172 105.691 59.7533 107.974 57.3345C115.071 63.305 120.098 71.7665 121.265 81.1319C122.42 90.3572 119.638 98.9078 113.908 104.976L107.063 112.232C112.792 106.164 115.574 97.6093 114.42 88.3882C113.248 79.0229 108.226 70.5614 101.129 64.5908Z" fill="#E1E31A"/>
<path d="M113.291 104.395L106.445 111.651C112.03 105.727 114.744 97.3843 113.619 88.3882C111.417 70.782 95.2506 56.456 77.5808 56.456C69.1079 56.456 61.8023 59.749 56.7373 65.1212L63.5829 57.8649C68.6478 52.4926 75.9535 49.1997 84.4263 49.1997C102.096 49.1997 118.267 63.5257 120.465 81.1318C121.589 90.128 118.88 98.4706 113.291 104.395Z" fill="black"/>
<path d="M104.281 111.587L97.4357 118.843L93.3164 85.8674L100.158 78.6111L104.281 111.587Z" fill="black"/>
<path d="M100.226 112.924L93.3805 120.18L89.0908 85.8422L95.9364 78.5858L100.226 112.924Z" fill="#E1E31A"/>
<path d="M89.1411 87.268L82.2998 94.5243L89.09 85.8422L95.9356 78.5858L89.1411 87.268Z" fill="black"/>
<path d="M89.1428 87.2678L82.2972 94.5242L79.8521 91.9569L86.6976 84.6963L89.1428 87.2678Z" fill="#E1E31A"/>
<path d="M86.1606 85.2225L79.315 92.4789L74.4375 87.8705L81.2831 80.6141L86.1606 85.2225Z" fill="black"/>
<path d="M99.349 112.292L92.5034 119.548L88.5503 87.913L95.3959 80.6566L99.349 112.292Z" fill="black"/>
<path d="M89.2692 88.49L82.4237 95.7463L79.314 92.4789L86.1596 85.2225L89.2692 88.49Z" fill="black"/>
<path d="M84.52 112.915L77.6744 120.172L73.3848 85.8379L80.2303 78.5815L84.52 112.915Z" fill="black"/>
<path d="M81.2825 80.6142L86.1601 85.2226L86.1814 85.2438L86.6968 84.6964L80.2303 78.5815L73.3848 85.8379L74.9524 87.3231L81.2825 80.6142Z" fill="#E1E31A"/>
<path d="M113.913 104.972L107.068 112.228C104.567 114.88 101.504 117.057 97.96 118.61L104.806 111.354C108.35 109.801 111.413 107.624 113.913 104.972Z" fill="black"/>
<path d="M104.805 111.354L97.959 118.614L97.4351 118.843L104.281 111.587L104.805 111.354Z" fill="black"/>
<path d="M100.225 112.924L93.3797 120.18L93.0815 120.252L99.9271 112.996L100.225 112.924Z" fill="black"/>
<path d="M80.1319 111.575L73.2864 118.831L69.1543 85.7912L75.9999 78.5349L80.1319 111.575Z" fill="#E1E31A"/>
<path d="M69.3207 86.8054L62.4751 94.0618L69.1545 85.7912L76.0001 78.5349L69.3207 86.8054Z" fill="black"/>
<path d="M69.3209 86.8054L62.4753 94.0617L58.9907 91.1634L65.8363 83.9071L69.3209 86.8054Z" fill="#E1E31A"/>
<path d="M65.8363 83.9071L58.9907 91.1634L70.1856 77.3085L77.0312 70.0521L65.8363 83.9071Z" fill="#E1E31A"/>
<path d="M79.1776 110.369L72.3363 117.626L68.6089 87.8237L75.4545 80.5674L79.1776 110.369Z" fill="black"/>
<path d="M69.5046 87.9299L62.659 95.1905L57.8667 91.2016L64.7123 83.9453L69.5046 87.9299Z" fill="black"/>
<path d="M64.7123 83.9453L57.8667 91.2016L70.0414 76.1373L76.8869 68.881L64.7123 83.9453Z" fill="black"/>
<path d="M99.9286 112.996L93.083 120.252C90.6975 120.83 88.2012 121.122 85.6624 121.122C83.1107 121.122 80.5335 120.83 77.9946 120.248L84.8402 112.992C87.3791 113.573 89.9563 113.866 92.508 113.866C95.0468 113.866 97.5431 113.573 99.9286 112.996Z" fill="black"/>
<path d="M86.6964 84.6964L89.1416 87.2679L95.9318 78.5858L100.221 112.924L99.9233 112.996C97.5378 113.573 95.0415 113.866 92.5026 113.866C89.951 113.866 87.3738 113.573 84.8349 112.992L84.5154 112.92L80.23 78.5815L86.6964 84.6964ZM99.3482 112.292L95.3951 80.6566L89.2694 88.4858L86.164 85.2183L81.2822 80.6142L85.2396 112.287C87.6166 112.805 90.0319 113.064 92.4089 113.064C94.7816 113.064 97.116 112.805 99.3482 112.292Z" fill="black"/>
<path d="M84.8399 112.988L77.9943 120.244L77.6748 120.172L84.5204 112.915L84.8399 112.988Z" fill="black"/>
<path d="M80.1318 111.574L73.2862 118.831L72.7026 118.597L79.544 111.341L80.1318 111.574Z" fill="black"/>
<path d="M56.1151 64.5399L62.9606 57.2836C57.3249 63.2584 54.3941 71.7411 55.5655 81.1319C57.2184 94.363 66.6326 106.224 79.5442 111.341L72.6987 118.597C59.7871 113.48 50.3728 101.619 48.72 88.3882C47.5485 78.9932 50.4793 70.5105 56.1151 64.5399Z" fill="black"/>
<path d="M86.2371 125.722C77.1977 125.722 68.4991 122.518 61.3511 117.193C61.5896 116.938 61.9091 116.599 62.1519 116.344C62.4075 116.073 62.744 115.716 62.9996 115.445C63.2637 115.165 63.6173 114.791 63.8814 114.511C64.1498 114.227 64.5076 113.845 64.776 113.561C65.0444 113.276 65.4022 112.894 65.6706 112.61C65.9347 112.33 66.2882 111.956 66.5481 111.676C66.8037 111.405 67.1402 111.048 67.3958 110.777C67.6344 110.522 67.9538 110.183 68.1967 109.928C75.3404 115.254 84.0433 118.457 93.0827 118.457C102.995 118.457 111.541 114.604 117.462 108.324L110.616 115.58C104.695 121.869 96.1498 125.722 86.2371 125.722Z" fill="#E1E31A"/>
<path d="M44.0937 88.3883C42.7561 77.6778 46.1001 68.0069 52.5282 61.1919L59.3738 53.9355C52.9414 60.7463 49.5974 70.4214 50.9393 81.132C52.3876 92.7124 59.0032 103.083 68.1959 109.937C66.9052 111.303 65.6145 112.674 64.3237 114.04C63.7401 114.66 63.1523 115.279 62.5687 115.903C62.3216 116.166 61.9893 116.514 61.7423 116.777C61.623 116.9 61.3504 117.023 61.3504 117.193C52.1576 110.34 45.5378 99.9687 44.0937 88.3883Z" fill="#E1E31A"/>
<path d="M83.7535 43.802C104.418 43.802 123.323 60.5467 125.896 81.1318C128.469 101.717 113.747 118.466 93.0826 118.466C72.418 118.466 53.5128 101.717 50.9399 81.1318C48.3669 60.5467 63.089 43.802 83.7535 43.802ZM104.806 111.354C116.461 106.24 122.919 94.3799 121.266 81.1276C119.012 63.0801 102.441 48.3977 84.3286 48.3977C66.2157 48.3977 53.3126 63.0801 55.5703 81.1276C57.2232 94.3587 66.6374 106.219 79.549 111.337L80.1326 111.57L76.0048 78.5306L69.3211 86.8053L65.8366 83.907L77.0315 70.0521L88.171 80.5802L96.9377 70.0564L111.592 83.9028L108.831 86.8011L100.162 78.6069L104.282 111.579L104.806 111.354ZM100.226 112.924L95.9367 78.5857L89.1465 87.2679L86.7013 84.6963L80.2306 78.5815L84.5203 112.915L84.8398 112.988C87.3786 113.569 89.9558 113.862 92.5075 113.862C95.0464 113.862 97.5426 113.573 99.9282 112.992L100.226 112.924Z" fill="url(#paint0_linear_887_49266)"/>
<path d="M84.3291 48.402C102.442 48.402 119.013 63.0844 121.266 81.1319C122.923 94.38 116.461 106.245 104.806 111.358L104.278 111.587L100.159 78.6112L108.828 86.8054L111.588 83.9071L96.934 70.0606L88.1673 80.5845L77.032 70.0522L65.8371 83.9071L69.3217 86.8054L76.0011 78.5349L80.1289 111.575L79.5453 111.341C66.6337 106.224 57.2195 94.363 55.5666 81.1319C53.3132 63.0844 66.212 48.402 84.3291 48.402ZM104.934 110.382C115.971 105.273 122.059 93.8538 120.465 81.1319C118.263 63.5257 102.097 49.1997 84.4271 49.1997C66.7573 49.1997 54.1694 63.5257 56.3675 81.1319C57.9564 93.8453 66.8808 105.252 79.179 110.369L75.4559 80.5675L69.5006 87.9299L64.7083 83.941L76.8829 68.881L88.031 79.4175L96.802 68.8937L112.721 83.941L108.926 87.9299L101.215 80.6396L104.934 110.382Z" fill="black"/>
<path d="M118.084 108.914L111.238 116.17C105.189 122.586 96.461 126.52 86.3396 126.52C65.2363 126.52 45.9222 109.415 43.2981 88.3882C41.9307 77.4485 45.3471 67.5655 51.9115 60.6062L58.7571 53.3499C52.1927 60.3091 48.7763 70.1922 50.1437 81.1319C52.772 102.158 72.0819 119.264 93.1852 119.264C103.307 119.264 112.031 115.33 118.084 108.914Z" fill="black"/>
<path d="M83.6513 43C104.759 43 124.069 60.1097 126.693 81.1318C129.321 102.158 114.288 119.264 93.1806 119.264C72.0773 119.264 52.7631 102.158 50.1391 81.1318C47.5107 60.1097 62.548 43 83.6513 43ZM93.0826 118.466C113.747 118.466 128.469 101.717 125.896 81.1318C123.323 60.5468 104.418 43.802 83.7536 43.802C63.089 43.802 48.367 60.5468 50.9399 81.1318C53.5129 101.717 72.4181 118.466 93.0826 118.466Z" fill="black"/>
<defs>
<linearGradient id="paint0_linear_887_49266" x1="68.0965" y1="44.0033" x2="101.463" y2="105.735" gradientUnits="userSpaceOnUse">
<stop stop-color="#EAFA35"/>
<stop offset="1" stop-color="#DACCFF"/>
</linearGradient>
</defs>
</svg>
