<svg width="18" height="14" viewBox="0 0 18 14" fill="none" xmlns="http://www.w3.org/2000/svg">
<path d="M15.3027 0.653646H2.69857C2.24273 0.653646 1.80556 0.834728 1.48323 1.15706C1.1609 1.47938 0.979818 1.91656 0.979818 2.3724V2.71844L9.00065 7.43698L17.0215 2.71615V2.3724C17.0215 1.91656 16.8404 1.47938 16.5181 1.15706C16.1957 0.834728 15.7586 0.653646 15.3027 0.653646Z" fill="white"/>
<path d="M17.0215 4.04646L9.29169 8.59542C9.21861 8.63832 9.13693 8.66448 9.05252 8.67201C8.96811 8.67954 8.88309 8.66825 8.80357 8.63896L8.70961 8.59542L0.979818 4.04875V11.5391C0.979818 11.9949 1.1609 12.4321 1.48323 12.7544C1.80556 13.0767 2.24273 13.2578 2.69857 13.2578H15.3027C15.7586 13.2578 16.1957 13.0767 16.5181 12.7544C16.8404 12.4321 17.0215 11.9949 17.0215 11.5391V4.04646Z" fill="white"/>
</svg>
