<svg width="122" height="33" viewBox="0 0 122 33" fill="none" xmlns="http://www.w3.org/2000/svg">
<path fill-rule="evenodd" clip-rule="evenodd" d="M93.9961 6.46212V12.4261H93.7165H93.4369V12.1421V11.8581H93.1572C92.9242 11.8581 92.8776 11.8345 92.8776 11.7161C92.8776 11.6215 92.831 11.5741 92.7378 11.5741C92.6446 11.5741 92.598 11.5268 92.598 11.4321C92.598 11.3375 92.5514 11.2901 92.4582 11.2901C92.365 11.2901 92.3183 11.2428 92.3183 11.1481C92.3183 11.0298 92.2717 11.0061 92.0387 11.0061C91.8057 11.0061 91.7591 10.9825 91.7591 10.8641C91.7591 10.7458 91.7125 10.7221 91.4795 10.7221C91.2465 10.7221 91.1998 10.6985 91.1998 10.5801C91.1998 10.4539 91.1532 10.4381 90.7804 10.4381C90.4076 10.4381 90.3609 10.4224 90.3609 10.2961C90.3609 10.1569 90.3143 10.1541 87.9841 10.1541C85.6539 10.1541 85.6072 10.1569 85.6072 10.2961C85.6072 10.4224 85.5606 10.4381 85.1878 10.4381C84.815 10.4381 84.7683 10.4539 84.7683 10.5801C84.7683 10.6985 84.7217 10.7221 84.4887 10.7221C84.2557 10.7221 84.2091 10.7458 84.2091 10.8641C84.2091 10.9825 84.1624 11.0061 83.9294 11.0061C83.6964 11.0061 83.6498 11.0298 83.6498 11.1481C83.6498 11.2428 83.6032 11.2901 83.51 11.2901C83.4168 11.2901 83.3702 11.3375 83.3702 11.4321C83.3702 11.5584 83.3236 11.5741 82.9508 11.5741C82.5779 11.5741 82.5313 11.5899 82.5313 11.7161C82.5313 11.8108 82.4847 11.8581 82.3915 11.8581C82.2983 11.8581 82.2517 11.9055 82.2517 12.0001C82.2517 12.0948 82.205 12.1421 82.1119 12.1421C82.0187 12.1421 81.972 12.1895 81.972 12.2841C81.972 12.3788 81.9254 12.4261 81.8322 12.4261C81.739 12.4261 81.6924 12.4735 81.6924 12.5681C81.6924 12.6628 81.6458 12.7101 81.5526 12.7101C81.4361 12.7101 81.4128 12.7575 81.4128 12.9941C81.4128 13.2308 81.3895 13.2781 81.273 13.2781C81.1798 13.2781 81.1332 13.3255 81.1332 13.4201C81.1332 13.5148 81.0865 13.5621 80.9933 13.5621C80.8768 13.5621 80.8535 13.6095 80.8535 13.8461C80.8535 14.0828 80.8302 14.1301 80.7137 14.1301C80.6205 14.1301 80.5739 14.1775 80.5739 14.2721C80.5739 14.3668 80.5273 14.4141 80.4341 14.4141C80.3098 14.4141 80.2943 14.4615 80.2943 14.8401C80.2943 15.2188 80.2787 15.2661 80.1544 15.2661C80.0613 15.2661 80.0146 15.3135 80.0146 15.4081C80.0146 15.5028 79.968 15.5501 79.8748 15.5501C79.7583 15.5501 79.735 15.5975 79.735 15.8341C79.735 16.0708 79.7117 16.1181 79.5952 16.1181C79.467 16.1181 79.4554 16.1655 79.4554 16.6861C79.4554 17.2068 79.4437 17.2541 79.3156 17.2541C79.185 17.2541 79.1757 17.3015 79.1757 17.9641C79.1757 18.6268 79.1665 18.6741 79.0359 18.6741C78.8988 18.6741 78.8961 18.7215 78.8961 21.0881C78.8961 23.4548 78.8988 23.5021 79.0359 23.5021C79.1665 23.5021 79.1757 23.5495 79.1757 24.2121C79.1757 24.8748 79.185 24.9221 79.3156 24.9221C79.4398 24.9221 79.4554 24.9695 79.4554 25.3481C79.4554 25.7268 79.4709 25.7741 79.5952 25.7741C79.7117 25.7741 79.735 25.8215 79.735 26.0581C79.735 26.2948 79.7583 26.3421 79.8748 26.3421C79.9914 26.3421 80.0146 26.3895 80.0146 26.6261C80.0146 26.8628 80.0379 26.9102 80.1544 26.9102C80.2787 26.9102 80.2943 26.9575 80.2943 27.3362C80.2943 27.7148 80.3098 27.7622 80.4341 27.7622C80.5273 27.7622 80.5739 27.8095 80.5739 27.9042C80.5739 27.9988 80.6205 28.0461 80.7137 28.0461C80.8302 28.0461 80.8535 28.0935 80.8535 28.3302C80.8535 28.5668 80.8768 28.6141 80.9933 28.6141C81.0865 28.6141 81.1332 28.6615 81.1332 28.7561C81.1332 28.8508 81.1798 28.8982 81.273 28.8982C81.3661 28.8982 81.4128 28.9455 81.4128 29.0401C81.4128 29.1348 81.4594 29.1821 81.5526 29.1821C81.6458 29.1821 81.6924 29.2295 81.6924 29.3242C81.6924 29.4188 81.739 29.4662 81.8322 29.4662C81.9254 29.4662 81.972 29.5135 81.972 29.6081C81.972 29.7028 82.0187 29.7502 82.1119 29.7502C82.205 29.7502 82.2517 29.7975 82.2517 29.8922C82.2517 29.9868 82.2983 30.0342 82.3915 30.0342C82.4847 30.0342 82.5313 30.0815 82.5313 30.1762C82.5313 30.3024 82.5779 30.3181 82.9508 30.3181C83.3236 30.3181 83.3702 30.3339 83.3702 30.4602C83.3702 30.5548 83.4168 30.6022 83.51 30.6022C83.6032 30.6022 83.6498 30.6495 83.6498 30.7442C83.6498 30.8388 83.6965 30.8862 83.7896 30.8862C83.8828 30.8862 83.9294 30.9335 83.9294 31.0282C83.9294 31.1544 83.9761 31.1702 84.3489 31.1702C84.7217 31.1702 84.7683 31.1859 84.7683 31.3122C84.7683 31.4384 84.815 31.4542 85.1878 31.4542C85.5606 31.4542 85.6072 31.4699 85.6072 31.5962C85.6072 31.7224 85.6538 31.7382 86.0267 31.7382C86.3995 31.7382 86.4461 31.7539 86.4461 31.8802C86.4461 32.0178 86.4927 32.0222 87.9841 32.0222C89.4754 32.0222 89.522 32.0178 89.522 31.8802C89.522 31.7539 89.5687 31.7382 89.9415 31.7382C90.3143 31.7382 90.3609 31.7224 90.3609 31.5962C90.3609 31.4699 90.4076 31.4542 90.7804 31.4542C91.1532 31.4542 91.1998 31.4384 91.1998 31.3122C91.1998 31.1859 91.2465 31.1702 91.6193 31.1702C91.9921 31.1702 92.0387 31.1544 92.0387 31.0282C92.0387 30.9335 92.0853 30.8862 92.1785 30.8862C92.2717 30.8862 92.3183 30.8388 92.3183 30.7442C92.3183 30.6495 92.365 30.6022 92.4582 30.6022C92.5514 30.6022 92.598 30.5548 92.598 30.4602C92.598 30.3655 92.6446 30.3181 92.7378 30.3181C92.831 30.3181 92.8776 30.2708 92.8776 30.1762C92.8776 30.0578 92.9242 30.0342 93.1572 30.0342C93.3902 30.0342 93.4369 30.0105 93.4369 29.8922C93.4369 29.7975 93.4835 29.7502 93.5767 29.7502C93.6699 29.7502 93.7165 29.7028 93.7165 29.6081C93.7165 29.5135 93.7631 29.4662 93.8563 29.4662C93.9895 29.4662 93.9961 29.5135 93.9961 30.4602V31.4542H95.8137H97.6313V15.9761V0.498108H95.8137H93.9961V6.46212ZM8.14977 10.2961C8.14977 10.4263 8.10314 10.4381 7.59051 10.4381C7.07788 10.4381 7.03125 10.45 7.03125 10.5801C7.03125 10.6985 6.98462 10.7221 6.75162 10.7221C6.51862 10.7221 6.47199 10.7458 6.47199 10.8641C6.47199 10.9588 6.42536 11.0061 6.33218 11.0061C6.23899 11.0061 6.19236 11.0535 6.19236 11.1481C6.19236 11.2428 6.14573 11.2901 6.05255 11.2901C5.95936 11.2901 5.91273 11.3375 5.91273 11.4321C5.91273 11.5505 5.8661 11.5741 5.6331 11.5741H5.35347V11.8581V12.1421H5.07384C4.84084 12.1421 4.79421 12.1658 4.79421 12.2841C4.79421 12.4025 4.74758 12.4261 4.51458 12.4261H4.23495V11.4321V10.4381H2.69699C1.20566 10.4381 1.15902 10.4425 1.15902 10.5801C1.15902 10.6748 1.1124 10.7221 1.01921 10.7221C0.880025 10.7221 0.879395 10.7695 0.879395 21.0881V31.4542H2.55717H4.23495V24.0701C4.23495 16.7335 4.23586 16.6861 4.37477 16.6861C4.4913 16.6861 4.51458 16.6388 4.51458 16.4021C4.51458 16.1655 4.53786 16.1181 4.65439 16.1181C4.77093 16.1181 4.79421 16.0708 4.79421 15.8341V15.5501H5.07384H5.35347V15.2661C5.35347 15.0295 5.37675 14.9821 5.49329 14.9821C5.58648 14.9821 5.6331 14.9348 5.6331 14.8401C5.6331 14.7455 5.67973 14.6981 5.77291 14.6981C5.8661 14.6981 5.91273 14.6508 5.91273 14.5561C5.91273 14.4615 5.95936 14.4141 6.05255 14.4141C6.14573 14.4141 6.19236 14.3668 6.19236 14.2721C6.19236 14.1775 6.23899 14.1301 6.33218 14.1301C6.42536 14.1301 6.47199 14.0828 6.47199 13.9881C6.47199 13.8698 6.51862 13.8461 6.75162 13.8461C6.98462 13.8461 7.03125 13.8225 7.03125 13.7041C7.03125 13.574 7.07788 13.5621 7.59051 13.5621C8.10314 13.5621 8.14977 13.5503 8.14977 13.4201C8.14977 13.2849 8.1964 13.2781 9.12848 13.2781C10.0606 13.2781 10.1072 13.2849 10.1072 13.4201C10.1072 13.5464 10.1538 13.5621 10.5266 13.5621C10.8994 13.5621 10.9461 13.5779 10.9461 13.7041C10.9461 13.8225 10.9927 13.8461 11.2257 13.8461C11.4587 13.8461 11.5053 13.8698 11.5053 13.9881C11.5053 14.0828 11.552 14.1301 11.6451 14.1301C11.7383 14.1301 11.785 14.1775 11.785 14.2721C11.785 14.3668 11.8316 14.4141 11.9248 14.4141C12.018 14.4141 12.0646 14.4615 12.0646 14.5561C12.0646 14.6508 12.1112 14.6981 12.2044 14.6981C12.2976 14.6981 12.3442 14.7455 12.3442 14.8401C12.3442 14.9348 12.3908 14.9821 12.484 14.9821C12.6083 14.9821 12.6238 15.0295 12.6238 15.4081C12.6238 15.7868 12.6394 15.8341 12.7637 15.8341C12.9026 15.8341 12.9035 15.8815 12.9035 23.5021C12.9035 31.1228 12.9043 31.1702 13.0433 31.1702C13.1365 31.1702 13.1831 31.2175 13.1831 31.3122C13.1831 31.4502 13.2297 31.4542 14.8609 31.4542H16.5387V23.7861C16.5387 16.1655 16.5395 16.1181 16.6785 16.1181C16.795 16.1181 16.8183 16.0708 16.8183 15.8341C16.8183 15.5975 16.8416 15.5501 16.9581 15.5501C17.0513 15.5501 17.0979 15.5028 17.0979 15.4081C17.0979 15.3135 17.1446 15.2661 17.2377 15.2661C17.3309 15.2661 17.3776 15.2188 17.3776 15.1241C17.3776 15.0295 17.4242 14.9821 17.5174 14.9821C17.6106 14.9821 17.6572 14.9348 17.6572 14.8401C17.6572 14.7455 17.7038 14.6981 17.797 14.6981C17.8902 14.6981 17.9368 14.6508 17.9368 14.5561C17.9368 14.4615 17.9834 14.4141 18.0766 14.4141C18.1698 14.4141 18.2164 14.3668 18.2164 14.2721C18.2164 14.1775 18.2631 14.1301 18.3563 14.1301C18.4494 14.1301 18.4961 14.0828 18.4961 13.9881C18.4961 13.8619 18.5427 13.8461 18.9155 13.8461C19.2883 13.8461 19.335 13.8304 19.335 13.7041C19.335 13.5779 19.3816 13.5621 19.7544 13.5621C20.1272 13.5621 20.1739 13.5464 20.1739 13.4201C20.1739 13.2849 20.2205 13.2781 21.1526 13.2781C22.0846 13.2781 22.1313 13.2849 22.1313 13.4201C22.1313 13.5503 22.1779 13.5621 22.6905 13.5621C23.2032 13.5621 23.2498 13.574 23.2498 13.7041C23.2498 13.7988 23.2964 13.8461 23.3896 13.8461C23.4828 13.8461 23.5294 13.8935 23.5294 13.9881C23.5294 14.0828 23.576 14.1301 23.6692 14.1301C23.7624 14.1301 23.809 14.1775 23.809 14.2721C23.809 14.3668 23.8557 14.4141 23.9489 14.4141C24.042 14.4141 24.0887 14.4615 24.0887 14.5561C24.0887 14.6508 24.1353 14.6981 24.2285 14.6981C24.3217 14.6981 24.3683 14.7455 24.3683 14.8401C24.3683 14.9348 24.4149 14.9821 24.5081 14.9821C24.6363 14.9821 24.6479 15.0295 24.6479 15.5501C24.6479 16.0708 24.6596 16.1181 24.7877 16.1181C24.9267 16.1181 24.9276 16.1655 24.9276 23.7861V31.4542H26.7451H28.5627V23.6441C28.5627 15.8815 28.5619 15.8341 28.4229 15.8341C28.2924 15.8341 28.2831 15.7868 28.2831 15.1241C28.2831 14.4615 28.2738 14.4141 28.1433 14.4141C28.019 14.4141 28.0035 14.3668 28.0035 13.9881C28.0035 13.6095 27.988 13.5621 27.8637 13.5621C27.7394 13.5621 27.7239 13.5148 27.7239 13.1361V12.7101H27.4442H27.1646V12.4261C27.1646 12.1895 27.1413 12.1421 27.0248 12.1421C26.9082 12.1421 26.885 12.0948 26.885 11.8581V11.5741H26.6053C26.3723 11.5741 26.3257 11.5505 26.3257 11.4321C26.3257 11.3138 26.2791 11.2901 26.0461 11.2901C25.8131 11.2901 25.7664 11.2665 25.7664 11.1481C25.7664 11.0535 25.7198 11.0061 25.6266 11.0061C25.5334 11.0061 25.4868 10.9588 25.4868 10.8641C25.4868 10.7458 25.4402 10.7221 25.2072 10.7221C24.9742 10.7221 24.9276 10.6985 24.9276 10.5801C24.9276 10.4539 24.8809 10.4381 24.5081 10.4381C24.1353 10.4381 24.0887 10.4224 24.0887 10.2961C24.0887 10.1572 24.042 10.1541 21.9914 10.1541C19.9408 10.1541 19.8942 10.1572 19.8942 10.2961C19.8942 10.4224 19.8476 10.4381 19.4748 10.4381C19.102 10.4381 19.0553 10.4539 19.0553 10.5801C19.0553 10.6985 19.0087 10.7221 18.7757 10.7221C18.5427 10.7221 18.4961 10.7458 18.4961 10.8641C18.4961 10.9588 18.4494 11.0061 18.3563 11.0061C18.2631 11.0061 18.2164 11.0535 18.2164 11.1481C18.2164 11.2665 18.1698 11.2901 17.9368 11.2901C17.7038 11.2901 17.6572 11.3138 17.6572 11.4321C17.6572 11.5505 17.6106 11.5741 17.3776 11.5741C17.1446 11.5741 17.0979 11.5978 17.0979 11.7161C17.0979 11.8108 17.0513 11.8581 16.9581 11.8581C16.8649 11.8581 16.8183 11.9055 16.8183 12.0001C16.8183 12.0948 16.7717 12.1421 16.6785 12.1421C16.5853 12.1421 16.5387 12.1895 16.5387 12.2841C16.5387 12.3788 16.492 12.4261 16.3988 12.4261C16.3057 12.4261 16.259 12.4735 16.259 12.5681C16.259 12.6628 16.2124 12.7101 16.1192 12.7101C16.0027 12.7101 15.9794 12.7575 15.9794 12.9941V13.2781H15.6998H15.4201V12.9941C15.4201 12.7575 15.3969 12.7101 15.2803 12.7101C15.1638 12.7101 15.1405 12.6628 15.1405 12.4261C15.1405 12.1895 15.1172 12.1421 15.0007 12.1421C14.9075 12.1421 14.8609 12.0948 14.8609 12.0001C14.8609 11.9055 14.8143 11.8581 14.7211 11.8581C14.6279 11.8581 14.5813 11.8108 14.5813 11.7161C14.5813 11.6215 14.5346 11.5741 14.4414 11.5741C14.3483 11.5741 14.3016 11.5268 14.3016 11.4321C14.3016 11.3138 14.255 11.2901 14.022 11.2901C13.789 11.2901 13.7424 11.2665 13.7424 11.1481C13.7424 11.0535 13.6957 11.0061 13.6026 11.0061C13.5094 11.0061 13.4627 10.9588 13.4627 10.8641C13.4627 10.7458 13.4161 10.7221 13.1831 10.7221C12.9501 10.7221 12.9035 10.6985 12.9035 10.5801C12.9035 10.4539 12.8568 10.4381 12.484 10.4381C12.1112 10.4381 12.0646 10.4224 12.0646 10.2961C12.0646 10.1575 12.018 10.1541 10.1072 10.1541C8.1964 10.1541 8.14977 10.1575 8.14977 10.2961ZM40.0276 10.2961C40.0276 10.4224 39.9809 10.4381 39.6081 10.4381C39.2353 10.4381 39.1887 10.4539 39.1887 10.5801C39.1887 10.6985 39.1421 10.7221 38.909 10.7221C38.676 10.7221 38.6294 10.7458 38.6294 10.8641C38.6294 10.9588 38.5828 11.0061 38.4896 11.0061C38.3964 11.0061 38.3498 11.0535 38.3498 11.1481C38.3498 11.2744 38.3032 11.2901 37.9303 11.2901C37.5575 11.2901 37.5109 11.3059 37.5109 11.4321C37.5109 11.5268 37.4643 11.5741 37.3711 11.5741C37.2779 11.5741 37.2313 11.6215 37.2313 11.7161C37.2313 11.8108 37.1846 11.8581 37.0915 11.8581C36.9983 11.8581 36.9516 11.9055 36.9516 12.0001C36.9516 12.0948 36.905 12.1421 36.8118 12.1421C36.7186 12.1421 36.672 12.1895 36.672 12.2841C36.672 12.3788 36.6254 12.4261 36.5322 12.4261C36.439 12.4261 36.3924 12.4735 36.3924 12.5681C36.3924 12.6628 36.3457 12.7101 36.2526 12.7101C36.136 12.7101 36.1128 12.7575 36.1128 12.9941C36.1128 13.2308 36.0895 13.2781 35.9729 13.2781C35.8798 13.2781 35.8331 13.3255 35.8331 13.4201C35.8331 13.5148 35.7865 13.5621 35.6933 13.5621C35.5768 13.5621 35.5535 13.6095 35.5535 13.8461C35.5535 14.0828 35.5302 14.1301 35.4137 14.1301C35.2894 14.1301 35.2739 14.1775 35.2739 14.5561C35.2739 14.9348 35.2583 14.9821 35.134 14.9821C35.0059 14.9821 34.9942 15.0295 34.9942 15.5501V16.1181H36.5322H38.0702V15.8341C38.0702 15.5975 38.0934 15.5501 38.21 15.5501C38.3265 15.5501 38.3498 15.5028 38.3498 15.2661C38.3498 15.0295 38.3731 14.9821 38.4896 14.9821C38.5828 14.9821 38.6294 14.9348 38.6294 14.8401C38.6294 14.7455 38.6761 14.6981 38.7692 14.6981C38.8624 14.6981 38.909 14.6508 38.909 14.5561C38.909 14.4615 38.9557 14.4141 39.0489 14.4141C39.1654 14.4141 39.1887 14.3668 39.1887 14.1301V13.8461H39.4683C39.7013 13.8461 39.7479 13.8225 39.7479 13.7041C39.7479 13.5779 39.7946 13.5621 40.1674 13.5621C40.5402 13.5621 40.5868 13.5464 40.5868 13.4201C40.5868 13.2817 40.6335 13.2781 42.4044 13.2781C44.1754 13.2781 44.222 13.2817 44.222 13.4201C44.222 13.5464 44.2686 13.5621 44.6415 13.5621C45.0143 13.5621 45.0609 13.5779 45.0609 13.7041C45.0609 13.7988 45.1075 13.8461 45.2007 13.8461C45.2939 13.8461 45.3405 13.8935 45.3405 13.9881C45.3405 14.1065 45.3872 14.1301 45.6202 14.1301C45.8532 14.1301 45.8998 14.1538 45.8998 14.2721C45.8998 14.3668 45.9464 14.4141 46.0396 14.4141C46.1561 14.4141 46.1794 14.4615 46.1794 14.6981C46.1794 14.9348 46.2027 14.9821 46.3192 14.9821C46.4358 14.9821 46.4591 15.0295 46.4591 15.2661C46.4591 15.5028 46.4823 15.5501 46.5989 15.5501C46.6921 15.5501 46.7387 15.5975 46.7387 15.6921C46.7387 15.7868 46.7853 15.8341 46.8785 15.8341C47.0152 15.8341 47.0183 15.8815 47.0183 17.9641V20.0941H46.7387C46.5057 20.0941 46.4591 20.0705 46.4591 19.9521C46.4591 19.8338 46.4124 19.8101 46.1794 19.8101C45.9464 19.8101 45.8998 19.7865 45.8998 19.6681C45.8998 19.5735 45.8532 19.5261 45.76 19.5261C45.6668 19.5261 45.6202 19.4788 45.6202 19.3841C45.6202 19.2579 45.5735 19.2421 45.2007 19.2421C44.8279 19.2421 44.7813 19.2264 44.7813 19.1001C44.7813 18.97 44.7346 18.9581 44.222 18.9581C43.7094 18.9581 43.6628 18.9463 43.6628 18.8161C43.6628 18.6775 43.6161 18.6741 41.7053 18.6741C39.7946 18.6741 39.7479 18.6775 39.7479 18.8161C39.7479 18.9463 39.7013 18.9581 39.1887 18.9581C38.6761 18.9581 38.6294 18.97 38.6294 19.1001C38.6294 19.2303 38.5828 19.2421 38.0702 19.2421C37.5575 19.2421 37.5109 19.254 37.5109 19.3841C37.5109 19.4788 37.4643 19.5261 37.3711 19.5261C37.2779 19.5261 37.2313 19.5735 37.2313 19.6681C37.2313 19.7628 37.1846 19.8101 37.0915 19.8101C36.9983 19.8101 36.9516 19.8575 36.9516 19.9521C36.9516 20.0705 36.905 20.0941 36.672 20.0941H36.3924V20.3781C36.3924 20.6148 36.3691 20.6621 36.2526 20.6621C36.1594 20.6621 36.1128 20.7095 36.1128 20.8041C36.1128 20.9225 36.0661 20.9461 35.8331 20.9461C35.6001 20.9461 35.5535 20.9698 35.5535 21.0881C35.5535 21.1828 35.5069 21.2301 35.4137 21.2301C35.2971 21.2301 35.2739 21.2775 35.2739 21.5141C35.2739 21.7508 35.2506 21.7981 35.134 21.7981C35.0409 21.7981 34.9942 21.8455 34.9942 21.9401C34.9942 22.0348 34.9476 22.0821 34.8544 22.0821C34.7612 22.0821 34.7146 22.1295 34.7146 22.2241C34.7146 22.3188 34.668 22.3661 34.5748 22.3661C34.4583 22.3661 34.435 22.4135 34.435 22.6501C34.435 22.8868 34.4117 22.9341 34.2952 22.9341C34.167 22.9341 34.1553 22.9815 34.1553 23.5021C34.1553 24.0228 34.1437 24.0701 34.0155 24.0701C33.8815 24.0701 33.8757 24.1175 33.8757 25.2061C33.8757 26.2948 33.8815 26.3421 34.0155 26.3421C34.1437 26.3421 34.1553 26.3895 34.1553 26.9102C34.1553 27.4308 34.167 27.4781 34.2952 27.4781C34.4194 27.4781 34.435 27.5255 34.435 27.9042C34.435 28.2828 34.4505 28.3302 34.5748 28.3302C34.668 28.3302 34.7146 28.3775 34.7146 28.4722C34.7146 28.5668 34.7612 28.6141 34.8544 28.6141C34.9476 28.6141 34.9942 28.6615 34.9942 28.7561C34.9942 28.8508 35.0409 28.8982 35.134 28.8982C35.2506 28.8982 35.2739 28.9455 35.2739 29.1821C35.2739 29.4188 35.2971 29.4662 35.4137 29.4662C35.5069 29.4662 35.5535 29.5135 35.5535 29.6081C35.5535 29.7028 35.6001 29.7502 35.6933 29.7502C35.7865 29.7502 35.8331 29.7975 35.8331 29.8922C35.8331 29.9868 35.8798 30.0342 35.9729 30.0342C36.0661 30.0342 36.1128 30.0815 36.1128 30.1762C36.1128 30.2945 36.1594 30.3181 36.3924 30.3181C36.6254 30.3181 36.672 30.3418 36.672 30.4602C36.672 30.5548 36.7186 30.6022 36.8118 30.6022C36.905 30.6022 36.9516 30.6495 36.9516 30.7442C36.9516 30.8388 36.9983 30.8862 37.0915 30.8862C37.1846 30.8862 37.2313 30.9335 37.2313 31.0282C37.2313 31.1583 37.2779 31.1702 37.7905 31.1702C38.3032 31.1702 38.3498 31.182 38.3498 31.3122C38.3498 31.4305 38.3964 31.4542 38.6294 31.4542C38.8624 31.4542 38.909 31.4778 38.909 31.5962C38.909 31.7263 38.9557 31.7382 39.4683 31.7382C39.9809 31.7382 40.0276 31.75 40.0276 31.8802C40.0276 32.0174 40.0742 32.0222 41.4257 32.0222C42.7772 32.0222 42.8239 32.0174 42.8239 31.8802C42.8239 31.7539 42.8705 31.7382 43.2433 31.7382C43.6161 31.7382 43.6628 31.7224 43.6628 31.5962C43.6628 31.466 43.7094 31.4542 44.222 31.4542C44.7346 31.4542 44.7813 31.4423 44.7813 31.3122C44.7813 31.1859 44.8279 31.1702 45.2007 31.1702C45.5735 31.1702 45.6202 31.1544 45.6202 31.0282C45.6202 30.9098 45.6668 30.8862 45.8998 30.8862C46.1328 30.8862 46.1794 30.8625 46.1794 30.7442C46.1794 30.6495 46.2261 30.6022 46.3192 30.6022C46.4124 30.6022 46.4591 30.5548 46.4591 30.4602C46.4591 30.3418 46.5057 30.3181 46.7387 30.3181H47.0183V30.8862V31.4542H48.6961H50.3739V23.5021C50.3739 15.5975 50.373 15.5501 50.2341 15.5501C50.1098 15.5501 50.0942 15.5028 50.0942 15.1241C50.0942 14.7455 50.0787 14.6981 49.9544 14.6981C49.8379 14.6981 49.8146 14.6508 49.8146 14.4141C49.8146 14.1775 49.7913 14.1301 49.6748 14.1301C49.5505 14.1301 49.535 14.0828 49.535 13.7041C49.535 13.3255 49.5195 13.2781 49.3952 13.2781C49.2786 13.2781 49.2554 13.2308 49.2554 12.9941V12.7101H48.9757C48.7427 12.7101 48.6961 12.6865 48.6961 12.5681C48.6961 12.4735 48.6495 12.4261 48.5563 12.4261C48.4397 12.4261 48.4165 12.3788 48.4165 12.1421C48.4165 11.9055 48.3932 11.8581 48.2766 11.8581C48.1835 11.8581 48.1368 11.8108 48.1368 11.7161C48.1368 11.5978 48.0902 11.5741 47.8572 11.5741C47.6242 11.5741 47.5776 11.5505 47.5776 11.4321C47.5776 11.3138 47.5309 11.2901 47.2979 11.2901C47.0649 11.2901 47.0183 11.2665 47.0183 11.1481C47.0183 11.0535 46.9717 11.0061 46.8785 11.0061C46.7853 11.0061 46.7387 10.9588 46.7387 10.8641C46.7387 10.7458 46.6921 10.7221 46.4591 10.7221C46.2261 10.7221 46.1794 10.6985 46.1794 10.5801C46.1794 10.4476 46.1328 10.4381 45.4804 10.4381C44.8279 10.4381 44.7813 10.4287 44.7813 10.2961C44.7813 10.1569 44.7346 10.1541 42.4044 10.1541C40.0742 10.1541 40.0276 10.1569 40.0276 10.2961ZM109.935 10.2961C109.935 10.4263 109.888 10.4381 109.376 10.4381C108.863 10.4381 108.817 10.45 108.817 10.5801C108.817 10.6985 108.77 10.7221 108.537 10.7221C108.304 10.7221 108.257 10.7458 108.257 10.8641C108.257 10.9588 108.211 11.0061 108.117 11.0061C108.024 11.0061 107.978 11.0535 107.978 11.1481C107.978 11.2665 107.931 11.2901 107.698 11.2901C107.465 11.2901 107.418 11.3138 107.418 11.4321C107.418 11.5505 107.372 11.5741 107.139 11.5741C106.906 11.5741 106.859 11.5978 106.859 11.7161C106.859 11.8108 106.812 11.8581 106.719 11.8581C106.626 11.8581 106.579 11.9055 106.579 12.0001C106.579 12.0948 106.533 12.1421 106.44 12.1421C106.346 12.1421 106.3 12.1895 106.3 12.2841C106.3 12.3788 106.253 12.4261 106.16 12.4261C106.067 12.4261 106.02 12.4735 106.02 12.5681C106.02 12.6628 105.974 12.7101 105.88 12.7101C105.764 12.7101 105.741 12.7575 105.741 12.9941C105.741 13.2308 105.717 13.2781 105.601 13.2781C105.508 13.2781 105.461 13.3255 105.461 13.4201C105.461 13.5148 105.414 13.5621 105.321 13.5621C105.228 13.5621 105.181 13.6095 105.181 13.7041C105.181 13.7988 105.135 13.8461 105.041 13.8461C104.925 13.8461 104.902 13.8935 104.902 14.1301C104.902 14.3668 104.878 14.4141 104.762 14.4141C104.645 14.4141 104.622 14.4615 104.622 14.6981C104.622 14.9348 104.599 14.9821 104.482 14.9821C104.389 14.9821 104.342 15.0295 104.342 15.1241C104.342 15.2188 104.296 15.2661 104.203 15.2661C104.086 15.2661 104.063 15.3135 104.063 15.5501C104.063 15.7868 104.04 15.8341 103.923 15.8341C103.83 15.8341 103.783 15.8815 103.783 15.9761C103.783 16.0708 103.737 16.1181 103.643 16.1181C103.519 16.1181 103.504 16.1655 103.504 16.5441C103.504 16.9228 103.488 16.9701 103.364 16.9701C103.233 16.9701 103.224 17.0175 103.224 17.6801C103.224 18.3428 103.215 18.3901 103.084 18.3901C102.947 18.3901 102.944 18.4375 102.944 21.2301C102.944 24.0228 102.947 24.0701 103.084 24.0701C103.208 24.0701 103.224 24.1175 103.224 24.4961C103.224 24.8748 103.239 24.9221 103.364 24.9221C103.488 24.9221 103.504 24.9695 103.504 25.3481C103.504 25.7268 103.519 25.7741 103.643 25.7741C103.76 25.7741 103.783 25.8215 103.783 26.0581C103.783 26.2948 103.806 26.3421 103.923 26.3421C104.04 26.3421 104.063 26.3895 104.063 26.6261V26.9102H104.342H104.622V27.3362C104.622 27.7148 104.638 27.7622 104.762 27.7622C104.878 27.7622 104.902 27.8095 104.902 28.0461C104.902 28.2828 104.925 28.3302 105.041 28.3302C105.135 28.3302 105.181 28.3775 105.181 28.4722C105.181 28.5668 105.228 28.6141 105.321 28.6141C105.414 28.6141 105.461 28.6615 105.461 28.7561C105.461 28.8508 105.508 28.8982 105.601 28.8982C105.694 28.8982 105.741 28.9455 105.741 29.0401C105.741 29.1348 105.787 29.1821 105.88 29.1821C105.974 29.1821 106.02 29.2295 106.02 29.3242C106.02 29.4188 106.067 29.4662 106.16 29.4662C106.253 29.4662 106.3 29.5135 106.3 29.6081C106.3 29.7028 106.346 29.7502 106.44 29.7502C106.533 29.7502 106.579 29.7975 106.579 29.8922C106.579 29.9868 106.626 30.0342 106.719 30.0342C106.812 30.0342 106.859 30.0815 106.859 30.1762C106.859 30.2945 106.906 30.3181 107.139 30.3181C107.372 30.3181 107.418 30.3418 107.418 30.4602C107.418 30.5548 107.465 30.6022 107.558 30.6022C107.651 30.6022 107.698 30.6495 107.698 30.7442C107.698 30.8388 107.745 30.8862 107.838 30.8862C107.931 30.8862 107.978 30.9335 107.978 31.0282C107.978 31.1583 108.024 31.1702 108.537 31.1702C109.049 31.1702 109.096 31.182 109.096 31.3122C109.096 31.4305 109.143 31.4542 109.376 31.4542C109.609 31.4542 109.655 31.4778 109.655 31.5962C109.655 31.7263 109.702 31.7382 110.215 31.7382C110.727 31.7382 110.774 31.75 110.774 31.8802C110.774 32.0182 110.821 32.0222 112.452 32.0222C114.083 32.0222 114.129 32.0182 114.129 31.8802C114.129 31.75 114.176 31.7382 114.689 31.7382C115.201 31.7382 115.248 31.7263 115.248 31.5962C115.248 31.4699 115.295 31.4542 115.667 31.4542C116.04 31.4542 116.087 31.4384 116.087 31.3122C116.087 31.1938 116.133 31.1702 116.367 31.1702C116.6 31.1702 116.646 31.1465 116.646 31.0282C116.646 30.9098 116.693 30.8862 116.926 30.8862C117.159 30.8862 117.205 30.8625 117.205 30.7442C117.205 30.6495 117.252 30.6022 117.345 30.6022C117.438 30.6022 117.485 30.5548 117.485 30.4602C117.485 30.3655 117.532 30.3181 117.625 30.3181C117.718 30.3181 117.765 30.2708 117.765 30.1762C117.765 30.0499 117.811 30.0342 118.184 30.0342C118.557 30.0342 118.604 30.0184 118.604 29.8922C118.604 29.7975 118.65 29.7502 118.743 29.7502C118.86 29.7502 118.883 29.7028 118.883 29.4662C118.883 29.2295 118.906 29.1821 119.023 29.1821C119.116 29.1821 119.163 29.1348 119.163 29.0401C119.163 28.9455 119.209 28.8982 119.303 28.8982C119.396 28.8982 119.442 28.8508 119.442 28.7561C119.442 28.6615 119.489 28.6141 119.582 28.6141C119.699 28.6141 119.722 28.5668 119.722 28.3302C119.722 28.0935 119.745 28.0461 119.862 28.0461C119.955 28.0461 120.002 27.9988 120.002 27.9042C120.002 27.8095 120.048 27.7622 120.142 27.7622C120.27 27.7622 120.281 27.7148 120.281 27.1941C120.281 26.6735 120.293 26.6261 120.421 26.6261C120.552 26.6261 120.561 26.5788 120.561 25.9161V25.2061H119.163C117.811 25.2061 117.765 25.2109 117.765 25.3481C117.765 25.4665 117.718 25.4901 117.485 25.4901H117.205V25.9161C117.205 26.2948 117.19 26.3421 117.066 26.3421C116.949 26.3421 116.926 26.3895 116.926 26.6261C116.926 26.8628 116.902 26.9102 116.786 26.9102C116.693 26.9102 116.646 26.9575 116.646 27.0521C116.646 27.1468 116.6 27.1941 116.506 27.1941C116.39 27.1941 116.367 27.2415 116.367 27.4781C116.367 27.7148 116.343 27.7622 116.227 27.7622C116.134 27.7622 116.087 27.8095 116.087 27.9042C116.087 27.9988 116.04 28.0461 115.947 28.0461C115.854 28.0461 115.807 28.0935 115.807 28.1881C115.807 28.2828 115.761 28.3302 115.667 28.3302C115.574 28.3302 115.528 28.3775 115.528 28.4722C115.528 28.6047 115.481 28.6141 114.829 28.6141C114.176 28.6141 114.129 28.6236 114.129 28.7561C114.129 28.8945 114.083 28.8982 112.312 28.8982C110.541 28.8982 110.494 28.8945 110.494 28.7561C110.494 28.6299 110.448 28.6141 110.075 28.6141C109.702 28.6141 109.655 28.5984 109.655 28.4722C109.655 28.3538 109.609 28.3302 109.376 28.3302C109.143 28.3302 109.096 28.3065 109.096 28.1881C109.096 28.0935 109.049 28.0461 108.956 28.0461C108.863 28.0461 108.817 27.9988 108.817 27.9042C108.817 27.8095 108.77 27.7622 108.677 27.7622C108.584 27.7622 108.537 27.7148 108.537 27.6201C108.537 27.5255 108.49 27.4781 108.397 27.4781C108.304 27.4781 108.257 27.4308 108.257 27.3362C108.257 27.2415 108.211 27.1941 108.117 27.1941C108.024 27.1941 107.978 27.1468 107.978 27.0521C107.978 26.9575 107.931 26.9102 107.838 26.9102C107.721 26.9102 107.698 26.8628 107.698 26.6261C107.698 26.3895 107.675 26.3421 107.558 26.3421C107.442 26.3421 107.418 26.2948 107.418 26.0581C107.418 25.8215 107.395 25.7741 107.279 25.7741C107.162 25.7741 107.139 25.7268 107.139 25.4901C107.139 25.2535 107.115 25.2061 106.999 25.2061C106.875 25.2061 106.859 25.1588 106.859 24.7801C106.859 24.4015 106.844 24.3541 106.719 24.3541C106.589 24.3541 106.579 24.3068 106.579 23.6441C106.579 22.9815 106.57 22.9341 106.44 22.9341C106.312 22.9341 106.3 22.8868 106.3 22.3661C106.3 21.8455 106.312 21.7981 106.44 21.7981C106.533 21.7981 106.579 21.7508 106.579 21.6561C106.579 21.5151 106.626 21.5141 113.85 21.5141H121.12V19.5261C121.12 17.5855 121.117 17.5381 120.98 17.5381C120.864 17.5381 120.841 17.4908 120.841 17.2541C120.841 17.0175 120.817 16.9701 120.701 16.9701C120.573 16.9701 120.561 16.9228 120.561 16.4021C120.561 15.8815 120.549 15.8341 120.421 15.8341C120.297 15.8341 120.281 15.7868 120.281 15.4081C120.281 15.0295 120.266 14.9821 120.142 14.9821C120.025 14.9821 120.002 14.9348 120.002 14.6981C120.002 14.4615 119.978 14.4141 119.862 14.4141C119.769 14.4141 119.722 14.3668 119.722 14.2721C119.722 14.1775 119.675 14.1301 119.582 14.1301C119.458 14.1301 119.442 14.0828 119.442 13.7041C119.442 13.3255 119.427 13.2781 119.303 13.2781C119.209 13.2781 119.163 13.2308 119.163 13.1361C119.163 13.0415 119.116 12.9941 119.023 12.9941C118.906 12.9941 118.883 12.9468 118.883 12.7101V12.4261H118.604C118.371 12.4261 118.324 12.4025 118.324 12.2841C118.324 12.1895 118.277 12.1421 118.184 12.1421C118.091 12.1421 118.044 12.0948 118.044 12.0001C118.044 11.9055 117.998 11.8581 117.904 11.8581C117.811 11.8581 117.765 11.8108 117.765 11.7161C117.765 11.5978 117.718 11.5741 117.485 11.5741C117.252 11.5741 117.205 11.5505 117.205 11.4321C117.205 11.3138 117.159 11.2901 116.926 11.2901C116.693 11.2901 116.646 11.2665 116.646 11.1481C116.646 11.0535 116.6 11.0061 116.506 11.0061C116.413 11.0061 116.367 10.9588 116.367 10.8641C116.367 10.7458 116.32 10.7221 116.087 10.7221C115.854 10.7221 115.807 10.6985 115.807 10.5801C115.807 10.45 115.761 10.4381 115.248 10.4381C114.735 10.4381 114.689 10.4263 114.689 10.2961C114.689 10.1569 114.642 10.1541 112.312 10.1541C109.982 10.1541 109.935 10.1569 109.935 10.2961ZM56.8054 18.5321C56.8054 26.5788 56.8062 26.6261 56.9452 26.6261C57.0733 26.6261 57.085 26.6735 57.085 27.1941C57.085 27.7148 57.0967 27.7622 57.2248 27.7622C57.318 27.7622 57.3646 27.8095 57.3646 27.9042C57.3646 27.9988 57.4112 28.0461 57.5044 28.0461C57.6287 28.0461 57.6442 28.0935 57.6442 28.4722C57.6442 28.8508 57.6598 28.8982 57.7841 28.8982C57.8773 28.8982 57.9239 28.9455 57.9239 29.0401C57.9239 29.1348 57.9705 29.1821 58.0637 29.1821C58.1802 29.1821 58.2035 29.2295 58.2035 29.4662C58.2035 29.7028 58.2268 29.7502 58.3433 29.7502C58.4365 29.7502 58.4831 29.7975 58.4831 29.8922C58.4831 29.9868 58.5298 30.0342 58.623 30.0342C58.7161 30.0342 58.7628 30.0815 58.7628 30.1762C58.7628 30.2945 58.8094 30.3181 59.0424 30.3181C59.2754 30.3181 59.322 30.3418 59.322 30.4602C59.322 30.5548 59.3687 30.6022 59.4618 30.6022C59.555 30.6022 59.6017 30.6495 59.6017 30.7442C59.6017 30.8388 59.6483 30.8862 59.7415 30.8862C59.8347 30.8862 59.8813 30.9335 59.8813 31.0282C59.8813 31.1544 59.9279 31.1702 60.3007 31.1702C60.6735 31.1702 60.7202 31.1859 60.7202 31.3122C60.7202 31.4305 60.7668 31.4542 60.9998 31.4542C61.2328 31.4542 61.2794 31.4778 61.2794 31.5962C61.2794 31.7263 61.3261 31.7382 61.8387 31.7382C62.3513 31.7382 62.398 31.75 62.398 31.8802C62.398 32.0174 62.4446 32.0222 63.7961 32.0222C65.1476 32.0222 65.1943 32.0174 65.1943 31.8802C65.1943 31.7539 65.2409 31.7382 65.6137 31.7382C65.9865 31.7382 66.0331 31.7224 66.0331 31.5962C66.0331 31.4699 66.0798 31.4542 66.4526 31.4542C66.8254 31.4542 66.872 31.4384 66.872 31.3122C66.872 31.1938 66.9187 31.1702 67.1517 31.1702C67.3847 31.1702 67.4313 31.1465 67.4313 31.0282C67.4313 30.9098 67.4779 30.8862 67.7109 30.8862C67.9439 30.8862 67.9905 30.8625 67.9905 30.7442C67.9905 30.6495 68.0372 30.6022 68.1304 30.6022C68.2236 30.6022 68.2702 30.5548 68.2702 30.4602C68.2702 30.3418 68.3168 30.3181 68.5498 30.3181C68.7828 30.3181 68.8294 30.2945 68.8294 30.1762C68.8294 30.0815 68.8761 30.0342 68.9693 30.0342C69.0624 30.0342 69.1091 29.9868 69.1091 29.8922C69.1091 29.7975 69.1557 29.7502 69.2489 29.7502C69.3421 29.7502 69.3887 29.7028 69.3887 29.6081C69.3887 29.5135 69.4353 29.4662 69.5285 29.4662C69.6217 29.4662 69.6683 29.4188 69.6683 29.3242C69.6683 29.2295 69.715 29.1821 69.8081 29.1821C69.9013 29.1821 69.948 29.2295 69.948 29.3242C69.948 29.4188 69.9946 29.4662 70.0878 29.4662C70.2209 29.4662 70.2276 29.5135 70.2276 30.4602V31.4542H71.9054H73.5831V20.9461V10.4381H71.9054H70.2276V17.6801C70.2276 24.8748 70.2267 24.9221 70.0878 24.9221C69.9946 24.9221 69.948 24.9695 69.948 25.0641C69.948 25.1588 69.9013 25.2061 69.8081 25.2061C69.6838 25.2061 69.6683 25.2535 69.6683 25.6321C69.6683 26.0108 69.6528 26.0581 69.5285 26.0581C69.412 26.0581 69.3887 26.1055 69.3887 26.3421C69.3887 26.5788 69.3654 26.6261 69.2489 26.6261C69.1557 26.6261 69.1091 26.6735 69.1091 26.7681C69.1091 26.8865 69.0624 26.9102 68.8294 26.9102C68.5964 26.9102 68.5498 26.9338 68.5498 27.0521C68.5498 27.1468 68.5032 27.1941 68.41 27.1941C68.3168 27.1941 68.2702 27.2415 68.2702 27.3362C68.2702 27.4308 68.2236 27.4781 68.1304 27.4781C68.0372 27.4781 67.9905 27.5255 67.9905 27.6201C67.9905 27.7148 67.9439 27.7622 67.8507 27.7622C67.7575 27.7622 67.7109 27.8095 67.7109 27.9042C67.7109 27.9988 67.6643 28.0461 67.5711 28.0461C67.4779 28.0461 67.4313 28.0935 67.4313 28.1881C67.4313 28.3065 67.3847 28.3302 67.1517 28.3302C66.9187 28.3302 66.872 28.3538 66.872 28.4722C66.872 28.611 66.8254 28.6141 64.7748 28.6141C62.7242 28.6141 62.6776 28.611 62.6776 28.4722C62.6776 28.3538 62.631 28.3302 62.398 28.3302C62.165 28.3302 62.1183 28.3065 62.1183 28.1881C62.1183 28.0698 62.0717 28.0461 61.8387 28.0461C61.6057 28.0461 61.5591 28.0225 61.5591 27.9042C61.5591 27.8095 61.5124 27.7622 61.4193 27.7622C61.3027 27.7622 61.2794 27.7148 61.2794 27.4781C61.2794 27.2415 61.2562 27.1941 61.1396 27.1941C61.0464 27.1941 60.9998 27.1468 60.9998 27.0521C60.9998 26.9575 60.9532 26.9102 60.86 26.9102C60.7435 26.9102 60.7202 26.8628 60.7202 26.6261C60.7202 26.3895 60.6969 26.3421 60.5804 26.3421C60.4498 26.3421 60.4405 26.2948 60.4405 25.6321C60.4405 24.9695 60.4312 24.9221 60.3007 24.9221C60.1618 24.9221 60.1609 24.8748 60.1609 17.6801V10.4381H58.4831H56.8054V18.5321ZM112.731 13.1361C112.731 13.2687 112.778 13.2781 113.43 13.2781C114.083 13.2781 114.129 13.2876 114.129 13.4201C114.129 13.5464 114.176 13.5621 114.549 13.5621C114.922 13.5621 114.968 13.5779 114.968 13.7041C114.968 13.8225 115.015 13.8461 115.248 13.8461C115.481 13.8461 115.528 13.8698 115.528 13.9881C115.528 14.0828 115.574 14.1301 115.667 14.1301C115.761 14.1301 115.807 14.1775 115.807 14.2721C115.807 14.3668 115.854 14.4141 115.947 14.4141C116.04 14.4141 116.087 14.4615 116.087 14.5561C116.087 14.6508 116.134 14.6981 116.227 14.6981C116.32 14.6981 116.367 14.7455 116.367 14.8401C116.367 14.9348 116.413 14.9821 116.506 14.9821C116.623 14.9821 116.646 15.0295 116.646 15.2661C116.646 15.5028 116.669 15.5501 116.786 15.5501C116.91 15.5501 116.926 15.5975 116.926 15.9761C116.926 16.3548 116.941 16.4021 117.066 16.4021C117.194 16.4021 117.205 16.4495 117.205 16.9701C117.205 17.4908 117.217 17.5381 117.345 17.5381C117.476 17.5381 117.485 17.5855 117.485 18.2481V18.9581H112.032H106.579V18.2481C106.579 17.5855 106.589 17.5381 106.719 17.5381C106.836 17.5381 106.859 17.4908 106.859 17.2541C106.859 17.0175 106.882 16.9701 106.999 16.9701C107.115 16.9701 107.139 16.9228 107.139 16.6861C107.139 16.4495 107.162 16.4021 107.279 16.4021C107.395 16.4021 107.418 16.3548 107.418 16.1181C107.418 15.8815 107.442 15.8341 107.558 15.8341C107.682 15.8341 107.698 15.7868 107.698 15.4081C107.698 15.0295 107.714 14.9821 107.838 14.9821C107.931 14.9821 107.978 14.9348 107.978 14.8401C107.978 14.7218 108.024 14.6981 108.257 14.6981C108.49 14.6981 108.537 14.6745 108.537 14.5561C108.537 14.4615 108.584 14.4141 108.677 14.4141C108.77 14.4141 108.817 14.3668 108.817 14.2721C108.817 14.1775 108.863 14.1301 108.956 14.1301C109.049 14.1301 109.096 14.0828 109.096 13.9881C109.096 13.8698 109.143 13.8461 109.376 13.8461C109.609 13.8461 109.655 13.8225 109.655 13.7041C109.655 13.5779 109.702 13.5621 110.075 13.5621C110.448 13.5621 110.494 13.5464 110.494 13.4201C110.494 13.2876 110.541 13.2781 111.193 13.2781C111.846 13.2781 111.892 13.2687 111.892 13.1361C111.892 13.0099 111.939 12.9941 112.312 12.9941C112.685 12.9941 112.731 13.0099 112.731 13.1361ZM89.522 13.4201C89.522 13.5527 89.5687 13.5621 90.2211 13.5621C90.8736 13.5621 90.9202 13.5716 90.9202 13.7041C90.9202 13.8304 90.9668 13.8461 91.3396 13.8461C91.7125 13.8461 91.7591 13.8619 91.7591 13.9881C91.7591 14.0828 91.8057 14.1301 91.8989 14.1301C91.9921 14.1301 92.0387 14.1775 92.0387 14.2721C92.0387 14.3668 92.0853 14.4141 92.1785 14.4141C92.2717 14.4141 92.3183 14.4615 92.3183 14.5561C92.3183 14.6745 92.365 14.6981 92.598 14.6981C92.831 14.6981 92.8776 14.7218 92.8776 14.8401C92.8776 14.9348 92.9242 14.9821 93.0174 14.9821C93.1339 14.9821 93.1572 15.0295 93.1572 15.2661C93.1572 15.5028 93.1805 15.5501 93.2971 15.5501C93.3902 15.5501 93.4369 15.5975 93.4369 15.6921C93.4369 15.7868 93.4835 15.8341 93.5767 15.8341C93.6932 15.8341 93.7165 15.8815 93.7165 16.1181C93.7165 16.3548 93.7398 16.4021 93.8563 16.4021C93.9947 16.4021 93.9961 16.4495 93.9961 21.0881C93.9961 25.7268 93.9947 25.7741 93.8563 25.7741C93.7631 25.7741 93.7165 25.8215 93.7165 25.9161C93.7165 26.0108 93.6699 26.0581 93.5767 26.0581C93.4601 26.0581 93.4369 26.1055 93.4369 26.3421C93.4369 26.5788 93.4136 26.6261 93.2971 26.6261C93.2039 26.6261 93.1572 26.6735 93.1572 26.7681C93.1572 26.8628 93.1106 26.9102 93.0174 26.9102C92.9242 26.9102 92.8776 26.9575 92.8776 27.0521C92.8776 27.1468 92.831 27.1941 92.7378 27.1941C92.6446 27.1941 92.598 27.2415 92.598 27.3362C92.598 27.4308 92.5514 27.4781 92.4582 27.4781C92.365 27.4781 92.3183 27.5255 92.3183 27.6201C92.3183 27.7148 92.2717 27.7622 92.1785 27.7622C92.0853 27.7622 92.0387 27.8095 92.0387 27.9042C92.0387 27.9988 91.9921 28.0461 91.8989 28.0461C91.8057 28.0461 91.7591 28.0935 91.7591 28.1881C91.7591 28.3144 91.7125 28.3302 91.3396 28.3302C90.9668 28.3302 90.9202 28.3459 90.9202 28.4722C90.9202 28.6063 90.8736 28.6141 90.0813 28.6141C89.289 28.6141 89.2424 28.622 89.2424 28.7561C89.2424 28.8887 89.1958 28.8982 88.5434 28.8982C87.8909 28.8982 87.8443 28.8887 87.8443 28.7561C87.8443 28.622 87.7976 28.6141 87.0054 28.6141C86.2131 28.6141 86.1665 28.6063 86.1665 28.4722C86.1665 28.3775 86.1199 28.3302 86.0267 28.3302C85.9335 28.3302 85.8869 28.2828 85.8869 28.1881C85.8869 28.0698 85.8402 28.0461 85.6072 28.0461C85.3742 28.0461 85.3276 28.0225 85.3276 27.9042C85.3276 27.8095 85.281 27.7622 85.1878 27.7622C85.0946 27.7622 85.048 27.7148 85.048 27.6201C85.048 27.5255 85.0013 27.4781 84.9081 27.4781C84.815 27.4781 84.7683 27.4308 84.7683 27.3362C84.7683 27.2415 84.7217 27.1941 84.6285 27.1941C84.5353 27.1941 84.4887 27.1468 84.4887 27.0521C84.4887 26.9575 84.4421 26.9102 84.3489 26.9102C84.2557 26.9102 84.2091 26.8628 84.2091 26.7681C84.2091 26.6735 84.1625 26.6261 84.0693 26.6261C83.9761 26.6261 83.9294 26.5788 83.9294 26.4841C83.9294 26.3895 83.8828 26.3421 83.7896 26.3421C83.6653 26.3421 83.6498 26.2948 83.6498 25.9161C83.6498 25.5375 83.6343 25.4901 83.51 25.4901C83.4168 25.4901 83.3702 25.4428 83.3702 25.3481C83.3702 25.2535 83.3236 25.2061 83.2304 25.2061C83.1372 25.2061 83.0906 25.1588 83.0906 25.0641C83.0906 24.9695 83.0439 24.9221 82.9508 24.9221C82.8226 24.9221 82.8109 24.8748 82.8109 24.3541C82.8109 23.8335 82.7993 23.7861 82.6711 23.7861C82.5546 23.7861 82.5313 23.7388 82.5313 23.5021C82.5313 23.2655 82.508 23.2181 82.3915 23.2181C82.2546 23.2181 82.2517 23.1708 82.2517 20.9461C82.2517 18.7215 82.2546 18.6741 82.3915 18.6741C82.508 18.6741 82.5313 18.6268 82.5313 18.3901C82.5313 18.1535 82.5546 18.1061 82.6711 18.1061C82.7954 18.1061 82.8109 18.0588 82.8109 17.6801C82.8109 17.3015 82.8265 17.2541 82.9508 17.2541C83.0439 17.2541 83.0906 17.2068 83.0906 17.1121C83.0906 17.0175 83.1372 16.9701 83.2304 16.9701C83.3469 16.9701 83.3702 16.9228 83.3702 16.6861C83.3702 16.4495 83.3935 16.4021 83.51 16.4021C83.6265 16.4021 83.6498 16.3548 83.6498 16.1181C83.6498 15.8815 83.6731 15.8341 83.7896 15.8341C83.9062 15.8341 83.9294 15.7868 83.9294 15.5501C83.9294 15.3135 83.9527 15.2661 84.0693 15.2661C84.1625 15.2661 84.2091 15.2188 84.2091 15.1241C84.2091 15.0058 84.2557 14.9821 84.4887 14.9821C84.7217 14.9821 84.7683 14.9585 84.7683 14.8401C84.7683 14.7455 84.815 14.6981 84.9081 14.6981C85.0013 14.6981 85.048 14.6508 85.048 14.5561C85.048 14.4615 85.0946 14.4141 85.1878 14.4141C85.281 14.4141 85.3276 14.3668 85.3276 14.2721C85.3276 14.1775 85.3742 14.1301 85.4674 14.1301C85.5606 14.1301 85.6072 14.0828 85.6072 13.9881C85.6072 13.8698 85.6539 13.8461 85.8869 13.8461C86.1199 13.8461 86.1665 13.8225 86.1665 13.7041C86.1665 13.5716 86.2131 13.5621 86.8656 13.5621C87.518 13.5621 87.5646 13.5527 87.5646 13.4201C87.5646 13.2849 87.6113 13.2781 88.5434 13.2781C89.4754 13.2781 89.522 13.2849 89.522 13.4201ZM43.9424 21.6561C43.9424 21.7745 43.989 21.7981 44.222 21.7981C44.455 21.7981 44.5016 21.8218 44.5016 21.9401C44.5016 22.0585 44.5483 22.0821 44.7813 22.0821C45.0143 22.0821 45.0609 22.1058 45.0609 22.2241C45.0609 22.3425 45.1075 22.3661 45.3405 22.3661C45.5735 22.3661 45.6202 22.3898 45.6202 22.5081C45.6202 22.6265 45.6668 22.6501 45.8998 22.6501C46.1328 22.6501 46.1794 22.6738 46.1794 22.7921C46.1794 22.8868 46.2261 22.9341 46.3192 22.9341C46.4358 22.9341 46.4591 22.9815 46.4591 23.2181C46.4591 23.4548 46.4823 23.5021 46.5989 23.5021C46.6921 23.5021 46.7387 23.5495 46.7387 23.6441C46.7387 23.7388 46.7853 23.7861 46.8785 23.7861C47.0136 23.7861 47.0183 23.8335 47.0183 25.2061C47.0183 26.5788 47.0136 26.6261 46.8785 26.6261C46.762 26.6261 46.7387 26.6735 46.7387 26.9102C46.7387 27.1468 46.7154 27.1941 46.5989 27.1941C46.5057 27.1941 46.4591 27.2415 46.4591 27.3362C46.4591 27.4308 46.4124 27.4781 46.3192 27.4781C46.2261 27.4781 46.1794 27.5255 46.1794 27.6201C46.1794 27.7148 46.1328 27.7622 46.0396 27.7622C45.9464 27.7622 45.8998 27.8095 45.8998 27.9042C45.8998 27.9988 45.8532 28.0461 45.76 28.0461C45.6668 28.0461 45.6202 28.0935 45.6202 28.1881C45.6202 28.3065 45.5735 28.3302 45.3405 28.3302C45.1075 28.3302 45.0609 28.3538 45.0609 28.4722C45.0609 28.5984 45.0143 28.6141 44.6415 28.6141C44.2686 28.6141 44.222 28.6299 44.222 28.7561C44.222 28.8947 44.1754 28.8982 42.2646 28.8982C40.3538 28.8982 40.3072 28.8947 40.3072 28.7561C40.3072 28.626 40.2606 28.6141 39.7479 28.6141C39.2353 28.6141 39.1887 28.6023 39.1887 28.4722C39.1887 28.3538 39.1421 28.3302 38.909 28.3302C38.676 28.3302 38.6294 28.3065 38.6294 28.1881C38.6294 28.0935 38.5828 28.0461 38.4896 28.0461C38.3964 28.0461 38.3498 27.9988 38.3498 27.9042C38.3498 27.8095 38.3032 27.7622 38.21 27.7622C38.1168 27.7622 38.0702 27.7148 38.0702 27.6201C38.0702 27.5255 38.0235 27.4781 37.9303 27.4781C37.8138 27.4781 37.7905 27.4308 37.7905 27.1941C37.7905 26.9575 37.7673 26.9102 37.6507 26.9102C37.5342 26.9102 37.5109 26.8628 37.5109 26.6261C37.5109 26.3895 37.4876 26.3421 37.3711 26.3421C37.2545 26.3421 37.2313 26.2948 37.2313 26.0581C37.2313 25.8215 37.208 25.7741 37.0915 25.7741C36.9633 25.7741 36.9516 25.7268 36.9516 25.2061C36.9516 24.6855 36.9633 24.6381 37.0915 24.6381C37.2157 24.6381 37.2313 24.5908 37.2313 24.2121C37.2313 23.8335 37.2468 23.7861 37.3711 23.7861C37.4643 23.7861 37.5109 23.7388 37.5109 23.6441C37.5109 23.5495 37.5575 23.5021 37.6507 23.5021C37.7673 23.5021 37.7905 23.4548 37.7905 23.2181C37.7905 22.9815 37.8138 22.9341 37.9303 22.9341C38.0235 22.9341 38.0702 22.8868 38.0702 22.7921C38.0702 22.6975 38.1168 22.6501 38.21 22.6501C38.3032 22.6501 38.3498 22.6028 38.3498 22.5081C38.3498 22.3819 38.3964 22.3661 38.7692 22.3661C39.1421 22.3661 39.1887 22.3504 39.1887 22.2241C39.1887 22.1058 39.2353 22.0821 39.4683 22.0821C39.7013 22.0821 39.7479 22.0585 39.7479 21.9401C39.7479 21.8139 39.7946 21.7981 40.1674 21.7981C40.5402 21.7981 40.5868 21.7824 40.5868 21.6561C40.5868 21.5181 40.6335 21.5141 42.2646 21.5141C43.8958 21.5141 43.9424 21.5181 43.9424 21.6561Z" fill="white"/>
</svg>
