<svg width="160" height="38" viewBox="0 0 160 38" fill="none" xmlns="http://www.w3.org/2000/svg">
<path d="M55.0127 30.4195V8.74023H59.9537V11.5035C61.1983 9.27804 63.929 8.12823 66.3808 8.12823C69.2415 8.12823 71.7304 9.4264 72.8821 11.9486C74.5723 9.09259 77.1173 8.12823 79.9222 8.12823C83.8414 8.12823 87.5936 10.6133 87.5936 16.3623V30.4195H82.5968V17.1969C82.5968 14.6562 81.2967 12.746 78.399 12.746C75.687 12.746 73.9036 14.8787 73.9036 17.5492V30.4195H68.8326V17.1969C68.8326 14.7118 67.588 12.746 64.6348 12.746C61.867 12.746 60.1394 14.786 60.1394 17.5492V30.4195H55.0127Z" fill="white"/>
<path d="M113.321 24.2256C112.169 28.0088 108.733 31.0872 103.513 31.0872C97.6249 31.0872 92.4053 26.8219 92.4053 19.478C92.4053 12.6162 97.4949 8.09119 102.974 8.09119C109.662 8.09119 113.581 12.505 113.581 19.3482C113.581 20.2013 113.488 20.906 113.451 20.9987H97.5878C97.7177 24.2998 100.3 26.655 103.513 26.655C106.634 26.655 108.231 25.0045 108.956 22.8718L113.321 24.2256ZM108.38 17.1969C108.287 14.6562 106.597 12.3937 103.03 12.3937C99.7797 12.3937 97.9035 14.8788 97.7177 17.1969H108.38Z" fill="white"/>
<path d="M138.155 24.2256C137.003 28.0088 133.567 31.0872 128.347 31.0872C122.459 31.0872 117.239 26.8219 117.239 19.478C117.239 12.6162 122.329 8.09119 127.808 8.09119C134.495 8.09119 138.415 12.505 138.415 19.3482C138.415 20.2013 138.322 20.906 138.285 20.9987H122.421C122.552 24.2998 125.134 26.655 128.347 26.655C131.468 26.655 133.065 25.0045 133.79 22.8718L138.155 24.2256ZM133.214 17.1969C133.121 14.6562 131.431 12.3937 127.864 12.3937C124.613 12.3937 122.737 14.8788 122.552 17.1969H133.214Z" fill="white"/>
<path d="M142.261 30.4199V25.9134L153.276 13.2655H142.484V8.74048H159.777V13.0986L148.632 25.8763H160V30.4199H142.261Z" fill="white"/>
<path d="M11.5467 6.4582C11.5467 3.25292 8.9619 0.654541 5.77335 0.654541C2.58482 0.654541 0 3.25292 0 6.4582V31.9414C0 35.1468 2.58482 37.7451 5.77335 37.7451C8.9619 37.7451 11.5467 35.1468 11.5467 31.9414V6.4582Z" fill="white"/>
<path d="M27.7127 6.4582C27.7127 3.25292 25.1279 0.654541 21.9394 0.654541C18.7508 0.654541 16.166 3.25292 16.166 6.4582V20.3506C16.166 23.5559 18.7508 26.1543 21.9394 26.1543C25.1279 26.1543 27.7127 23.5559 27.7127 20.3506V6.4582Z" fill="white"/>
<path d="M42.724 5.87783C42.724 2.99308 40.3977 0.654541 37.528 0.654541C34.6583 0.654541 32.332 2.99308 32.332 5.87783V32.5219C32.332 35.4065 34.6583 37.7451 37.528 37.7451C40.3977 37.7451 42.724 35.4065 42.724 32.5219V5.87783Z" fill="white"/>
</svg>
