<svg width="136" height="35" viewBox="0 0 136 35" fill="none" xmlns="http://www.w3.org/2000/svg">
<path fill-rule="evenodd" clip-rule="evenodd" d="M49.9376 2.69231V5.38462H47.4428H44.9479V7.17949V8.97436H47.4428H49.9376V14.01C49.9376 17.3338 49.9546 19.0456 49.9875 19.0456C50.0166 19.0456 50.0374 19.2118 50.0374 19.4444C50.0374 19.6771 50.0582 19.8433 50.0873 19.8433C50.115 19.8433 50.1372 19.9763 50.1372 20.1425C50.1372 20.3086 50.1593 20.4416 50.1871 20.4416C50.2145 20.4416 50.237 20.5089 50.237 20.5912C50.237 20.6734 50.2594 20.7407 50.2869 20.7407C50.3143 20.7407 50.3368 20.8305 50.3368 20.9402C50.3368 21.0499 50.3592 21.1396 50.3867 21.1396C50.4141 21.1396 50.4366 21.2069 50.4366 21.2892C50.4366 21.3714 50.459 21.4387 50.4865 21.4387C50.5139 21.4387 50.5364 21.4836 50.5364 21.5385C50.5364 21.5933 50.5588 21.6382 50.5863 21.6382C50.6137 21.6382 50.6362 21.683 50.6362 21.7379C50.6362 21.7927 50.6586 21.8376 50.686 21.8376C50.7135 21.8376 50.7359 21.8825 50.7359 21.9373C50.7359 21.9922 50.7584 22.037 50.7858 22.037C50.8133 22.037 50.8357 22.0819 50.8357 22.1368C50.8357 22.1916 50.8582 22.2365 50.8856 22.2365C50.9131 22.2365 50.9355 22.2764 50.9355 22.3252C50.9355 22.374 50.9804 22.4462 51.0353 22.4858C51.0902 22.5253 51.1351 22.5881 51.1351 22.6253C51.1351 22.6625 51.2249 22.7792 51.3347 22.8846C51.4445 22.99 51.5343 23.1009 51.5343 23.1311C51.5343 23.2026 52.0643 23.7322 52.1359 23.7322C52.1661 23.7322 52.2771 23.8219 52.3825 23.9316C52.488 24.0413 52.6048 24.1311 52.642 24.1311C52.6793 24.1311 52.7421 24.1759 52.7817 24.2308C52.8213 24.2856 52.8886 24.3305 52.9314 24.3305C52.9742 24.3305 53.0415 24.3754 53.0811 24.4302C53.1207 24.485 53.1929 24.5299 53.2418 24.5299C53.2906 24.5299 53.3306 24.5524 53.3306 24.5798C53.3306 24.6072 53.3755 24.6296 53.4304 24.6296C53.4852 24.6296 53.5302 24.6521 53.5302 24.6795C53.5302 24.7069 53.5751 24.7293 53.6299 24.7293C53.6848 24.7293 53.7297 24.7518 53.7297 24.7792C53.7297 24.8066 53.7971 24.8291 53.8794 24.8291C53.9618 24.8291 54.0291 24.8515 54.0291 24.8789C54.0291 24.9063 54.074 24.9288 54.1289 24.9288C54.1838 24.9288 54.2287 24.9512 54.2287 24.9786C54.2287 25.0061 54.2961 25.0285 54.3784 25.0285C54.4607 25.0285 54.5281 25.0509 54.5281 25.0783C54.5281 25.1058 54.6179 25.1282 54.7277 25.1282C54.8374 25.1282 54.9273 25.1506 54.9273 25.1781C54.9273 25.2055 55.0171 25.2279 55.1268 25.2279C55.2366 25.2279 55.3264 25.2504 55.3264 25.2778C55.3264 25.3062 55.4761 25.3276 55.6757 25.3276C55.8753 25.3276 56.025 25.349 56.025 25.3775C56.025 25.4093 56.4408 25.4274 57.1726 25.4274C57.9044 25.4274 58.3202 25.4093 58.3202 25.3775C58.3202 25.3484 58.4865 25.3276 58.7194 25.3276C58.9523 25.3276 59.1186 25.3068 59.1186 25.2778C59.1186 25.2504 59.2308 25.2279 59.3681 25.2279C59.5053 25.2279 59.6175 25.2055 59.6175 25.1781C59.6175 25.1506 59.7073 25.1282 59.8171 25.1282C59.9269 25.1282 60.0167 25.1058 60.0167 25.0783C60.0167 25.0509 60.0616 25.0285 60.1165 25.0285C60.1941 25.0285 60.2163 24.9952 60.2163 24.8789C60.2163 24.7967 60.1938 24.7293 60.1664 24.7293C60.139 24.7293 60.1165 24.6396 60.1165 24.5299C60.1165 24.4202 60.094 24.3305 60.0666 24.3305C60.0392 24.3305 60.0167 24.2183 60.0167 24.0812C60.0167 23.9441 59.9943 23.8319 59.9668 23.8319C59.9394 23.8319 59.9169 23.7422 59.9169 23.6325C59.9169 23.5228 59.8945 23.433 59.867 23.433C59.8396 23.433 59.8171 23.3209 59.8171 23.1838C59.8171 23.0467 59.7947 22.9345 59.7672 22.9345C59.7398 22.9345 59.7173 22.8447 59.7173 22.735C59.7173 22.6254 59.6949 22.5356 59.6674 22.5356C59.64 22.5356 59.6175 22.4234 59.6175 22.2863C59.6175 22.1492 59.5951 22.037 59.5676 22.037C59.5402 22.037 59.5177 21.9473 59.5177 21.8376C59.5177 21.7279 59.4953 21.6382 59.4678 21.6382C59.4404 21.6382 59.4179 21.5933 59.4179 21.5385C59.4179 21.4553 59.3847 21.4387 59.2184 21.4387C59.1086 21.4387 59.0188 21.4612 59.0188 21.4886C59.0188 21.5177 58.8525 21.5385 58.6196 21.5385C58.3867 21.5385 58.2204 21.5593 58.2204 21.5883C58.2204 21.6196 57.9044 21.6382 57.3722 21.6382C56.8399 21.6382 56.5239 21.6196 56.5239 21.5883C56.5239 21.5609 56.4117 21.5385 56.2745 21.5385C56.1372 21.5385 56.025 21.516 56.025 21.4886C56.025 21.4612 55.9576 21.4387 55.8753 21.4387C55.793 21.4387 55.7256 21.4163 55.7256 21.3889C55.7256 21.3615 55.6582 21.339 55.5759 21.339C55.4936 21.339 55.4262 21.3166 55.4262 21.2892C55.4262 21.2618 55.3863 21.2393 55.3375 21.2393C55.2886 21.2393 55.2163 21.1944 55.1767 21.1396C55.1372 21.0848 55.0756 21.0399 55.0401 21.0399C54.9493 21.0399 54.3285 20.41 54.3285 20.3179C54.3285 20.2762 54.306 20.2422 54.2786 20.2422C54.2512 20.2422 54.2287 20.1973 54.2287 20.1425C54.2287 20.0876 54.2062 20.0427 54.1788 20.0427C54.1514 20.0427 54.1289 19.953 54.1289 19.8433C54.1289 19.7336 54.1065 19.6439 54.079 19.6439C54.0505 19.6439 54.0291 19.4943 54.0291 19.2949C54.0291 19.0954 54.0077 18.9459 53.9792 18.9459C53.9463 18.9459 53.9293 17.2507 53.9293 13.9601V8.97436H57.0728H60.2163V7.17949V5.38462H57.0728H53.9293V2.69231V0H51.9335H49.9376V2.69231ZM67.5012 2.69231V5.38462H65.0064H62.5115V7.17949V8.97436H65.0064H67.5012V14.1097C67.5012 17.5 67.5182 19.245 67.5511 19.245C67.5796 19.245 67.601 19.3946 67.601 19.594C67.601 19.7934 67.6224 19.943 67.6509 19.943C67.6783 19.943 67.7008 20.0552 67.7008 20.1923C67.7008 20.3294 67.7232 20.4416 67.7507 20.4416C67.7781 20.4416 67.8006 20.5313 67.8006 20.641C67.8006 20.7507 67.823 20.8405 67.8505 20.8405C67.8779 20.8405 67.9004 20.9078 67.9004 20.99C67.9004 21.0723 67.9228 21.1396 67.9503 21.1396C67.9777 21.1396 68.0002 21.2069 68.0002 21.2892C68.0002 21.3714 68.0226 21.4387 68.0501 21.4387C68.0775 21.4387 68.1 21.5061 68.1 21.5883C68.1 21.6706 68.1224 21.7379 68.1498 21.7379C68.1773 21.7379 68.1997 21.7828 68.1997 21.8376C68.1997 21.8925 68.2222 21.9373 68.2496 21.9373C68.2771 21.9373 68.2995 21.9773 68.2995 22.026C68.2995 22.0748 68.3444 22.1471 68.3993 22.1866C68.4542 22.2261 68.4991 22.2984 68.4991 22.3472C68.4991 22.396 68.5216 22.4359 68.549 22.4359C68.5765 22.4359 68.5989 22.4717 68.5989 22.5156C68.5989 22.5594 68.6663 22.6582 68.7486 22.735C68.8309 22.8119 68.8983 22.8997 68.8983 22.9302C68.8983 23.0027 69.7282 23.8319 69.8007 23.8319C69.8312 23.8319 69.9191 23.8992 69.996 23.9815C70.0729 24.0637 70.1668 24.1311 70.2046 24.1311C70.2424 24.1311 70.3057 24.1759 70.3453 24.2308C70.3849 24.2856 70.4522 24.3305 70.495 24.3305C70.5378 24.3305 70.6051 24.3754 70.6447 24.4302C70.6842 24.485 70.7565 24.5299 70.8054 24.5299C70.8542 24.5299 70.8942 24.5524 70.8942 24.5798C70.8942 24.6072 70.9391 24.6296 70.994 24.6296C71.0488 24.6296 71.0938 24.6521 71.0938 24.6795C71.0938 24.7069 71.1387 24.7293 71.1935 24.7293C71.2484 24.7293 71.2933 24.7518 71.2933 24.7792C71.2933 24.8066 71.3607 24.8291 71.443 24.8291C71.5254 24.8291 71.5927 24.8515 71.5927 24.8789C71.5927 24.9063 71.6376 24.9288 71.6925 24.9288C71.7474 24.9288 71.7923 24.9512 71.7923 24.9786C71.7923 25.0061 71.8597 25.0285 71.942 25.0285C72.0243 25.0285 72.0917 25.0509 72.0917 25.0783C72.0917 25.1058 72.1815 25.1282 72.2913 25.1282C72.401 25.1282 72.4909 25.1506 72.4909 25.1781C72.4909 25.2055 72.5807 25.2279 72.6904 25.2279C72.8002 25.2279 72.89 25.2504 72.89 25.2778C72.89 25.3055 73.0231 25.3276 73.1894 25.3276C73.3557 25.3276 73.4888 25.3498 73.4888 25.3775C73.4888 25.4094 73.9212 25.4274 74.6863 25.4274C75.4514 25.4274 75.8838 25.4094 75.8838 25.3775C75.8838 25.3484 76.0501 25.3276 76.283 25.3276C76.5159 25.3276 76.6822 25.3068 76.6822 25.2778C76.6822 25.2504 76.7944 25.2279 76.9316 25.2279C77.0689 25.2279 77.1811 25.2055 77.1811 25.1781C77.1811 25.1506 77.271 25.1282 77.3807 25.1282C77.4905 25.1282 77.5803 25.1058 77.5803 25.0783C77.5803 25.0509 77.6252 25.0285 77.6801 25.0285C77.7466 25.0285 77.7799 24.9952 77.7799 24.9288C77.7799 24.8739 77.7574 24.8291 77.73 24.8291C77.7026 24.8291 77.6801 24.7393 77.6801 24.6296C77.6801 24.5199 77.6576 24.4302 77.6302 24.4302C77.6028 24.4302 77.5803 24.318 77.5803 24.1809C77.5803 24.0438 77.5579 23.9316 77.5304 23.9316C77.503 23.9316 77.4805 23.8419 77.4805 23.7322C77.4805 23.6225 77.4581 23.5328 77.4306 23.5328C77.4032 23.5328 77.3807 23.4206 77.3807 23.2835C77.3807 23.1464 77.3583 23.0342 77.3308 23.0342C77.3034 23.0342 77.2809 22.9444 77.2809 22.8348C77.2809 22.7251 77.2585 22.6353 77.231 22.6353C77.2036 22.6353 77.1811 22.5231 77.1811 22.386C77.1811 22.2489 77.1587 22.1368 77.1312 22.1368C77.1038 22.1368 77.0813 22.047 77.0813 21.9373C77.0813 21.8276 77.0589 21.7379 77.0314 21.7379C77.004 21.7379 76.9815 21.6706 76.9815 21.5883C76.9815 21.4471 76.9705 21.4387 76.782 21.4387C76.6722 21.4387 76.5824 21.4612 76.5824 21.4886C76.5824 21.5177 76.4161 21.5385 76.1832 21.5385C75.9503 21.5385 75.784 21.5593 75.784 21.5883C75.784 21.6196 75.468 21.6382 74.9358 21.6382C74.4035 21.6382 74.0875 21.6196 74.0875 21.5883C74.0875 21.5609 73.9753 21.5385 73.8381 21.5385C73.7008 21.5385 73.5886 21.516 73.5886 21.4886C73.5886 21.4612 73.5212 21.4387 73.4389 21.4387C73.3566 21.4387 73.2892 21.4163 73.2892 21.3889C73.2892 21.3615 73.2218 21.339 73.1395 21.339C73.0572 21.339 72.9898 21.3166 72.9898 21.2892C72.9898 21.2618 72.9449 21.2393 72.89 21.2393C72.8351 21.2393 72.7902 21.2169 72.7902 21.1895C72.7902 21.162 72.7544 21.1396 72.7104 21.1396C72.6666 21.1396 72.5677 21.0723 72.4909 20.99C72.414 20.9078 72.3151 20.8405 72.2713 20.8405C72.2273 20.8405 72.1915 20.8046 72.1915 20.7607C72.1915 20.7169 72.1241 20.6181 72.0418 20.5413C71.9595 20.4645 71.8921 20.3657 71.8921 20.3219C71.8921 20.278 71.8696 20.2422 71.8422 20.2422C71.8148 20.2422 71.7923 20.1973 71.7923 20.1425C71.7923 20.0876 71.7699 20.0427 71.7424 20.0427C71.715 20.0427 71.6925 19.9754 71.6925 19.8932C71.6925 19.8109 71.6701 19.7436 71.6426 19.7436C71.6149 19.7436 71.5927 19.6106 71.5927 19.4444C71.5927 19.2783 71.5706 19.1453 71.5428 19.1453C71.5099 19.1453 71.4929 17.4169 71.4929 14.0598V8.97436H74.6364H77.7799V7.17949V5.38462H74.6364H71.4929V2.69231V0H69.4971H67.5012V2.69231ZM9.72095 5.03561C9.72095 5.06408 9.57126 5.08547 9.37167 5.08547C9.17209 5.08547 9.0224 5.10686 9.0224 5.13533C9.0224 5.16275 8.91013 5.18518 8.77291 5.18518C8.6357 5.18518 8.52343 5.20762 8.52343 5.23504C8.52343 5.26246 8.45607 5.2849 8.37374 5.2849C8.29141 5.2849 8.22405 5.30734 8.22405 5.33476C8.22405 5.36218 8.13424 5.38462 8.02446 5.38462C7.91469 5.38462 7.82488 5.40705 7.82488 5.43447C7.82488 5.46189 7.75752 5.48433 7.67519 5.48433C7.59286 5.48433 7.5255 5.50677 7.5255 5.53419C7.5255 5.56161 7.48059 5.58405 7.4257 5.58405C7.37082 5.58405 7.32591 5.60648 7.32591 5.6339C7.32591 5.66132 7.25855 5.68376 7.17622 5.68376C7.09389 5.68376 7.02653 5.7062 7.02653 5.73362C7.02653 5.76104 6.98163 5.78348 6.92674 5.78348C6.87185 5.78348 6.82695 5.80591 6.82695 5.83333C6.82695 5.86075 6.78204 5.88319 6.72715 5.88319C6.67227 5.88319 6.62736 5.90563 6.62736 5.93305C6.62736 5.96047 6.58245 5.98291 6.52757 5.98291C6.47268 5.98291 6.42777 6.00534 6.42777 6.03276C6.42777 6.06018 6.38287 6.08262 6.32798 6.08262C6.27309 6.08262 6.22819 6.10506 6.22819 6.13248C6.22819 6.1599 6.18328 6.18234 6.12839 6.18234C6.07351 6.18234 6.0286 6.20477 6.0286 6.23219C6.0286 6.25962 5.98863 6.28205 5.93983 6.28205C5.89099 6.28205 5.81869 6.32692 5.77912 6.38177C5.73955 6.43661 5.67623 6.48148 5.63841 6.48148C5.60064 6.48148 5.50673 6.54879 5.42984 6.63105C5.35295 6.71332 5.26314 6.78063 5.23026 6.78063C5.19737 6.78063 5.10756 6.84793 5.03067 6.9302C4.95378 7.01246 4.85493 7.07977 4.81107 7.07977C4.74107 7.07977 4.73129 6.97562 4.73129 6.23219V5.38462H2.78532H0.839355V20.1923V35H2.83522H4.83108V29.1667C4.83108 25.9583 4.8445 23.3333 4.86097 23.3333C4.87739 23.3333 4.95378 23.4006 5.03067 23.4829C5.10756 23.5652 5.19737 23.6325 5.23026 23.6325C5.26314 23.6325 5.35295 23.6998 5.42984 23.7821C5.50673 23.8643 5.60064 23.9316 5.63841 23.9316C5.67623 23.9316 5.73955 23.9765 5.77912 24.0313C5.81869 24.0862 5.89099 24.1311 5.93983 24.1311C5.98863 24.1311 6.0286 24.1535 6.0286 24.1809C6.0286 24.2083 6.06857 24.2308 6.11737 24.2308C6.16622 24.2308 6.23852 24.2756 6.27808 24.3305C6.31765 24.3853 6.38995 24.4302 6.4388 24.4302C6.4876 24.4302 6.52757 24.4526 6.52757 24.4801C6.52757 24.5075 6.57247 24.5299 6.62736 24.5299C6.68225 24.5299 6.72715 24.5524 6.72715 24.5798C6.72715 24.6072 6.79451 24.6296 6.87684 24.6296C6.95917 24.6296 7.02653 24.6521 7.02653 24.6795C7.02653 24.7069 7.07144 24.7293 7.12633 24.7293C7.18121 24.7293 7.22612 24.7518 7.22612 24.7792C7.22612 24.8066 7.29348 24.8291 7.37581 24.8291C7.45814 24.8291 7.5255 24.8515 7.5255 24.8789C7.5255 24.9063 7.59286 24.9288 7.67519 24.9288C7.75752 24.9288 7.82488 24.9512 7.82488 24.9786C7.82488 25.0061 7.89224 25.0285 7.97457 25.0285C8.0569 25.0285 8.12426 25.0509 8.12426 25.0783C8.12426 25.1058 8.21407 25.1282 8.32384 25.1282C8.43362 25.1282 8.52343 25.1506 8.52343 25.1781C8.52343 25.2055 8.61324 25.2279 8.72302 25.2279C8.83279 25.2279 8.9226 25.2504 8.9226 25.2778C8.9226 25.3062 9.07229 25.3276 9.27188 25.3276C9.47147 25.3276 9.62115 25.349 9.62115 25.3775C9.62115 25.4093 10.0369 25.4274 10.7688 25.4274C11.5006 25.4274 11.9164 25.4093 11.9164 25.3775C11.9164 25.3498 12.0495 25.3276 12.2158 25.3276C12.3821 25.3276 12.5152 25.3055 12.5152 25.2778C12.5152 25.2504 12.6274 25.2279 12.7646 25.2279C12.9019 25.2279 13.0141 25.2055 13.0141 25.1781C13.0141 25.1506 13.1039 25.1282 13.2137 25.1282C13.3235 25.1282 13.4133 25.1058 13.4133 25.0783C13.4133 25.0509 13.5031 25.0285 13.6129 25.0285C13.7227 25.0285 13.8125 25.0061 13.8125 24.9786C13.8125 24.9512 13.8798 24.9288 13.9622 24.9288C14.0445 24.9288 14.1118 24.9063 14.1118 24.8789C14.1118 24.8515 14.1792 24.8291 14.2615 24.8291C14.3439 24.8291 14.4112 24.8066 14.4112 24.7792C14.4112 24.7518 14.4561 24.7293 14.511 24.7293C14.5659 24.7293 14.6108 24.7069 14.6108 24.6795C14.6108 24.6521 14.6782 24.6296 14.7605 24.6296C14.8428 24.6296 14.9102 24.6072 14.9102 24.5798C14.9102 24.5524 14.9551 24.5299 15.01 24.5299C15.0649 24.5299 15.1098 24.5075 15.1098 24.4801C15.1098 24.4526 15.1547 24.4302 15.2096 24.4302C15.2645 24.4302 15.3094 24.4078 15.3094 24.3803C15.3094 24.3529 15.3493 24.3305 15.3981 24.3305C15.447 24.3305 15.5193 24.2856 15.5588 24.2308C15.5984 24.1759 15.6707 24.1311 15.7196 24.1311C15.7684 24.1311 15.8083 24.1086 15.8083 24.0812C15.8083 24.0538 15.8483 24.0313 15.8971 24.0313C15.9459 24.0313 16.0182 23.9865 16.0578 23.9316C16.0974 23.8768 16.1647 23.8319 16.2075 23.8319C16.2503 23.8319 16.3176 23.787 16.3572 23.7322C16.3968 23.6774 16.4596 23.6325 16.4969 23.6325C16.5341 23.6325 16.6509 23.5427 16.7564 23.433C16.8618 23.3234 16.9726 23.2336 17.0024 23.2336C17.0733 23.2336 18.403 21.905 18.403 21.8342C18.403 21.8044 18.4928 21.6937 18.6025 21.5883C18.7123 21.4829 18.8021 21.3663 18.8021 21.329C18.8021 21.2918 18.847 21.229 18.9019 21.1895C18.9568 21.1499 19.0017 21.0826 19.0017 21.0399C19.0017 20.9972 19.0466 20.9298 19.1015 20.8903C19.1564 20.8508 19.2013 20.7785 19.2013 20.7297C19.2013 20.681 19.2238 20.641 19.2512 20.641C19.2786 20.641 19.3011 20.6011 19.3011 20.5523C19.3011 20.5035 19.346 20.4313 19.4009 20.3917C19.4558 20.3522 19.5007 20.28 19.5007 20.2311C19.5007 20.1824 19.5231 20.1425 19.5506 20.1425C19.578 20.1425 19.6005 20.0976 19.6005 20.0427C19.6005 19.9879 19.6229 19.943 19.6504 19.943C19.6778 19.943 19.7003 19.8981 19.7003 19.8433C19.7003 19.7885 19.7227 19.7436 19.7502 19.7436C19.7776 19.7436 19.8001 19.6987 19.8001 19.6439C19.8001 19.589 19.8225 19.5442 19.85 19.5442C19.8774 19.5442 19.8999 19.4769 19.8999 19.3946C19.8999 19.3123 19.9223 19.245 19.9497 19.245C19.9772 19.245 19.9996 19.2001 19.9996 19.1453C19.9996 19.0905 20.0221 19.0456 20.0495 19.0456C20.077 19.0456 20.0994 18.9783 20.0994 18.896C20.0994 18.8137 20.1219 18.7464 20.1493 18.7464C20.1768 18.7464 20.1992 18.6791 20.1992 18.5969C20.1992 18.5146 20.2217 18.4473 20.2491 18.4473C20.2766 18.4473 20.299 18.3575 20.299 18.2479C20.299 18.1382 20.3215 18.0484 20.3489 18.0484C20.3764 18.0484 20.3988 17.9811 20.3988 17.8989C20.3988 17.8166 20.4213 17.7493 20.4487 17.7493C20.4762 17.7493 20.4986 17.6371 20.4986 17.5C20.4986 17.3629 20.5211 17.2507 20.5485 17.2507C20.5763 17.2507 20.5984 17.1177 20.5984 16.9516C20.5984 16.7854 20.6206 16.6524 20.6483 16.6524C20.6804 16.6524 20.6982 16.1372 20.6982 15.2066C20.6982 14.2759 20.6804 13.7607 20.6483 13.7607C20.6206 13.7607 20.5984 13.6277 20.5984 13.4615C20.5984 13.2954 20.5763 13.1624 20.5485 13.1624C20.5211 13.1624 20.4986 13.0726 20.4986 12.963C20.4986 12.8533 20.4762 12.7635 20.4487 12.7635C20.4213 12.7635 20.3988 12.6738 20.3988 12.5641C20.3988 12.4544 20.3764 12.3647 20.3489 12.3647C20.3215 12.3647 20.299 12.2749 20.299 12.1652C20.299 12.0556 20.2766 11.9658 20.2491 11.9658C20.2217 11.9658 20.1992 11.8985 20.1992 11.8162C20.1992 11.734 20.1768 11.6667 20.1493 11.6667C20.1219 11.6667 20.0994 11.6218 20.0994 11.567C20.0994 11.5121 20.077 11.4672 20.0495 11.4672C20.0221 11.4672 19.9996 11.3999 19.9996 11.3177C19.9996 11.2354 19.9772 11.1681 19.9497 11.1681C19.9223 11.1681 19.8999 11.1232 19.8999 11.0684C19.8999 11.0135 19.8774 10.9687 19.85 10.9687C19.8225 10.9687 19.8001 10.9014 19.8001 10.8191C19.8001 10.7368 19.7776 10.6695 19.7502 10.6695C19.7227 10.6695 19.7003 10.6246 19.7003 10.5698C19.7003 10.515 19.6778 10.4701 19.6504 10.4701C19.6229 10.4701 19.6005 10.4301 19.6005 10.3814C19.6005 10.3326 19.5556 10.2603 19.5007 10.2208C19.4458 10.1813 19.4009 10.109 19.4009 10.0602C19.4009 10.0114 19.3784 9.97151 19.351 9.97151C19.3235 9.97151 19.3011 9.92664 19.3011 9.87179C19.3011 9.81695 19.2786 9.77208 19.2512 9.77208C19.2238 9.77208 19.2013 9.73214 19.2013 9.68338C19.2013 9.63457 19.1564 9.56233 19.1015 9.52279C19.0466 9.48325 19.0017 9.41999 19.0017 9.38219C19.0017 9.34445 18.9344 9.25062 18.852 9.17379C18.7697 9.09696 18.7023 9.00721 18.7023 8.97436C18.7023 8.9415 18.635 8.85176 18.5526 8.77493C18.4703 8.6981 18.403 8.61035 18.403 8.57999C18.403 8.50789 16.9737 7.07977 16.9016 7.07977C16.8712 7.07977 16.7834 7.01246 16.7065 6.9302C16.6296 6.84793 16.5357 6.78063 16.4979 6.78063C16.4601 6.78063 16.3968 6.73575 16.3572 6.68091C16.3176 6.62607 16.2503 6.5812 16.2075 6.5812C16.1647 6.5812 16.0974 6.53632 16.0578 6.48148C16.0182 6.42664 15.9509 6.38177 15.9081 6.38177C15.8654 6.38177 15.798 6.33689 15.7584 6.28205C15.7189 6.22721 15.6466 6.18234 15.5977 6.18234C15.5489 6.18234 15.509 6.1599 15.509 6.13248C15.509 6.10506 15.464 6.08262 15.4092 6.08262C15.3543 6.08262 15.3094 6.06018 15.3094 6.03276C15.3094 6.00534 15.2645 5.98291 15.2096 5.98291C15.1547 5.98291 15.1098 5.96047 15.1098 5.93305C15.1098 5.90563 15.0649 5.88319 15.01 5.88319C14.9551 5.88319 14.9102 5.86075 14.9102 5.83333C14.9102 5.80591 14.8653 5.78348 14.8104 5.78348C14.7555 5.78348 14.7106 5.76104 14.7106 5.73362C14.7106 5.7062 14.6432 5.68376 14.5609 5.68376C14.4786 5.68376 14.4112 5.66132 14.4112 5.6339C14.4112 5.60648 14.3663 5.58405 14.3114 5.58405C14.2565 5.58405 14.2116 5.56161 14.2116 5.53419C14.2116 5.50677 14.1443 5.48433 14.062 5.48433C13.9796 5.48433 13.9123 5.46189 13.9123 5.43447C13.9123 5.40705 13.8224 5.38462 13.7127 5.38462C13.6029 5.38462 13.5131 5.36218 13.5131 5.33476C13.5131 5.30734 13.4457 5.2849 13.3634 5.2849C13.2811 5.2849 13.2137 5.26246 13.2137 5.23504C13.2137 5.20762 13.1014 5.18518 12.9642 5.18518C12.827 5.18518 12.7147 5.16275 12.7147 5.13533C12.7147 5.10686 12.5651 5.08547 12.3655 5.08547C12.1659 5.08547 12.0162 5.06408 12.0162 5.03561C12.0162 5.0038 11.6004 4.98575 10.8686 4.98575C10.1367 4.98575 9.72095 5.0038 9.72095 5.03561ZM31.5757 5.03561C31.5757 5.06408 31.426 5.08547 31.2264 5.08547C31.0268 5.08547 30.8771 5.10686 30.8771 5.13533C30.8771 5.16275 30.7648 5.18518 30.6276 5.18518C30.4904 5.18518 30.3781 5.20762 30.3781 5.23504C30.3781 5.26246 30.2883 5.2849 30.1785 5.2849C30.0688 5.2849 29.979 5.30734 29.979 5.33476C29.979 5.36218 29.9116 5.38462 29.8293 5.38462C29.7469 5.38462 29.6796 5.40705 29.6796 5.43447C29.6796 5.46189 29.6122 5.48433 29.5299 5.48433C29.4476 5.48433 29.3802 5.50677 29.3802 5.53419C29.3802 5.56161 29.3128 5.58405 29.2305 5.58405C29.1482 5.58405 29.0808 5.60648 29.0808 5.6339C29.0808 5.66132 29.0359 5.68376 28.981 5.68376C28.9261 5.68376 28.8812 5.7062 28.8812 5.73362C28.8812 5.76104 28.8363 5.78348 28.7814 5.78348C28.7266 5.78348 28.6817 5.80591 28.6817 5.83333C28.6817 5.86075 28.6367 5.88319 28.5819 5.88319C28.527 5.88319 28.4821 5.90563 28.4821 5.93305C28.4821 5.96047 28.4372 5.98291 28.3823 5.98291C28.3274 5.98291 28.2825 6.00534 28.2825 6.03276C28.2825 6.06018 28.2376 6.08262 28.1827 6.08262C28.1278 6.08262 28.0829 6.10506 28.0829 6.13248C28.0829 6.1599 28.038 6.18234 27.9831 6.18234C27.9282 6.18234 27.8833 6.20477 27.8833 6.23219C27.8833 6.25962 27.8433 6.28205 27.7945 6.28205C27.7457 6.28205 27.6734 6.32692 27.6338 6.38177C27.5943 6.43661 27.5269 6.48148 27.4841 6.48148C27.4414 6.48148 27.374 6.52635 27.3344 6.5812C27.2949 6.63604 27.2316 6.68091 27.1937 6.68091C27.156 6.68091 27.0621 6.74822 26.9852 6.83048C26.9083 6.91275 26.8205 6.98006 26.7901 6.98006C26.718 6.98006 25.0891 8.60771 25.0891 8.67975C25.0891 8.71011 25.0217 8.79781 24.9394 8.87464C24.8571 8.95147 24.7897 9.04531 24.7897 9.08305C24.7897 9.12084 24.7448 9.18411 24.6899 9.22365C24.635 9.26318 24.5901 9.33049 24.5901 9.37322C24.5901 9.41595 24.5452 9.48325 24.4903 9.52279C24.4355 9.56233 24.3905 9.62964 24.3905 9.67236C24.3905 9.71509 24.3456 9.7824 24.2908 9.82194C24.2359 9.86147 24.191 9.93372 24.191 9.98253C24.191 10.0313 24.1685 10.0712 24.1411 10.0712C24.1136 10.0712 24.0912 10.1161 24.0912 10.1709C24.0912 10.2258 24.0687 10.2707 24.0413 10.2707C24.0138 10.2707 23.9914 10.3155 23.9914 10.3704C23.9914 10.4252 23.9689 10.4701 23.9415 10.4701C23.914 10.4701 23.8916 10.515 23.8916 10.5698C23.8916 10.6246 23.8691 10.6695 23.8417 10.6695C23.8142 10.6695 23.7918 10.7144 23.7918 10.7692C23.7918 10.8241 23.7693 10.8689 23.7419 10.8689C23.7144 10.8689 23.692 10.9363 23.692 11.0185C23.692 11.1008 23.6695 11.1681 23.6421 11.1681C23.6147 11.1681 23.5922 11.213 23.5922 11.2678C23.5922 11.3226 23.5697 11.3675 23.5423 11.3675C23.5149 11.3675 23.4924 11.4348 23.4924 11.5171C23.4924 11.5994 23.47 11.6667 23.4425 11.6667C23.4151 11.6667 23.3926 11.734 23.3926 11.8162C23.3926 11.8985 23.3702 11.9658 23.3427 11.9658C23.3153 11.9658 23.2928 12.0331 23.2928 12.1154C23.2928 12.1976 23.2704 12.265 23.2429 12.265C23.2155 12.265 23.193 12.3547 23.193 12.4644C23.193 12.5741 23.1706 12.6638 23.1431 12.6638C23.1157 12.6638 23.0932 12.7536 23.0932 12.8632C23.0932 12.9729 23.0708 13.0627 23.0433 13.0627C23.0156 13.0627 22.9934 13.1956 22.9934 13.3618C22.9934 13.528 22.9713 13.661 22.9435 13.661C22.914 13.661 22.8936 13.8438 22.8936 14.1097C22.8936 14.3756 22.8733 14.5584 22.8438 14.5584C22.8131 14.5584 22.7939 14.8077 22.7939 15.2066C22.7939 15.6054 22.8131 15.8547 22.8438 15.8547C22.8733 15.8547 22.8936 16.0375 22.8936 16.3034C22.8936 16.5693 22.914 16.7521 22.9435 16.7521C22.9713 16.7521 22.9934 16.8851 22.9934 17.0513C22.9934 17.2175 23.0156 17.3504 23.0433 17.3504C23.0708 17.3504 23.0932 17.4402 23.0932 17.5499C23.0932 17.6595 23.1157 17.7493 23.1431 17.7493C23.1706 17.7493 23.193 17.839 23.193 17.9487C23.193 18.0584 23.2155 18.1481 23.2429 18.1481C23.2704 18.1481 23.2928 18.2155 23.2928 18.2977C23.2928 18.38 23.3153 18.4473 23.3427 18.4473C23.3702 18.4473 23.3926 18.5146 23.3926 18.5969C23.3926 18.6791 23.4151 18.7464 23.4425 18.7464C23.47 18.7464 23.4924 18.8137 23.4924 18.896C23.4924 18.9783 23.5149 19.0456 23.5423 19.0456C23.5697 19.0456 23.5922 19.1129 23.5922 19.1952C23.5922 19.2774 23.6147 19.3447 23.6421 19.3447C23.6695 19.3447 23.692 19.3896 23.692 19.4444C23.692 19.4993 23.7144 19.5442 23.7419 19.5442C23.7693 19.5442 23.7918 19.589 23.7918 19.6439C23.7918 19.6987 23.8142 19.7436 23.8417 19.7436C23.8691 19.7436 23.8916 19.7885 23.8916 19.8433C23.8916 19.8981 23.914 19.943 23.9415 19.943C23.9689 19.943 23.9914 19.9879 23.9914 20.0427C23.9914 20.0976 24.0138 20.1425 24.0413 20.1425C24.0687 20.1425 24.0912 20.1873 24.0912 20.2422C24.0912 20.297 24.1136 20.3419 24.1411 20.3419C24.1685 20.3419 24.191 20.3818 24.191 20.4306C24.191 20.4794 24.2359 20.5516 24.2908 20.5912C24.3456 20.6307 24.3905 20.7029 24.3905 20.7518C24.3905 20.8005 24.413 20.8405 24.4404 20.8405C24.4679 20.8405 24.4903 20.8763 24.4903 20.9202C24.4903 20.964 24.5577 21.0628 24.64 21.1396C24.7224 21.2164 24.7897 21.3062 24.7897 21.339C24.7897 21.3719 24.8571 21.4616 24.9394 21.5385C25.0217 21.6153 25.0891 21.703 25.0891 21.7334C25.0891 21.8054 26.6182 23.3333 26.6903 23.3333C26.7207 23.3333 26.8085 23.4006 26.8854 23.4829C26.9623 23.5652 27.0521 23.6325 27.085 23.6325C27.1178 23.6325 27.2077 23.6998 27.2845 23.7821C27.3614 23.8643 27.4603 23.9316 27.5041 23.9316C27.548 23.9316 27.5839 23.9541 27.5839 23.9815C27.5839 24.0089 27.6239 24.0313 27.6727 24.0313C27.7215 24.0313 27.7938 24.0762 27.8334 24.1311C27.873 24.1859 27.9453 24.2308 27.9941 24.2308C28.0429 24.2308 28.0829 24.2532 28.0829 24.2806C28.0829 24.308 28.1278 24.3305 28.1827 24.3305C28.2376 24.3305 28.2825 24.3529 28.2825 24.3803C28.2825 24.4078 28.3274 24.4302 28.3823 24.4302C28.4372 24.4302 28.4821 24.4526 28.4821 24.4801C28.4821 24.5075 28.527 24.5299 28.5819 24.5299C28.6367 24.5299 28.6817 24.5524 28.6817 24.5798C28.6817 24.6072 28.749 24.6296 28.8313 24.6296C28.9137 24.6296 28.981 24.6521 28.981 24.6795C28.981 24.7069 29.0259 24.7293 29.0808 24.7293C29.1357 24.7293 29.1806 24.7518 29.1806 24.7792C29.1806 24.8066 29.248 24.8291 29.3303 24.8291C29.4126 24.8291 29.48 24.8515 29.48 24.8789C29.48 24.9063 29.5474 24.9288 29.6297 24.9288C29.712 24.9288 29.7794 24.9512 29.7794 24.9786C29.7794 25.0061 29.8692 25.0285 29.979 25.0285C30.0887 25.0285 30.1785 25.0509 30.1785 25.0783C30.1785 25.1058 30.2684 25.1282 30.3781 25.1282C30.4879 25.1282 30.5777 25.1506 30.5777 25.1781C30.5777 25.2055 30.6675 25.2279 30.7773 25.2279C30.8871 25.2279 30.9769 25.2504 30.9769 25.2778C30.9769 25.3062 31.1266 25.3276 31.3262 25.3276C31.5258 25.3276 31.6754 25.349 31.6754 25.3775C31.6754 25.4093 32.0912 25.4274 32.8231 25.4274C33.5549 25.4274 33.9707 25.4093 33.9707 25.3775C33.9707 25.3498 34.1038 25.3276 34.2701 25.3276C34.4364 25.3276 34.5694 25.3055 34.5694 25.2778C34.5694 25.2504 34.6817 25.2279 34.8189 25.2279C34.9561 25.2279 35.0684 25.2055 35.0684 25.1781C35.0684 25.1506 35.1582 25.1282 35.268 25.1282C35.3778 25.1282 35.4676 25.1058 35.4676 25.0783C35.4676 25.0509 35.5349 25.0285 35.6173 25.0285C35.6996 25.0285 35.767 25.0061 35.767 24.9786C35.767 24.9512 35.8343 24.9288 35.9167 24.9288C35.999 24.9288 36.0663 24.9063 36.0663 24.8789C36.0663 24.8515 36.1337 24.8291 36.216 24.8291C36.2984 24.8291 36.3657 24.8066 36.3657 24.7792C36.3657 24.7518 36.4106 24.7293 36.4655 24.7293C36.5204 24.7293 36.5653 24.7069 36.5653 24.6795C36.5653 24.6521 36.6102 24.6296 36.6651 24.6296C36.72 24.6296 36.7649 24.6072 36.7649 24.5798C36.7649 24.5524 36.8098 24.5299 36.8647 24.5299C36.9196 24.5299 36.9645 24.5075 36.9645 24.4801C36.9645 24.4526 37.0094 24.4302 37.0643 24.4302C37.1192 24.4302 37.1641 24.4078 37.1641 24.3803C37.1641 24.3529 37.209 24.3305 37.2639 24.3305C37.3187 24.3305 37.3637 24.308 37.3637 24.2806C37.3637 24.2532 37.4086 24.2308 37.4635 24.2308C37.5183 24.2308 37.5632 24.2083 37.5632 24.1809C37.5632 24.1535 37.6032 24.1311 37.652 24.1311C37.7009 24.1311 37.7732 24.0862 37.8127 24.0313C37.8523 23.9765 37.9156 23.9316 37.9534 23.9316C37.9912 23.9316 38.0851 23.8643 38.162 23.7821C38.2389 23.6998 38.3287 23.6325 38.3616 23.6325C38.3945 23.6325 38.4843 23.5652 38.5612 23.4829C38.6381 23.4006 38.7369 23.3333 38.7808 23.3333C38.8508 23.3333 38.8606 23.4375 38.8606 24.1809V25.0285H40.7352C42.2934 25.0285 42.622 25.0165 42.6812 24.9572C42.7887 24.8499 42.7887 5.56321 42.6812 5.45586C42.622 5.39663 42.2934 5.38462 40.7352 5.38462H38.8606V6.23219C38.8606 6.97562 38.8508 7.07977 38.7808 7.07977C38.7369 7.07977 38.6381 7.01246 38.5612 6.9302C38.4843 6.84793 38.3904 6.78063 38.3526 6.78063C38.3148 6.78063 38.2515 6.73575 38.2119 6.68091C38.1723 6.62607 38.105 6.5812 38.0622 6.5812C38.0194 6.5812 37.9521 6.53632 37.9125 6.48148C37.873 6.42664 37.8056 6.38177 37.7628 6.38177C37.7201 6.38177 37.6527 6.33689 37.6131 6.28205C37.5736 6.22721 37.5013 6.18234 37.4524 6.18234C37.4036 6.18234 37.3637 6.1599 37.3637 6.13248C37.3637 6.10506 37.3187 6.08262 37.2639 6.08262C37.209 6.08262 37.1641 6.06018 37.1641 6.03276C37.1641 6.00534 37.1192 5.98291 37.0643 5.98291C37.0094 5.98291 36.9645 5.96047 36.9645 5.93305C36.9645 5.90563 36.9196 5.88319 36.8647 5.88319C36.8098 5.88319 36.7649 5.86075 36.7649 5.83333C36.7649 5.80591 36.72 5.78348 36.6651 5.78348C36.6102 5.78348 36.5653 5.76104 36.5653 5.73362C36.5653 5.7062 36.498 5.68376 36.4156 5.68376C36.3333 5.68376 36.2659 5.66132 36.2659 5.6339C36.2659 5.60648 36.221 5.58405 36.1661 5.58405C36.1113 5.58405 36.0663 5.56161 36.0663 5.53419C36.0663 5.50677 35.999 5.48433 35.9167 5.48433C35.8343 5.48433 35.767 5.46189 35.767 5.43447C35.767 5.40705 35.6772 5.38462 35.5674 5.38462C35.4576 5.38462 35.3678 5.36218 35.3678 5.33476C35.3678 5.30734 35.278 5.2849 35.1682 5.2849C35.0584 5.2849 34.9686 5.26246 34.9686 5.23504C34.9686 5.20762 34.8788 5.18518 34.769 5.18518C34.6593 5.18518 34.5694 5.16275 34.5694 5.13533C34.5694 5.10686 34.4198 5.08547 34.2202 5.08547C34.0206 5.08547 33.8709 5.06408 33.8709 5.03561C33.8709 5.0038 33.4551 4.98575 32.7233 4.98575C31.9914 4.98575 31.5757 5.0038 31.5757 5.03561ZM88.358 5.03561C88.358 5.06333 88.2249 5.08547 88.0586 5.08547C87.8923 5.08547 87.7592 5.10761 87.7592 5.13533C87.7592 5.16275 87.6469 5.18518 87.5097 5.18518C87.3725 5.18518 87.2602 5.20762 87.2602 5.23504C87.2602 5.26246 87.1704 5.2849 87.0607 5.2849C86.9509 5.2849 86.8611 5.30734 86.8611 5.33476C86.8611 5.36218 86.7937 5.38462 86.7114 5.38462C86.6291 5.38462 86.5617 5.40705 86.5617 5.43447C86.5617 5.46189 86.4943 5.48433 86.412 5.48433C86.3297 5.48433 86.2623 5.50677 86.2623 5.53419C86.2623 5.56161 86.195 5.58405 86.1126 5.58405C86.0303 5.58405 85.9629 5.60648 85.9629 5.6339C85.9629 5.66132 85.8956 5.68376 85.8132 5.68376C85.7309 5.68376 85.6636 5.7062 85.6636 5.73362C85.6636 5.76104 85.6186 5.78348 85.5638 5.78348C85.5089 5.78348 85.464 5.80591 85.464 5.83333C85.464 5.86075 85.4191 5.88319 85.3642 5.88319C85.3093 5.88319 85.2644 5.90563 85.2644 5.93305C85.2644 5.96047 85.2195 5.98291 85.1646 5.98291C85.1097 5.98291 85.0648 6.00534 85.0648 6.03276C85.0648 6.06018 85.0199 6.08262 84.965 6.08262C84.9101 6.08262 84.8652 6.10506 84.8652 6.13248C84.8652 6.1599 84.8252 6.18234 84.7764 6.18234C84.7276 6.18234 84.6553 6.22721 84.6157 6.28205C84.5762 6.33689 84.5088 6.38177 84.466 6.38177C84.4233 6.38177 84.3559 6.42664 84.3163 6.48148C84.2768 6.53632 84.2094 6.5812 84.1667 6.5812C84.1239 6.5812 84.0565 6.62607 84.017 6.68091C83.9774 6.73575 83.9149 6.78063 83.878 6.78063C83.8411 6.78063 83.7016 6.89281 83.5679 7.02991C83.4342 7.16702 83.3006 7.2792 83.271 7.2792C83.2006 7.2792 82.4702 8.00907 82.4702 8.07937C82.4702 8.10898 82.3579 8.2425 82.2207 8.37607C82.0835 8.50964 81.9712 8.64904 81.9712 8.68588C81.9712 8.72278 81.9263 8.78525 81.8714 8.82479C81.8165 8.86432 81.7716 8.93163 81.7716 8.97436C81.7716 9.01709 81.7267 9.08439 81.6718 9.12393C81.6169 9.16347 81.572 9.23078 81.572 9.2735C81.572 9.31623 81.5271 9.38354 81.4722 9.42308C81.4174 9.46261 81.3724 9.53486 81.3724 9.58367C81.3724 9.63243 81.35 9.67236 81.3225 9.67236C81.2951 9.67236 81.2727 9.71724 81.2727 9.77208C81.2727 9.82692 81.2502 9.87179 81.2228 9.87179C81.1953 9.87179 81.1729 9.91667 81.1729 9.97151C81.1729 10.0264 81.1504 10.0712 81.123 10.0712C81.0955 10.0712 81.0731 10.1161 81.0731 10.1709C81.0731 10.2258 81.0506 10.2707 81.0232 10.2707C80.9957 10.2707 80.9733 10.3155 80.9733 10.3704C80.9733 10.4252 80.9508 10.4701 80.9234 10.4701C80.8959 10.4701 80.8735 10.515 80.8735 10.5698C80.8735 10.6246 80.851 10.6695 80.8236 10.6695C80.7961 10.6695 80.7737 10.7368 80.7737 10.8191C80.7737 10.9014 80.7512 10.9687 80.7238 10.9687C80.6964 10.9687 80.6739 11.0135 80.6739 11.0684C80.6739 11.1232 80.6514 11.1681 80.624 11.1681C80.5966 11.1681 80.5741 11.2354 80.5741 11.3177C80.5741 11.3999 80.5517 11.4672 80.5242 11.4672C80.4968 11.4672 80.4743 11.5345 80.4743 11.6168C80.4743 11.6991 80.4519 11.7664 80.4244 11.7664C80.397 11.7664 80.3745 11.8561 80.3745 11.9658C80.3745 12.0755 80.3521 12.1652 80.3246 12.1652C80.2972 12.1652 80.2747 12.255 80.2747 12.3647C80.2747 12.4744 80.2523 12.5641 80.2248 12.5641C80.1974 12.5641 80.1749 12.6763 80.1749 12.8134C80.1749 12.9505 80.1525 13.0627 80.125 13.0627C80.0965 13.0627 80.0751 13.2123 80.0751 13.4117C80.0751 13.6111 80.0537 13.7607 80.0252 13.7607C79.9931 13.7607 79.9753 14.2759 79.9753 15.2066C79.9753 16.1372 79.9931 16.6524 80.0252 16.6524C80.053 16.6524 80.0751 16.7854 80.0751 16.9516C80.0751 17.1177 80.0973 17.2507 80.125 17.2507C80.1525 17.2507 80.1749 17.3629 80.1749 17.5C80.1749 17.6371 80.1974 17.7493 80.2248 17.7493C80.2523 17.7493 80.2747 17.839 80.2747 17.9487C80.2747 18.0584 80.2972 18.1481 80.3246 18.1481C80.3521 18.1481 80.3745 18.2155 80.3745 18.2977C80.3745 18.38 80.397 18.4473 80.4244 18.4473C80.4519 18.4473 80.4743 18.5146 80.4743 18.5969C80.4743 18.6791 80.4968 18.7464 80.5242 18.7464C80.5517 18.7464 80.5741 18.8137 80.5741 18.896C80.5741 18.9783 80.5966 19.0456 80.624 19.0456C80.6514 19.0456 80.6739 19.0905 80.6739 19.1453C80.6739 19.2001 80.6964 19.245 80.7238 19.245C80.7512 19.245 80.7737 19.3123 80.7737 19.3946C80.7737 19.4769 80.7961 19.5442 80.8236 19.5442C80.851 19.5442 80.8735 19.589 80.8735 19.6439C80.8735 19.6987 80.8959 19.7436 80.9234 19.7436C80.9508 19.7436 80.9733 19.7885 80.9733 19.8433C80.9733 19.8981 80.9957 19.943 81.0232 19.943C81.0506 19.943 81.0731 19.9879 81.0731 20.0427C81.0731 20.0976 81.0955 20.1425 81.123 20.1425C81.1504 20.1425 81.1729 20.1873 81.1729 20.2422C81.1729 20.297 81.1953 20.3419 81.2228 20.3419C81.2502 20.3419 81.2727 20.3818 81.2727 20.4306C81.2727 20.4794 81.3176 20.5516 81.3724 20.5912C81.4273 20.6307 81.4722 20.7029 81.4722 20.7518C81.4722 20.8005 81.4947 20.8405 81.5221 20.8405C81.5496 20.8405 81.572 20.8804 81.572 20.9292C81.572 20.978 81.6169 21.0502 81.6718 21.0897C81.7267 21.1293 81.7716 21.1921 81.7716 21.2293C81.7716 21.2665 81.8614 21.3832 81.9712 21.4886C82.081 21.594 82.1708 21.7046 82.1708 21.7344C82.1708 21.8058 83.6007 23.2336 83.6722 23.2336C83.7026 23.2336 83.7904 23.3009 83.8673 23.3832C83.9442 23.4655 84.034 23.5328 84.0669 23.5328C84.0997 23.5328 84.1896 23.6001 84.2664 23.6823C84.3433 23.7646 84.4422 23.8319 84.486 23.8319C84.53 23.8319 84.5658 23.8543 84.5658 23.8818C84.5658 23.9092 84.6058 23.9316 84.6546 23.9316C84.7034 23.9316 84.7757 23.9765 84.8153 24.0313C84.8549 24.0862 84.9272 24.1311 84.976 24.1311C85.0248 24.1311 85.0648 24.1535 85.0648 24.1809C85.0648 24.2083 85.1097 24.2308 85.1646 24.2308C85.2195 24.2308 85.2644 24.2532 85.2644 24.2806C85.2644 24.308 85.3093 24.3305 85.3642 24.3305C85.4191 24.3305 85.464 24.3529 85.464 24.3803C85.464 24.4078 85.5089 24.4302 85.5638 24.4302C85.6186 24.4302 85.6636 24.4526 85.6636 24.4801C85.6636 24.5075 85.7085 24.5299 85.7633 24.5299C85.8182 24.5299 85.8631 24.5524 85.8631 24.5798C85.8631 24.6072 85.9305 24.6296 86.0128 24.6296C86.0952 24.6296 86.1625 24.6521 86.1625 24.6795C86.1625 24.7069 86.2074 24.7293 86.2623 24.7293C86.3172 24.7293 86.3621 24.7518 86.3621 24.7792C86.3621 24.8066 86.4295 24.8291 86.5118 24.8291C86.5941 24.8291 86.6615 24.8515 86.6615 24.8789C86.6615 24.9063 86.7288 24.9288 86.8112 24.9288C86.8935 24.9288 86.9609 24.9512 86.9609 24.9786C86.9609 25.0061 87.0507 25.0285 87.1605 25.0285C87.2702 25.0285 87.36 25.0509 87.36 25.0783C87.36 25.1058 87.4499 25.1282 87.5596 25.1282C87.6694 25.1282 87.7592 25.1506 87.7592 25.1781C87.7592 25.2055 87.8715 25.2279 88.0087 25.2279C88.1459 25.2279 88.2582 25.2504 88.2582 25.2778C88.2582 25.3062 88.4079 25.3276 88.6075 25.3276C88.807 25.3276 88.9567 25.349 88.9567 25.3775C88.9567 25.4094 89.4058 25.4274 90.2041 25.4274C91.0025 25.4274 91.4516 25.4094 91.4516 25.3775C91.4516 25.349 91.6012 25.3276 91.8008 25.3276C92.0004 25.3276 92.1501 25.3062 92.1501 25.2778C92.1501 25.2504 92.2624 25.2279 92.3996 25.2279C92.5368 25.2279 92.6491 25.2055 92.6491 25.1781C92.6491 25.1506 92.7389 25.1282 92.8487 25.1282C92.9584 25.1282 93.0482 25.1058 93.0482 25.0783C93.0482 25.0509 93.1381 25.0285 93.2478 25.0285C93.3576 25.0285 93.4474 25.0061 93.4474 24.9786C93.4474 24.9512 93.5148 24.9288 93.5971 24.9288C93.6794 24.9288 93.7468 24.9063 93.7468 24.8789C93.7468 24.8515 93.8142 24.8291 93.8965 24.8291C93.9788 24.8291 94.0462 24.8066 94.0462 24.7792C94.0462 24.7518 94.1135 24.7293 94.1959 24.7293C94.2782 24.7293 94.3456 24.7069 94.3456 24.6795C94.3456 24.6521 94.4129 24.6296 94.4952 24.6296C94.5776 24.6296 94.6449 24.6072 94.6449 24.5798C94.6449 24.5524 94.6898 24.5299 94.7447 24.5299C94.7996 24.5299 94.8445 24.5075 94.8445 24.4801C94.8445 24.4526 94.8894 24.4302 94.9443 24.4302C94.9992 24.4302 95.0441 24.4078 95.0441 24.3803C95.0441 24.3529 95.089 24.3305 95.1439 24.3305C95.1988 24.3305 95.2437 24.308 95.2437 24.2806C95.2437 24.2532 95.2886 24.2308 95.3435 24.2308C95.3984 24.2308 95.4433 24.2083 95.4433 24.1809C95.4433 24.1535 95.4882 24.1311 95.5431 24.1311C95.598 24.1311 95.6429 24.1086 95.6429 24.0812C95.6429 24.0538 95.6828 24.0313 95.7316 24.0313C95.7805 24.0313 95.8528 23.9865 95.8924 23.9316C95.9319 23.8768 96.0042 23.8319 96.0531 23.8319C96.1019 23.8319 96.1418 23.8095 96.1418 23.7821C96.1418 23.7546 96.1777 23.7322 96.2216 23.7322C96.2655 23.7322 96.3643 23.6649 96.4412 23.5826C96.5181 23.5004 96.6079 23.433 96.6408 23.433C96.6737 23.433 96.7635 23.3657 96.8404 23.2835C96.9173 23.2012 97.0051 23.1339 97.0355 23.1339C97.1378 23.1339 98.3373 21.8934 98.3373 21.7876C98.3373 21.6843 97.3379 20.641 97.2389 20.641C97.2104 20.641 96.8733 20.3263 96.4898 19.9417L95.7925 19.2424L95.1452 19.8919C94.7892 20.249 94.4727 20.5413 94.4418 20.5413C94.4109 20.5413 94.3227 20.6086 94.2458 20.6909C94.1689 20.7731 94.07 20.8405 94.0262 20.8405C93.9823 20.8405 93.9464 20.8629 93.9464 20.8903C93.9464 20.9177 93.9064 20.9402 93.8576 20.9402C93.8088 20.9402 93.7365 20.985 93.6969 21.0399C93.6573 21.0947 93.585 21.1396 93.5362 21.1396C93.4874 21.1396 93.4474 21.162 93.4474 21.1895C93.4474 21.2169 93.4025 21.2393 93.3476 21.2393C93.2927 21.2393 93.2478 21.2618 93.2478 21.2892C93.2478 21.3166 93.2029 21.339 93.148 21.339C93.0932 21.339 93.0482 21.3615 93.0482 21.3889C93.0482 21.4163 92.9809 21.4387 92.8986 21.4387C92.8162 21.4387 92.7489 21.4612 92.7489 21.4886C92.7489 21.516 92.6815 21.5385 92.5992 21.5385C92.5168 21.5385 92.4495 21.5609 92.4495 21.5883C92.4495 21.6157 92.3821 21.6382 92.2998 21.6382C92.2175 21.6382 92.1501 21.6606 92.1501 21.688C92.1501 21.7155 92.0603 21.7379 91.9505 21.7379C91.8408 21.7379 91.7509 21.7603 91.7509 21.7877C91.7509 21.8162 91.6012 21.8376 91.4017 21.8376C91.2021 21.8376 91.0524 21.859 91.0524 21.8875C91.0524 21.9187 90.7364 21.9373 90.2041 21.9373C89.6719 21.9373 89.3559 21.9187 89.3559 21.8875C89.3559 21.8597 89.2228 21.8376 89.0565 21.8376C88.8902 21.8376 88.7571 21.8155 88.7571 21.7877C88.7571 21.7603 88.6673 21.7379 88.5576 21.7379C88.4478 21.7379 88.358 21.7155 88.358 21.688C88.358 21.6606 88.2906 21.6382 88.2083 21.6382C88.1259 21.6382 88.0586 21.6157 88.0586 21.5883C88.0586 21.5609 87.9912 21.5385 87.9089 21.5385C87.8266 21.5385 87.7592 21.516 87.7592 21.4886C87.7592 21.4612 87.7143 21.4387 87.6594 21.4387C87.6045 21.4387 87.5596 21.4163 87.5596 21.3889C87.5596 21.3615 87.5147 21.339 87.4598 21.339C87.4049 21.339 87.36 21.3166 87.36 21.2892C87.36 21.2618 87.3151 21.2393 87.2602 21.2393C87.2054 21.2393 87.1605 21.2169 87.1605 21.1895C87.1605 21.162 87.1155 21.1396 87.0607 21.1396C87.0058 21.1396 86.9609 21.1172 86.9609 21.0897C86.9609 21.0623 86.9209 21.0399 86.8721 21.0399C86.8232 21.0399 86.7509 20.995 86.7114 20.9402C86.6718 20.8853 86.6085 20.8405 86.5707 20.8405C86.5329 20.8405 86.439 20.7731 86.3621 20.6909C86.2852 20.6086 86.1973 20.5413 86.1668 20.5413C86.0944 20.5413 85.1646 19.6122 85.1646 19.5399C85.1646 19.5094 85.0972 19.4216 85.0149 19.3447C84.9326 19.2679 84.8652 19.1741 84.8652 19.1363C84.8652 19.0985 84.8203 19.0353 84.7654 18.9957C84.7105 18.9562 84.6656 18.8839 84.6656 18.8351C84.6656 18.7864 84.6432 18.7464 84.6157 18.7464C84.5883 18.7464 84.5658 18.7016 84.5658 18.6467C84.5658 18.5919 84.5434 18.547 84.5159 18.547C84.4885 18.547 84.466 18.5021 84.466 18.4473C84.466 18.3925 84.4436 18.3476 84.4161 18.3476C84.3887 18.3476 84.3662 18.3027 84.3662 18.2479C84.3662 18.193 84.3438 18.1481 84.3163 18.1481C84.2889 18.1481 84.2664 18.0808 84.2664 17.9986C84.2664 17.9163 84.244 17.849 84.2166 17.849C84.1891 17.849 84.1667 17.8041 84.1667 17.7493C84.1667 17.6944 84.1442 17.6496 84.1168 17.6496C84.0893 17.6496 84.0669 17.5598 84.0669 17.4501C84.0669 17.3405 84.0444 17.2507 84.017 17.2507C83.9895 17.2507 83.9671 17.161 83.9671 17.0513C83.9671 16.9416 83.9446 16.8519 83.9172 16.8519C83.8881 16.8519 83.8673 16.6857 83.8673 16.453V16.0541H91.4017H98.936V15.8048C98.936 15.6677 98.9585 15.5556 98.9859 15.5556C99.0144 15.5556 99.0358 15.406 99.0358 15.2066C99.0358 15.0071 99.0144 14.8575 98.9859 14.8575C98.9555 14.8575 98.936 14.6249 98.936 14.2593C98.936 13.8937 98.9166 13.661 98.8861 13.661C98.8577 13.661 98.8363 13.5114 98.8363 13.312C98.8363 13.1125 98.8148 12.963 98.7864 12.963C98.7589 12.963 98.7365 12.8732 98.7365 12.7635C98.7365 12.6538 98.714 12.5641 98.6866 12.5641C98.6591 12.5641 98.6367 12.4744 98.6367 12.3647C98.6367 12.255 98.6142 12.1652 98.5868 12.1652C98.5593 12.1652 98.5369 12.0755 98.5369 11.9658C98.5369 11.8561 98.5144 11.7664 98.487 11.7664C98.4595 11.7664 98.4371 11.6991 98.4371 11.6168C98.4371 11.5345 98.4146 11.4672 98.3872 11.4672C98.3597 11.4672 98.3373 11.3999 98.3373 11.3177C98.3373 11.2354 98.3148 11.1681 98.2874 11.1681C98.2599 11.1681 98.2375 11.1232 98.2375 11.0684C98.2375 11.0135 98.215 10.9687 98.1876 10.9687C98.1602 10.9687 98.1377 10.9014 98.1377 10.8191C98.1377 10.7368 98.1152 10.6695 98.0878 10.6695C98.0604 10.6695 98.0379 10.6246 98.0379 10.5698C98.0379 10.515 98.0154 10.4701 97.988 10.4701C97.9606 10.4701 97.9381 10.4252 97.9381 10.3704C97.9381 10.3155 97.9157 10.2707 97.8882 10.2707C97.8608 10.2707 97.8383 10.2258 97.8383 10.1709C97.8383 10.1161 97.8159 10.0712 97.7884 10.0712C97.761 10.0712 97.7385 10.0264 97.7385 9.97151C97.7385 9.91667 97.7161 9.87179 97.6886 9.87179C97.6612 9.87179 97.6387 9.82692 97.6387 9.77208C97.6387 9.71724 97.6163 9.67236 97.5888 9.67236C97.5614 9.67236 97.5389 9.63243 97.5389 9.58367C97.5389 9.53486 97.494 9.46261 97.4391 9.42308C97.3843 9.38354 97.3394 9.31623 97.3394 9.2735C97.3394 9.23078 97.2944 9.16347 97.2396 9.12393C97.1847 9.08439 97.1398 9.01709 97.1398 8.97436C97.1398 8.93163 97.0949 8.86432 97.04 8.82479C96.9851 8.78525 96.9402 8.72248 96.9402 8.68524C96.9402 8.64799 96.8504 8.53132 96.7406 8.42593C96.6308 8.32053 96.541 8.20984 96.541 8.17998C96.541 8.10903 95.5109 7.07977 95.4399 7.07977C95.41 7.07977 95.2993 6.99003 95.1938 6.88034C95.0883 6.77066 94.9716 6.68091 94.9343 6.68091C94.897 6.68091 94.8342 6.63604 94.7946 6.5812C94.7551 6.52635 94.6877 6.48148 94.6449 6.48148C94.6022 6.48148 94.5348 6.43661 94.4952 6.38177C94.4557 6.32692 94.3834 6.28205 94.3345 6.28205C94.2857 6.28205 94.2458 6.25962 94.2458 6.23219C94.2458 6.20477 94.2009 6.18234 94.146 6.18234C94.0911 6.18234 94.0462 6.1599 94.0462 6.13248C94.0462 6.10506 94.0013 6.08262 93.9464 6.08262C93.8915 6.08262 93.8466 6.06018 93.8466 6.03276C93.8466 6.00534 93.8017 5.98291 93.7468 5.98291C93.6919 5.98291 93.647 5.96047 93.647 5.93305C93.647 5.90563 93.6021 5.88319 93.5472 5.88319C93.4923 5.88319 93.4474 5.86075 93.4474 5.83333C93.4474 5.80591 93.4025 5.78348 93.3476 5.78348C93.2927 5.78348 93.2478 5.76104 93.2478 5.73362C93.2478 5.7062 93.2029 5.68376 93.148 5.68376C93.0932 5.68376 93.0482 5.66132 93.0482 5.6339C93.0482 5.60648 92.9809 5.58405 92.8986 5.58405C92.8162 5.58405 92.7489 5.56161 92.7489 5.53419C92.7489 5.50677 92.6815 5.48433 92.5992 5.48433C92.5168 5.48433 92.4495 5.46189 92.4495 5.43447C92.4495 5.40705 92.3821 5.38462 92.2998 5.38462C92.2175 5.38462 92.1501 5.36218 92.1501 5.33476C92.1501 5.30734 92.0603 5.2849 91.9505 5.2849C91.8408 5.2849 91.7509 5.26246 91.7509 5.23504C91.7509 5.20762 91.6387 5.18518 91.5015 5.18518C91.3642 5.18518 91.252 5.16275 91.252 5.13533C91.252 5.10761 91.1189 5.08547 90.9526 5.08547C90.7863 5.08547 90.6532 5.06333 90.6532 5.03561C90.6532 5.0038 90.2374 4.98575 89.5056 4.98575C88.7738 4.98575 88.358 5.0038 88.358 5.03561ZM111.111 5.03561C111.111 5.06333 110.978 5.08547 110.811 5.08547C110.645 5.08547 110.512 5.10761 110.512 5.13533C110.512 5.16275 110.422 5.18518 110.312 5.18518C110.203 5.18518 110.113 5.20762 110.113 5.23504C110.113 5.26246 110.023 5.2849 109.913 5.2849C109.804 5.2849 109.714 5.30734 109.714 5.33476C109.714 5.36218 109.646 5.38462 109.564 5.38462C109.482 5.38462 109.414 5.40705 109.414 5.43447C109.414 5.46189 109.347 5.48433 109.265 5.48433C109.182 5.48433 109.115 5.50677 109.115 5.53419C109.115 5.56161 109.07 5.58405 109.015 5.58405C108.96 5.58405 108.915 5.60648 108.915 5.6339C108.915 5.66132 108.87 5.68376 108.816 5.68376C108.761 5.68376 108.716 5.7062 108.716 5.73362C108.716 5.76104 108.671 5.78348 108.616 5.78348C108.561 5.78348 108.516 5.80591 108.516 5.83333C108.516 5.86075 108.471 5.88319 108.416 5.88319C108.362 5.88319 108.317 5.90563 108.317 5.93305C108.317 5.96047 108.272 5.98291 108.217 5.98291C108.162 5.98291 108.117 6.00534 108.117 6.03276C108.117 6.06018 108.077 6.08262 108.028 6.08262C107.979 6.08262 107.907 6.12749 107.868 6.18234C107.828 6.23718 107.765 6.28205 107.728 6.28205C107.691 6.28205 107.574 6.37179 107.468 6.48148C107.363 6.59117 107.252 6.68091 107.222 6.68091C107.151 6.68091 106.52 7.31051 106.52 7.38156C106.52 7.43835 106.399 7.57835 106.349 7.57835C106.334 7.57835 106.321 7.08476 106.321 6.48148V5.38462H104.375H102.429V15.2066V25.0285H104.425H106.421V18.547C106.421 14.2593 106.437 12.0655 106.47 12.0655C106.498 12.0655 106.52 12.0207 106.52 11.9658C106.52 11.911 106.543 11.8661 106.57 11.8661C106.598 11.8661 106.62 11.8302 106.62 11.7864C106.62 11.7425 106.687 11.6438 106.77 11.567C106.852 11.4901 106.92 11.4024 106.92 11.372C106.92 11.2942 108.152 10.0712 108.23 10.0712C108.266 10.0712 108.327 10.0264 108.367 9.97151C108.406 9.91667 108.473 9.87179 108.516 9.87179C108.559 9.87179 108.626 9.82692 108.666 9.77208C108.705 9.71724 108.773 9.67236 108.816 9.67236C108.858 9.67236 108.926 9.62749 108.965 9.57265C109.005 9.51781 109.077 9.47293 109.126 9.47293C109.175 9.47293 109.215 9.4505 109.215 9.42308C109.215 9.39566 109.26 9.37322 109.315 9.37322C109.369 9.37322 109.414 9.35078 109.414 9.32336C109.414 9.29594 109.459 9.2735 109.514 9.2735C109.569 9.2735 109.614 9.25107 109.614 9.22365C109.614 9.19623 109.681 9.17379 109.764 9.17379C109.846 9.17379 109.913 9.15135 109.913 9.12393C109.913 9.09651 109.981 9.07407 110.063 9.07407C110.145 9.07407 110.213 9.05164 110.213 9.02422C110.213 8.99679 110.28 8.97436 110.362 8.97436C110.445 8.97436 110.512 8.95192 110.512 8.9245C110.512 8.89708 110.624 8.87464 110.762 8.87464C110.899 8.87464 111.011 8.85221 111.011 8.82479C111.011 8.79353 111.327 8.77493 111.859 8.77493C112.392 8.77493 112.708 8.79353 112.708 8.82479C112.708 8.85251 112.841 8.87464 113.007 8.87464H113.306V8.72507C113.306 8.64281 113.329 8.5755 113.356 8.5755C113.385 8.5755 113.406 8.40932 113.406 8.17664C113.406 7.94395 113.427 7.77778 113.456 7.77778C113.485 7.77778 113.506 7.6116 113.506 7.37892C113.506 7.14623 113.527 6.98006 113.556 6.98006C113.585 6.98006 113.606 6.79723 113.606 6.53134C113.606 6.26545 113.626 6.08262 113.656 6.08262C113.685 6.08262 113.705 5.91779 113.705 5.6879C113.705 5.41797 113.725 5.2867 113.767 5.27259C113.889 5.23205 113.668 5.08547 113.484 5.08547C113.386 5.08547 113.306 5.06303 113.306 5.03561C113.306 5.0039 112.907 4.98575 112.209 4.98575C111.51 4.98575 111.111 5.0039 111.111 5.03561ZM124.982 5.03561C124.982 5.06333 124.849 5.08547 124.683 5.08547C124.516 5.08547 124.383 5.10761 124.383 5.13533C124.383 5.16275 124.293 5.18518 124.184 5.18518C124.074 5.18518 123.984 5.20762 123.984 5.23504C123.984 5.26246 123.894 5.2849 123.785 5.2849C123.675 5.2849 123.585 5.30734 123.585 5.33476C123.585 5.36218 123.518 5.38462 123.435 5.38462C123.353 5.38462 123.286 5.40705 123.286 5.43447C123.286 5.46189 123.218 5.48433 123.136 5.48433C123.054 5.48433 122.986 5.50677 122.986 5.53419C122.986 5.56161 122.919 5.58405 122.837 5.58405C122.754 5.58405 122.687 5.60648 122.687 5.6339C122.687 5.66132 122.642 5.68376 122.587 5.68376C122.532 5.68376 122.487 5.7062 122.487 5.73362C122.487 5.76104 122.442 5.78348 122.387 5.78348C122.333 5.78348 122.288 5.80591 122.288 5.83333C122.288 5.86075 122.243 5.88319 122.188 5.88319C122.133 5.88319 122.088 5.90563 122.088 5.93305C122.088 5.96047 122.043 5.98291 121.988 5.98291C121.933 5.98291 121.888 6.00534 121.888 6.03276C121.888 6.06018 121.844 6.08262 121.789 6.08262C121.734 6.08262 121.689 6.10506 121.689 6.13248C121.689 6.1599 121.649 6.18234 121.6 6.18234C121.551 6.18234 121.479 6.22721 121.439 6.28205C121.4 6.33689 121.337 6.38177 121.299 6.38177C121.261 6.38177 121.167 6.44907 121.09 6.53134C121.013 6.6136 120.924 6.68091 120.892 6.68091C120.859 6.68091 120.747 6.77066 120.641 6.88034C120.536 6.99003 120.414 7.07977 120.371 7.07977C120.327 7.07977 120.292 7.10221 120.292 7.12963C120.292 7.15705 120.269 7.17949 120.242 7.17949C120.21 7.17949 120.192 6.84709 120.192 6.28205V5.38462H118.246H116.3V15.2066V25.0285H118.296H120.292V18.2977C120.292 13.8438 120.309 11.567 120.342 11.567C120.369 11.567 120.392 11.533 120.392 11.4915C120.392 11.4054 121.309 10.4701 121.394 10.4701C121.424 10.4701 121.512 10.4028 121.589 10.3205C121.666 10.2382 121.756 10.1709 121.789 10.1709C121.822 10.1709 121.911 10.1036 121.988 10.0214C122.065 9.9391 122.164 9.87179 122.208 9.87179C122.252 9.87179 122.288 9.84936 122.288 9.82194C122.288 9.79452 122.328 9.77208 122.376 9.77208C122.425 9.77208 122.498 9.72721 122.537 9.67236C122.577 9.61752 122.649 9.57265 122.698 9.57265C122.747 9.57265 122.787 9.55021 122.787 9.52279C122.787 9.49537 122.832 9.47293 122.886 9.47293C122.941 9.47293 122.986 9.4505 122.986 9.42308C122.986 9.39566 123.031 9.37322 123.086 9.37322C123.141 9.37322 123.186 9.35078 123.186 9.32336C123.186 9.29594 123.253 9.2735 123.335 9.2735C123.418 9.2735 123.485 9.25107 123.485 9.22365C123.485 9.19623 123.553 9.17379 123.635 9.17379C123.717 9.17379 123.785 9.15135 123.785 9.12393C123.785 9.09651 123.852 9.07407 123.934 9.07407C124.017 9.07407 124.084 9.05164 124.084 9.02422C124.084 8.99679 124.174 8.97436 124.284 8.97436C124.393 8.97436 124.483 8.95192 124.483 8.9245C124.483 8.89678 124.616 8.87464 124.782 8.87464C124.949 8.87464 125.082 8.85251 125.082 8.82479C125.082 8.79362 125.381 8.77493 125.88 8.77493C126.379 8.77493 126.679 8.79362 126.679 8.82479C126.679 8.85251 126.812 8.87464 126.978 8.87464C127.144 8.87464 127.277 8.89678 127.277 8.9245C127.277 8.95192 127.345 8.97436 127.427 8.97436C127.509 8.97436 127.577 8.99679 127.577 9.02422C127.577 9.05164 127.644 9.07407 127.726 9.07407C127.809 9.07407 127.876 9.09651 127.876 9.12393C127.876 9.15135 127.921 9.17379 127.976 9.17379C128.031 9.17379 128.076 9.19623 128.076 9.22365C128.076 9.25107 128.121 9.2735 128.175 9.2735C128.23 9.2735 128.275 9.29594 128.275 9.32336C128.275 9.35078 128.32 9.37322 128.375 9.37322C128.43 9.37322 128.475 9.39566 128.475 9.42308C128.475 9.4505 128.52 9.47293 128.575 9.47293C128.63 9.47293 128.674 9.49537 128.674 9.52279C128.674 9.55021 128.71 9.57265 128.754 9.57265C128.798 9.57265 128.897 9.63996 128.974 9.72222C129.051 9.80449 129.139 9.87179 129.169 9.87179C129.247 9.87179 130.072 10.7038 130.072 10.7824C130.072 10.8179 130.116 10.8793 130.171 10.9188C130.226 10.9583 130.271 11.0256 130.271 11.0684C130.271 11.1111 130.316 11.1784 130.371 11.2179C130.426 11.2575 130.471 11.3297 130.471 11.3785C130.471 11.4273 130.493 11.4672 130.521 11.4672C130.548 11.4672 130.57 11.5121 130.57 11.567C130.57 11.6218 130.593 11.6667 130.62 11.6667C130.648 11.6667 130.67 11.734 130.67 11.8162C130.67 11.8985 130.693 11.9658 130.72 11.9658C130.748 11.9658 130.77 12.0331 130.77 12.1154C130.77 12.1976 130.793 12.265 130.82 12.265C130.847 12.265 130.87 12.3547 130.87 12.4644C130.87 12.5741 130.892 12.6638 130.92 12.6638C130.947 12.6638 130.97 12.776 130.97 12.9131C130.97 13.0502 130.992 13.1624 131.02 13.1624C131.049 13.1624 131.069 13.3618 131.069 13.661C131.069 13.9601 131.089 14.1595 131.119 14.1595C131.152 14.1595 131.169 16.0043 131.169 19.594V25.0285H133.165H135.161V19.4444C135.161 15.755 135.144 13.8604 135.111 13.8604C135.081 13.8604 135.061 13.661 135.061 13.3618C135.061 13.0627 135.041 12.8632 135.011 12.8632C134.984 12.8632 134.961 12.7303 134.961 12.5641C134.961 12.3979 134.939 12.265 134.911 12.265C134.884 12.265 134.862 12.1528 134.862 12.0157C134.862 11.8786 134.839 11.7664 134.812 11.7664C134.784 11.7664 134.762 11.6766 134.762 11.567C134.762 11.4573 134.739 11.3675 134.712 11.3675C134.684 11.3675 134.662 11.3002 134.662 11.2179C134.662 11.1357 134.64 11.0684 134.612 11.0684C134.585 11.0684 134.562 11.0011 134.562 10.9188C134.562 10.8365 134.54 10.7692 134.512 10.7692C134.485 10.7692 134.462 10.7019 134.462 10.6197C134.462 10.5374 134.44 10.4701 134.413 10.4701C134.385 10.4701 134.363 10.4252 134.363 10.3704C134.363 10.3155 134.34 10.2707 134.313 10.2707C134.285 10.2707 134.263 10.2033 134.263 10.1211C134.263 10.0388 134.24 9.97151 134.213 9.97151C134.185 9.97151 134.163 9.92664 134.163 9.87179C134.163 9.81695 134.141 9.77208 134.113 9.77208C134.086 9.77208 134.063 9.73214 134.063 9.68338C134.063 9.63457 134.018 9.56233 133.963 9.52279C133.909 9.48325 133.864 9.41101 133.864 9.3622C133.864 9.31344 133.841 9.2735 133.814 9.2735C133.786 9.2735 133.764 9.23357 133.764 9.18481C133.764 9.136 133.719 9.06375 133.664 9.02422C133.609 8.98468 133.564 8.92141 133.564 8.88362C133.564 8.84588 133.497 8.75204 133.415 8.67521C133.332 8.59838 133.265 8.51068 133.265 8.48032C133.265 8.40823 131.736 6.88034 131.664 6.88034C131.633 6.88034 131.546 6.81303 131.469 6.73077C131.392 6.6485 131.298 6.5812 131.26 6.5812C131.222 6.5812 131.159 6.53632 131.119 6.48148C131.08 6.42664 131.007 6.38177 130.959 6.38177C130.91 6.38177 130.87 6.35933 130.87 6.33191C130.87 6.30449 130.83 6.28205 130.781 6.28205C130.732 6.28205 130.66 6.23718 130.62 6.18234C130.581 6.12749 130.509 6.08262 130.46 6.08262C130.411 6.08262 130.371 6.06018 130.371 6.03276C130.371 6.00534 130.326 5.98291 130.271 5.98291C130.216 5.98291 130.171 5.96047 130.171 5.93305C130.171 5.90563 130.126 5.88319 130.072 5.88319C130.017 5.88319 129.972 5.86075 129.972 5.83333C129.972 5.80591 129.927 5.78348 129.872 5.78348C129.817 5.78348 129.772 5.76104 129.772 5.73362C129.772 5.7062 129.705 5.68376 129.622 5.68376C129.54 5.68376 129.473 5.66132 129.473 5.6339C129.473 5.60648 129.428 5.58405 129.373 5.58405C129.318 5.58405 129.273 5.56161 129.273 5.53419C129.273 5.50677 129.206 5.48433 129.123 5.48433C129.041 5.48433 128.974 5.46189 128.974 5.43447C128.974 5.40705 128.884 5.38462 128.774 5.38462C128.664 5.38462 128.575 5.36218 128.575 5.33476C128.575 5.30734 128.507 5.2849 128.425 5.2849C128.343 5.2849 128.275 5.26246 128.275 5.23504C128.275 5.20762 128.163 5.18518 128.026 5.18518C127.889 5.18518 127.776 5.16275 127.776 5.13533C127.776 5.10761 127.643 5.08547 127.477 5.08547C127.311 5.08547 127.178 5.06333 127.178 5.03561C127.178 5.0039 126.778 4.98575 126.08 4.98575C125.381 4.98575 124.982 5.0039 124.982 5.03561ZM90.3538 8.52564C90.3538 8.55306 90.4661 8.5755 90.6033 8.5755C90.7405 8.5755 90.8528 8.59793 90.8528 8.62536C90.8528 8.65278 90.9202 8.67521 91.0025 8.67521C91.0848 8.67521 91.1522 8.69765 91.1522 8.72507C91.1522 8.75249 91.2195 8.77493 91.3019 8.77493C91.3842 8.77493 91.4516 8.79736 91.4516 8.82479C91.4516 8.85221 91.4965 8.87464 91.5514 8.87464C91.6062 8.87464 91.6511 8.89708 91.6511 8.9245C91.6511 8.95192 91.6961 8.97436 91.7509 8.97436C91.8058 8.97436 91.8507 8.99679 91.8507 9.02422C91.8507 9.05164 91.8956 9.07407 91.9505 9.07407C92.0054 9.07407 92.0503 9.09651 92.0503 9.12393C92.0503 9.15135 92.0952 9.17379 92.1501 9.17379C92.205 9.17379 92.2499 9.19623 92.2499 9.22365C92.2499 9.25107 92.2899 9.2735 92.3387 9.2735C92.3875 9.2735 92.4598 9.31838 92.4994 9.37322C92.539 9.42806 92.6003 9.47293 92.6357 9.47293C92.7141 9.47293 93.8466 10.5961 93.8466 10.6739C93.8466 10.7043 93.914 10.7921 93.9963 10.8689C94.0786 10.9458 94.146 11.0445 94.146 11.0884C94.146 11.1322 94.1684 11.1681 94.1959 11.1681C94.2233 11.1681 94.2458 11.213 94.2458 11.2678C94.2458 11.3226 94.2682 11.3675 94.2957 11.3675C94.3231 11.3675 94.3456 11.4124 94.3456 11.4672C94.3456 11.5221 94.368 11.567 94.3955 11.567C94.4229 11.567 94.4454 11.6118 94.4454 11.6667C94.4454 11.7215 94.4678 11.7664 94.4952 11.7664C94.5227 11.7664 94.5451 11.8113 94.5451 11.8661C94.5451 11.9209 94.5676 11.9658 94.595 11.9658C94.6225 11.9658 94.6449 12.0331 94.6449 12.1154C94.6449 12.1976 94.6674 12.265 94.6948 12.265C94.7223 12.265 94.7447 12.3547 94.7447 12.4644V12.6638H89.4557C84.1999 12.6638 84.1667 12.6632 84.1667 12.5641C84.1667 12.5093 84.1891 12.4644 84.2166 12.4644C84.244 12.4644 84.2664 12.3971 84.2664 12.3148C84.2664 12.2325 84.2889 12.1652 84.3163 12.1652C84.3438 12.1652 84.3662 12.1204 84.3662 12.0655C84.3662 12.0107 84.3887 11.9658 84.4161 11.9658C84.4436 11.9658 84.466 11.9209 84.466 11.8661C84.466 11.8113 84.4885 11.7664 84.5159 11.7664C84.5434 11.7664 84.5658 11.7215 84.5658 11.6667C84.5658 11.6118 84.5883 11.567 84.6157 11.567C84.6432 11.567 84.6656 11.5221 84.6656 11.4672C84.6656 11.4124 84.6881 11.3675 84.7155 11.3675C84.743 11.3675 84.7654 11.3226 84.7654 11.2678C84.7654 11.213 84.7879 11.1681 84.8153 11.1681C84.8428 11.1681 84.8652 11.1322 84.8652 11.0884C84.8652 11.0445 84.9326 10.9458 85.0149 10.8689C85.0972 10.7921 85.1646 10.7043 85.1646 10.6738C85.1646 10.6015 86.0944 9.67236 86.1668 9.67236C86.1973 9.67236 86.2852 9.60506 86.3621 9.52279C86.439 9.44053 86.5378 9.37322 86.5817 9.37322C86.6256 9.37322 86.6615 9.35078 86.6615 9.32336C86.6615 9.29594 86.7064 9.2735 86.7613 9.2735C86.8162 9.2735 86.8611 9.25107 86.8611 9.22365C86.8611 9.19623 86.906 9.17379 86.9609 9.17379C87.0157 9.17379 87.0607 9.15135 87.0607 9.12393C87.0607 9.09651 87.1056 9.07407 87.1605 9.07407C87.2153 9.07407 87.2602 9.05164 87.2602 9.02422C87.2602 8.99679 87.3052 8.97436 87.36 8.97436C87.4149 8.97436 87.4598 8.95192 87.4598 8.9245C87.4598 8.89708 87.5047 8.87464 87.5596 8.87464C87.6145 8.87464 87.6594 8.85221 87.6594 8.82479C87.6594 8.79736 87.7268 8.77493 87.8091 8.77493C87.8914 8.77493 87.9588 8.75249 87.9588 8.72507C87.9588 8.69765 88.0486 8.67521 88.1584 8.67521C88.2682 8.67521 88.358 8.65278 88.358 8.62536C88.358 8.59764 88.491 8.5755 88.6573 8.5755C88.8237 8.5755 88.9567 8.55336 88.9567 8.52564C88.9567 8.49478 89.2228 8.47578 89.6553 8.47578C90.0877 8.47578 90.3538 8.49478 90.3538 8.52564ZM11.3176 8.82479C11.3176 8.85251 11.4507 8.87464 11.617 8.87464C11.7833 8.87464 11.9164 8.89678 11.9164 8.9245C11.9164 8.95192 12.0062 8.97436 12.116 8.97436C12.2258 8.97436 12.3156 8.99679 12.3156 9.02422C12.3156 9.05164 12.3829 9.07407 12.4653 9.07407C12.5476 9.07407 12.615 9.09651 12.615 9.12393C12.615 9.15135 12.6599 9.17379 12.7147 9.17379C12.7696 9.17379 12.8145 9.19623 12.8145 9.22365C12.8145 9.25107 12.8819 9.2735 12.9642 9.2735C13.0466 9.2735 13.1139 9.29594 13.1139 9.32336C13.1139 9.35078 13.1588 9.37322 13.2137 9.37322C13.2686 9.37322 13.3135 9.39566 13.3135 9.42308C13.3135 9.4505 13.3535 9.47293 13.4023 9.47293C13.4511 9.47293 13.5234 9.51781 13.563 9.57265C13.6026 9.62749 13.6749 9.67236 13.7237 9.67236C13.7725 9.67236 13.8125 9.6948 13.8125 9.72222C13.8125 9.74964 13.8483 9.77208 13.8923 9.77208C13.9361 9.77208 14.035 9.83939 14.1118 9.92165C14.1887 10.0039 14.2767 10.0712 14.3071 10.0712C14.3795 10.0712 15.3094 11.0003 15.3094 11.0727C15.3094 11.1031 15.3767 11.191 15.4591 11.2678C15.5414 11.3446 15.6087 11.4385 15.6087 11.4762C15.6087 11.514 15.6537 11.5773 15.7085 11.6168C15.7634 11.6563 15.8083 11.7286 15.8083 11.7774C15.8083 11.8262 15.8308 11.8661 15.8582 11.8661C15.8857 11.8661 15.9081 11.911 15.9081 11.9658C15.9081 12.0207 15.9306 12.0655 15.958 12.0655C15.9855 12.0655 16.0079 12.1104 16.0079 12.1652C16.0079 12.2201 16.0304 12.265 16.0578 12.265C16.0853 12.265 16.1077 12.3098 16.1077 12.3647C16.1077 12.4195 16.1302 12.4644 16.1576 12.4644C16.1851 12.4644 16.2075 12.5093 16.2075 12.5641C16.2075 12.6189 16.23 12.6638 16.2574 12.6638C16.2848 12.6638 16.3073 12.7311 16.3073 12.8134C16.3073 12.8957 16.3298 12.963 16.3572 12.963C16.3846 12.963 16.4071 13.0303 16.4071 13.1125C16.4071 13.1948 16.4295 13.2621 16.457 13.2621C16.4844 13.2621 16.5069 13.3519 16.5069 13.4615C16.5069 13.5712 16.5293 13.661 16.5568 13.661C16.5842 13.661 16.6067 13.7731 16.6067 13.9103C16.6067 14.0474 16.6291 14.1595 16.6566 14.1595C16.6882 14.1595 16.7065 14.5251 16.7065 15.1567C16.7065 15.7882 16.6882 16.1538 16.6566 16.1538C16.6288 16.1538 16.6067 16.2868 16.6067 16.453C16.6067 16.6192 16.5845 16.7521 16.5568 16.7521C16.5293 16.7521 16.5069 16.8419 16.5069 16.9516C16.5069 17.0613 16.4844 17.151 16.457 17.151C16.4295 17.151 16.4071 17.2183 16.4071 17.3006C16.4071 17.3828 16.3846 17.4501 16.3572 17.4501C16.3298 17.4501 16.3073 17.495 16.3073 17.5499C16.3073 17.6047 16.2848 17.6496 16.2574 17.6496C16.23 17.6496 16.2075 17.7169 16.2075 17.7991C16.2075 17.8814 16.1851 17.9487 16.1576 17.9487C16.1302 17.9487 16.1077 17.9936 16.1077 18.0484C16.1077 18.1033 16.0853 18.1481 16.0578 18.1481C16.0304 18.1481 16.0079 18.1881 16.0079 18.2368C16.0079 18.2857 15.963 18.3579 15.9081 18.3974C15.8532 18.437 15.8083 18.5092 15.8083 18.558C15.8083 18.6068 15.7859 18.6467 15.7584 18.6467C15.731 18.6467 15.7085 18.6826 15.7085 18.7264C15.7085 18.7703 15.6412 18.869 15.5588 18.9459C15.4765 19.0227 15.4092 19.1105 15.4092 19.1409C15.4092 19.2131 14.2795 20.3419 14.2072 20.3419C14.1768 20.3419 14.0889 20.4092 14.0121 20.4915C13.9352 20.5737 13.8363 20.641 13.7925 20.641C13.7486 20.641 13.7127 20.6635 13.7127 20.6909C13.7127 20.7183 13.6678 20.7407 13.6129 20.7407C13.558 20.7407 13.5131 20.7632 13.5131 20.7906C13.5131 20.818 13.4682 20.8405 13.4133 20.8405C13.3584 20.8405 13.3135 20.8629 13.3135 20.8903C13.3135 20.9177 13.2686 20.9402 13.2137 20.9402C13.1588 20.9402 13.1139 20.9626 13.1139 20.99C13.1139 21.0175 13.069 21.0399 13.0141 21.0399C12.9592 21.0399 12.9143 21.0623 12.9143 21.0897C12.9143 21.1172 12.8694 21.1396 12.8145 21.1396C12.7597 21.1396 12.7147 21.162 12.7147 21.1895C12.7147 21.2169 12.6474 21.2393 12.5651 21.2393C12.4827 21.2393 12.4154 21.2618 12.4154 21.2892C12.4154 21.3166 12.348 21.339 12.2657 21.339C12.1833 21.339 12.116 21.3615 12.116 21.3889C12.116 21.4163 12.0262 21.4387 11.9164 21.4387C11.8066 21.4387 11.7168 21.4612 11.7168 21.4886C11.7168 21.5163 11.5837 21.5385 11.4174 21.5385C11.2511 21.5385 11.1181 21.5606 11.1181 21.5883C11.1181 21.6196 10.8021 21.6382 10.2698 21.6382C9.73756 21.6382 9.42157 21.6196 9.42157 21.5883C9.42157 21.5606 9.28849 21.5385 9.12219 21.5385C8.95588 21.5385 8.82281 21.5163 8.82281 21.4886C8.82281 21.4612 8.733 21.4387 8.62322 21.4387C8.51345 21.4387 8.42364 21.4163 8.42364 21.3889C8.42364 21.3615 8.35628 21.339 8.27395 21.339C8.19162 21.339 8.12426 21.3166 8.12426 21.2892C8.12426 21.2618 8.07935 21.2393 8.02446 21.2393C7.96958 21.2393 7.92467 21.2169 7.92467 21.1895C7.92467 21.162 7.85731 21.1396 7.77498 21.1396C7.69265 21.1396 7.62529 21.1172 7.62529 21.0897C7.62529 21.0623 7.58038 21.0399 7.5255 21.0399C7.47061 21.0399 7.4257 21.0175 7.4257 20.99C7.4257 20.9626 7.3808 20.9402 7.32591 20.9402C7.27103 20.9402 7.22612 20.9177 7.22612 20.8903C7.22612 20.8629 7.18615 20.8405 7.13735 20.8405C7.0885 20.8405 7.0162 20.7956 6.97664 20.7407C6.93707 20.6859 6.86477 20.641 6.81592 20.641C6.76712 20.641 6.72715 20.6186 6.72715 20.5912C6.72715 20.5637 6.69128 20.5413 6.64737 20.5413C6.60351 20.5413 6.50466 20.474 6.42777 20.3917C6.35088 20.3095 6.26306 20.2422 6.23263 20.2422C6.14805 20.2422 4.93088 19.0072 4.93088 18.9214C4.93088 18.88 4.90842 18.8462 4.88098 18.8462C4.84815 18.8462 4.83108 17.5997 4.83108 15.2066C4.83108 12.8134 4.84815 11.567 4.88098 11.567C4.90842 11.567 4.93088 11.533 4.93088 11.4916C4.93088 11.4058 6.04826 10.2707 6.13278 10.2707C6.16322 10.2707 6.25109 10.2033 6.32798 10.1211C6.40487 10.0388 6.49878 9.97151 6.53655 9.97151C6.57437 9.97151 6.63769 9.92664 6.67726 9.87179C6.71682 9.81695 6.78912 9.77208 6.83797 9.77208C6.88677 9.77208 6.92674 9.74964 6.92674 9.72222C6.92674 9.6948 6.97165 9.67236 7.02653 9.67236C7.08142 9.67236 7.12633 9.64993 7.12633 9.62251C7.12633 9.59509 7.17123 9.57265 7.22612 9.57265C7.281 9.57265 7.32591 9.55021 7.32591 9.52279C7.32591 9.49537 7.37082 9.47293 7.4257 9.47293C7.48059 9.47293 7.5255 9.4505 7.5255 9.42308C7.5255 9.39566 7.57041 9.37322 7.62529 9.37322C7.68018 9.37322 7.72508 9.35078 7.72508 9.32336C7.72508 9.29594 7.76999 9.2735 7.82488 9.2735C7.87976 9.2735 7.92467 9.25107 7.92467 9.22365C7.92467 9.19623 7.99203 9.17379 8.07436 9.17379C8.15669 9.17379 8.22405 9.15135 8.22405 9.12393C8.22405 9.09651 8.29141 9.07407 8.37374 9.07407C8.45607 9.07407 8.52343 9.05164 8.52343 9.02422C8.52343 8.99679 8.61324 8.97436 8.72302 8.97436C8.83279 8.97436 8.9226 8.95192 8.9226 8.9245C8.9226 8.89678 9.05568 8.87464 9.22198 8.87464C9.38829 8.87464 9.52136 8.85251 9.52136 8.82479C9.52136 8.79338 9.85402 8.77493 10.4195 8.77493C10.985 8.77493 11.3176 8.79338 11.3176 8.82479ZM33.9707 8.82479C33.9707 8.85251 34.1038 8.87464 34.2701 8.87464C34.4364 8.87464 34.5694 8.89678 34.5694 8.9245C34.5694 8.95192 34.6593 8.97436 34.769 8.97436C34.8788 8.97436 34.9686 8.99679 34.9686 9.02422C34.9686 9.05164 35.0584 9.07407 35.1682 9.07407C35.278 9.07407 35.3678 9.09651 35.3678 9.12393C35.3678 9.15135 35.4127 9.17379 35.4676 9.17379C35.5225 9.17379 35.5674 9.19623 35.5674 9.22365C35.5674 9.25107 35.6347 9.2735 35.7171 9.2735C35.7994 9.2735 35.8668 9.29594 35.8668 9.32336C35.8668 9.35078 35.9117 9.37322 35.9666 9.37322C36.0214 9.37322 36.0663 9.39566 36.0663 9.42308C36.0663 9.4505 36.1113 9.47293 36.1661 9.47293C36.221 9.47293 36.2659 9.49537 36.2659 9.52279C36.2659 9.55021 36.3108 9.57265 36.3657 9.57265C36.4206 9.57265 36.4655 9.59509 36.4655 9.62251C36.4655 9.64993 36.5055 9.67236 36.5543 9.67236C36.6031 9.67236 36.6754 9.71724 36.715 9.77208C36.7546 9.82692 36.8219 9.87179 36.8647 9.87179C36.9075 9.87179 36.9748 9.91667 37.0144 9.97151C37.0539 10.0264 37.1173 10.0712 37.1551 10.0712C37.1929 10.0712 37.2868 10.1385 37.3637 10.2208C37.4405 10.3031 37.5285 10.3704 37.559 10.3704C37.6434 10.3704 38.5612 11.3057 38.5612 11.3918C38.5612 11.4333 38.5836 11.4672 38.6111 11.4672C38.6439 11.4672 38.661 12.7469 38.661 15.2066C38.661 17.6662 38.6439 18.9459 38.6111 18.9459C38.5836 18.9459 38.5612 18.9798 38.5612 19.0212C38.5612 19.1127 37.441 20.2422 37.3502 20.2422C37.3149 20.2422 37.2535 20.287 37.214 20.3419C37.1744 20.3967 37.107 20.4416 37.0643 20.4416C37.0215 20.4416 36.9542 20.4865 36.9146 20.5413C36.875 20.5962 36.8077 20.641 36.7649 20.641C36.7221 20.641 36.6548 20.6859 36.6152 20.7407C36.5756 20.7956 36.5033 20.8405 36.4545 20.8405C36.4057 20.8405 36.3657 20.8629 36.3657 20.8903C36.3657 20.9177 36.3208 20.9402 36.2659 20.9402C36.211 20.9402 36.1661 20.9626 36.1661 20.99C36.1661 21.0175 36.1212 21.0399 36.0663 21.0399C36.0115 21.0399 35.9666 21.0623 35.9666 21.0897C35.9666 21.1172 35.8992 21.1396 35.8169 21.1396C35.7345 21.1396 35.6672 21.162 35.6672 21.1895C35.6672 21.2169 35.6223 21.2393 35.5674 21.2393C35.5125 21.2393 35.4676 21.2618 35.4676 21.2892C35.4676 21.3166 35.4002 21.339 35.3179 21.339C35.2356 21.339 35.1682 21.3615 35.1682 21.3889C35.1682 21.4163 35.0784 21.4387 34.9686 21.4387C34.8588 21.4387 34.769 21.4612 34.769 21.4886C34.769 21.5163 34.636 21.5385 34.4697 21.5385C34.3033 21.5385 34.1703 21.5606 34.1703 21.5883C34.1703 21.6196 33.8543 21.6382 33.322 21.6382C32.7898 21.6382 32.4738 21.6196 32.4738 21.5883C32.4738 21.5606 32.3407 21.5385 32.1744 21.5385C32.0081 21.5385 31.875 21.5163 31.875 21.4886C31.875 21.4612 31.7852 21.4387 31.6754 21.4387C31.5657 21.4387 31.4759 21.4163 31.4759 21.3889C31.4759 21.3615 31.386 21.339 31.2763 21.339C31.1665 21.339 31.0767 21.3166 31.0767 21.2892C31.0767 21.2618 31.0318 21.2393 30.9769 21.2393C30.922 21.2393 30.8771 21.2169 30.8771 21.1895C30.8771 21.162 30.8097 21.1396 30.7274 21.1396C30.6451 21.1396 30.5777 21.1172 30.5777 21.0897C30.5777 21.0623 30.5328 21.0399 30.4779 21.0399C30.423 21.0399 30.3781 21.0175 30.3781 20.99C30.3781 20.9626 30.3382 20.9402 30.2894 20.9402C30.2405 20.9402 30.1682 20.8953 30.1287 20.8405C30.0891 20.7856 30.0168 20.7407 29.9679 20.7407C29.9191 20.7407 29.8792 20.7183 29.8792 20.6909C29.8792 20.6635 29.8392 20.641 29.7904 20.641C29.7416 20.641 29.6693 20.5962 29.6297 20.5413C29.5901 20.4865 29.5273 20.4416 29.49 20.4416C29.4528 20.4416 29.336 20.3519 29.2305 20.2422C29.125 20.1325 29.014 20.0427 28.9836 20.0427C28.9119 20.0427 28.4821 19.6133 28.4821 19.5416C28.4821 19.5113 28.3923 19.4003 28.2825 19.2949C28.1727 19.1895 28.0829 19.0728 28.0829 19.0356C28.0829 18.9983 28.038 18.9355 27.9831 18.896C27.9282 18.8565 27.8833 18.7892 27.8833 18.7464C27.8833 18.7037 27.8384 18.6364 27.7835 18.5969C27.7286 18.5573 27.6837 18.4851 27.6837 18.4363C27.6837 18.3875 27.6613 18.3476 27.6338 18.3476C27.6064 18.3476 27.5839 18.3027 27.5839 18.2479C27.5839 18.193 27.5615 18.1481 27.534 18.1481C27.5066 18.1481 27.4841 18.1033 27.4841 18.0484C27.4841 17.9936 27.4617 17.9487 27.4342 17.9487C27.4068 17.9487 27.3843 17.9038 27.3843 17.849C27.3843 17.7942 27.3619 17.7493 27.3344 17.7493C27.307 17.7493 27.2845 17.682 27.2845 17.5997C27.2845 17.5175 27.2621 17.4501 27.2346 17.4501C27.2072 17.4501 27.1848 17.3828 27.1848 17.3006C27.1848 17.2183 27.1623 17.151 27.1349 17.151C27.1074 17.151 27.085 17.0837 27.085 17.0014C27.085 16.9192 27.0625 16.8519 27.0351 16.8519C27.0076 16.8519 26.9852 16.7397 26.9852 16.6026C26.9852 16.4655 26.9627 16.3533 26.9353 16.3533C26.9034 16.3533 26.8854 15.9378 26.8854 15.2066C26.8854 14.4753 26.9034 14.0598 26.9353 14.0598C26.9627 14.0598 26.9852 13.9476 26.9852 13.8105C26.9852 13.6734 27.0076 13.5613 27.0351 13.5613C27.0625 13.5613 27.085 13.4715 27.085 13.3618C27.085 13.2521 27.1074 13.1624 27.1349 13.1624C27.1623 13.1624 27.1848 13.0951 27.1848 13.0128C27.1848 12.9306 27.2072 12.8632 27.2346 12.8632C27.2621 12.8632 27.2845 12.8184 27.2845 12.7635C27.2845 12.7087 27.307 12.6638 27.3344 12.6638C27.3619 12.6638 27.3843 12.6189 27.3843 12.5641C27.3843 12.5093 27.4068 12.4644 27.4342 12.4644C27.4617 12.4644 27.4841 12.3971 27.4841 12.3148C27.4841 12.2325 27.5066 12.1652 27.534 12.1652C27.5615 12.1652 27.5839 12.1253 27.5839 12.0765C27.5839 12.0277 27.6288 11.9555 27.6837 11.916C27.7386 11.8764 27.7835 11.8042 27.7835 11.7554C27.7835 11.7066 27.806 11.6667 27.8334 11.6667C27.8609 11.6667 27.8833 11.6308 27.8833 11.5869C27.8833 11.5431 27.9507 11.4444 28.033 11.3675C28.1153 11.2907 28.1827 11.2029 28.1827 11.1725C28.1827 11.0947 29.3152 9.97151 29.3936 9.97151C29.429 9.97151 29.4903 9.92664 29.5299 9.87179C29.5695 9.81695 29.6368 9.77208 29.6796 9.77208C29.7223 9.77208 29.7897 9.72721 29.8293 9.67236C29.8688 9.61752 29.9411 9.57265 29.99 9.57265C30.0388 9.57265 30.0788 9.55021 30.0788 9.52279C30.0788 9.49537 30.1237 9.47293 30.1785 9.47293C30.2334 9.47293 30.2783 9.4505 30.2783 9.42308C30.2783 9.39566 30.3232 9.37322 30.3781 9.37322C30.433 9.37322 30.4779 9.35078 30.4779 9.32336C30.4779 9.29594 30.5228 9.2735 30.5777 9.2735C30.6326 9.2735 30.6775 9.25107 30.6775 9.22365C30.6775 9.19623 30.7449 9.17379 30.8272 9.17379C30.9095 9.17379 30.9769 9.15135 30.9769 9.12393C30.9769 9.09651 31.0443 9.07407 31.1266 9.07407C31.2089 9.07407 31.2763 9.05164 31.2763 9.02422C31.2763 8.99679 31.3661 8.97436 31.4759 8.97436C31.5856 8.97436 31.6754 8.95192 31.6754 8.9245C31.6754 8.89678 31.8085 8.87464 31.9748 8.87464C32.1411 8.87464 32.2742 8.85251 32.2742 8.82479C32.2742 8.79353 32.5902 8.77493 33.1224 8.77493C33.6547 8.77493 33.9707 8.79353 33.9707 8.82479ZM10.3197 31.0613C10.3197 31.0887 10.2523 31.1111 10.17 31.1111C10.0877 31.1111 10.0203 31.1335 10.0203 31.161C10.0203 31.1884 9.97542 31.2108 9.92053 31.2108C9.86565 31.2108 9.82074 31.2333 9.82074 31.2607C9.82074 31.2881 9.78656 31.3105 9.7448 31.3105C9.646 31.3105 9.12219 31.8339 9.12219 31.9327C9.12219 31.9744 9.09974 32.0085 9.07229 32.0085C9.04485 32.0085 9.0224 32.0534 9.0224 32.1083C9.0224 32.1631 8.99994 32.208 8.9725 32.208C8.94506 32.208 8.9226 32.2753 8.9226 32.3575C8.9226 32.4398 8.90015 32.5071 8.87271 32.5071C8.84277 32.5071 8.82281 32.7066 8.82281 33.0057C8.82281 33.3048 8.84277 33.5043 8.87271 33.5043C8.90015 33.5043 8.9226 33.5716 8.9226 33.6538C8.9226 33.7361 8.94506 33.8034 8.9725 33.8034C8.99994 33.8034 9.0224 33.8483 9.0224 33.9031C9.0224 33.958 9.04485 34.0028 9.07229 34.0028C9.09974 34.0028 9.12219 34.037 9.12219 34.0787C9.12219 34.1774 9.646 34.7009 9.7448 34.7009C9.78656 34.7009 9.82074 34.7233 9.82074 34.7507C9.82074 34.7781 9.86565 34.8006 9.92053 34.8006C9.97542 34.8006 10.0203 34.823 10.0203 34.8504C10.0203 34.8778 10.0877 34.9003 10.17 34.9003C10.2523 34.9003 10.3197 34.9227 10.3197 34.9501C10.3197 34.9801 10.5193 35 10.8187 35C11.1181 35 11.3176 34.9801 11.3176 34.9501C11.3176 34.9227 11.385 34.9003 11.4673 34.9003C11.5497 34.9003 11.617 34.8778 11.617 34.8504C11.617 34.823 11.6619 34.8006 11.7168 34.8006C11.7717 34.8006 11.8166 34.7781 11.8166 34.7507C11.8166 34.7233 11.8508 34.7009 11.8925 34.7009C11.9913 34.7009 12.5152 34.1774 12.5152 34.0787C12.5152 34.037 12.5376 34.0028 12.5651 34.0028C12.5925 34.0028 12.615 33.958 12.615 33.9031C12.615 33.8483 12.6374 33.8034 12.6648 33.8034C12.6923 33.8034 12.7147 33.7361 12.7147 33.6538C12.7147 33.5716 12.7372 33.5043 12.7646 33.5043C12.7946 33.5043 12.8145 33.3048 12.8145 33.0057C12.8145 32.7066 12.7946 32.5071 12.7646 32.5071C12.7372 32.5071 12.7147 32.4398 12.7147 32.3575C12.7147 32.2753 12.6923 32.208 12.6648 32.208C12.6374 32.208 12.615 32.1631 12.615 32.1083C12.615 32.0534 12.5925 32.0085 12.5651 32.0085C12.5376 32.0085 12.5152 31.9744 12.5152 31.9327C12.5152 31.8339 11.9913 31.3105 11.8925 31.3105C11.8508 31.3105 11.8166 31.2881 11.8166 31.2607C11.8166 31.2333 11.7717 31.2108 11.7168 31.2108C11.6619 31.2108 11.617 31.1884 11.617 31.161C11.617 31.1335 11.5497 31.1111 11.4673 31.1111C11.385 31.1111 11.3176 31.0887 11.3176 31.0613C11.3176 31.0313 11.1181 31.0114 10.8187 31.0114C10.5193 31.0114 10.3197 31.0313 10.3197 31.0613ZM16.8063 33.0057V35H25.7876H34.769V33.0057V31.0114H25.7876H16.8063V33.0057ZM40.2577 31.0613C40.2577 31.0887 40.1903 31.1111 40.108 31.1111C40.0256 31.1111 39.9583 31.1335 39.9583 31.161C39.9583 31.1884 39.9134 31.2108 39.8585 31.2108C39.8036 31.2108 39.7587 31.2333 39.7587 31.2607C39.7587 31.2881 39.7245 31.3105 39.6828 31.3105C39.584 31.3105 39.0601 31.8339 39.0601 31.9327C39.0601 31.9744 39.0377 32.0085 39.0102 32.0085C38.9828 32.0085 38.9603 32.0534 38.9603 32.1083C38.9603 32.1631 38.9379 32.208 38.9104 32.208C38.883 32.208 38.8606 32.2753 38.8606 32.3575C38.8606 32.4398 38.8381 32.5071 38.8107 32.5071C38.7807 32.5071 38.7608 32.7066 38.7608 33.0057C38.7608 33.3048 38.7807 33.5043 38.8107 33.5043C38.8381 33.5043 38.8606 33.5716 38.8606 33.6538C38.8606 33.7361 38.883 33.8034 38.9104 33.8034C38.9379 33.8034 38.9603 33.8483 38.9603 33.9031C38.9603 33.958 38.9828 34.0028 39.0102 34.0028C39.0377 34.0028 39.0601 34.037 39.0601 34.0787C39.0601 34.1774 39.584 34.7009 39.6828 34.7009C39.7245 34.7009 39.7587 34.7233 39.7587 34.7507C39.7587 34.7781 39.8036 34.8006 39.8585 34.8006C39.9134 34.8006 39.9583 34.823 39.9583 34.8504C39.9583 34.8778 40.0256 34.9003 40.108 34.9003C40.1903 34.9003 40.2577 34.9227 40.2577 34.9501C40.2577 34.9801 40.4572 35 40.7566 35C41.056 35 41.2556 34.9801 41.2556 34.9501C41.2556 34.9227 41.323 34.9003 41.4053 34.9003C41.4876 34.9003 41.555 34.8778 41.555 34.8504C41.555 34.823 41.5999 34.8006 41.6548 34.8006C41.7096 34.8006 41.7546 34.7781 41.7546 34.7507C41.7546 34.7233 41.7887 34.7009 41.8305 34.7009C41.9293 34.7009 42.4531 34.1774 42.4531 34.0787C42.4531 34.037 42.4756 34.0028 42.503 34.0028C42.5304 34.0028 42.5529 33.958 42.5529 33.9031C42.5529 33.8483 42.5754 33.8034 42.6028 33.8034C42.6302 33.8034 42.6527 33.7361 42.6527 33.6538C42.6527 33.5716 42.6751 33.5043 42.7026 33.5043C42.7325 33.5043 42.7525 33.3048 42.7525 33.0057C42.7525 32.7066 42.7325 32.5071 42.7026 32.5071C42.6751 32.5071 42.6527 32.4398 42.6527 32.3575C42.6527 32.2753 42.6302 32.208 42.6028 32.208C42.5754 32.208 42.5529 32.1631 42.5529 32.1083C42.5529 32.0534 42.5304 32.0085 42.503 32.0085C42.4756 32.0085 42.4531 31.9744 42.4531 31.9327C42.4531 31.8339 41.9293 31.3105 41.8305 31.3105C41.7887 31.3105 41.7546 31.2881 41.7546 31.2607C41.7546 31.2333 41.7096 31.2108 41.6548 31.2108C41.5999 31.2108 41.555 31.1884 41.555 31.161C41.555 31.1335 41.4876 31.1111 41.4053 31.1111C41.323 31.1111 41.2556 31.0887 41.2556 31.0613C41.2556 31.0313 41.056 31.0114 40.7566 31.0114C40.4572 31.0114 40.2577 31.0313 40.2577 31.0613ZM46.7442 33.0057V35H72.6405H98.5369V33.0057V31.0114H72.6405H46.7442V33.0057ZM103.926 31.0613C103.926 31.0887 103.858 31.1111 103.776 31.1111C103.694 31.1111 103.626 31.1335 103.626 31.161C103.626 31.1884 103.59 31.2108 103.547 31.2108C103.503 31.2108 103.404 31.2781 103.327 31.3604C103.25 31.4427 103.161 31.51 103.129 31.51C103.049 31.51 102.928 31.637 102.928 31.7198C102.928 31.7568 102.883 31.8194 102.828 31.859C102.773 31.8985 102.728 31.9708 102.728 32.0196C102.728 32.0683 102.706 32.1083 102.678 32.1083C102.651 32.1083 102.628 32.1531 102.628 32.208C102.628 32.2628 102.606 32.3077 102.578 32.3077C102.551 32.3077 102.529 32.3974 102.529 32.5071C102.529 32.6168 102.506 32.7066 102.479 32.7066C102.451 32.7066 102.429 32.8395 102.429 33.0057C102.429 33.1719 102.451 33.3048 102.479 33.3048C102.506 33.3048 102.529 33.3946 102.529 33.5043C102.529 33.614 102.551 33.7037 102.578 33.7037C102.606 33.7037 102.628 33.7486 102.628 33.8034C102.628 33.8583 102.651 33.9031 102.678 33.9031C102.706 33.9031 102.728 33.9431 102.728 33.9918C102.728 34.0406 102.773 34.1129 102.828 34.1524C102.883 34.192 102.928 34.254 102.928 34.2903C102.928 34.3759 103.153 34.6011 103.239 34.6011C103.275 34.6011 103.337 34.646 103.377 34.7009C103.416 34.7557 103.489 34.8006 103.538 34.8006C103.586 34.8006 103.626 34.823 103.626 34.8504C103.626 34.8778 103.694 34.9003 103.776 34.9003C103.858 34.9003 103.926 34.9227 103.926 34.9501C103.926 34.9804 104.142 35 104.475 35C104.807 35 105.023 34.9804 105.023 34.9501C105.023 34.9227 105.091 34.9003 105.173 34.9003C105.255 34.9003 105.323 34.8778 105.323 34.8504C105.323 34.823 105.357 34.8006 105.398 34.8006C105.497 34.8006 106.221 34.0772 106.221 33.9787C106.221 33.9371 106.243 33.9031 106.271 33.9031C106.298 33.9031 106.321 33.8583 106.321 33.8034C106.321 33.7486 106.343 33.7037 106.371 33.7037C106.398 33.7037 106.421 33.5915 106.421 33.4544C106.421 33.3173 106.443 33.2051 106.47 33.2051C106.498 33.2051 106.52 33.1154 106.52 33.0057C106.52 32.896 106.498 32.8063 106.47 32.8063C106.443 32.8063 106.421 32.6941 106.421 32.557C106.421 32.4199 106.398 32.3077 106.371 32.3077C106.343 32.3077 106.321 32.2628 106.321 32.208C106.321 32.1531 106.298 32.1083 106.271 32.1083C106.243 32.1083 106.221 32.0743 106.221 32.0327C106.221 31.9342 105.497 31.2108 105.398 31.2108C105.357 31.2108 105.323 31.1884 105.323 31.161C105.323 31.1335 105.255 31.1111 105.173 31.1111C105.091 31.1111 105.023 31.0887 105.023 31.0613C105.023 31.031 104.807 31.0114 104.475 31.0114C104.142 31.0114 103.926 31.031 103.926 31.0613ZM110.412 33.0057V35H118.745H127.078V33.0057V31.0114H118.745H110.412V33.0057ZM132.666 31.0613C132.666 31.0887 132.599 31.1111 132.516 31.1111C132.434 31.1111 132.367 31.1335 132.367 31.161C132.367 31.1884 132.322 31.2108 132.267 31.2108C132.212 31.2108 132.167 31.2333 132.167 31.2607C132.167 31.2881 132.133 31.3105 132.091 31.3105C131.992 31.3105 131.469 31.8339 131.469 31.9327C131.469 31.9744 131.446 32.0085 131.419 32.0085C131.391 32.0085 131.369 32.0534 131.369 32.1083C131.369 32.1631 131.346 32.208 131.319 32.208C131.291 32.208 131.269 32.2753 131.269 32.3575C131.269 32.4398 131.247 32.5071 131.219 32.5071C131.189 32.5071 131.169 32.7066 131.169 33.0057C131.169 33.3048 131.189 33.5043 131.219 33.5043C131.247 33.5043 131.269 33.5716 131.269 33.6538C131.269 33.7361 131.291 33.8034 131.319 33.8034C131.346 33.8034 131.369 33.8483 131.369 33.9031C131.369 33.958 131.391 34.0028 131.419 34.0028C131.446 34.0028 131.469 34.037 131.469 34.0787C131.469 34.1774 131.992 34.7009 132.091 34.7009C132.133 34.7009 132.167 34.7233 132.167 34.7507C132.167 34.7781 132.212 34.8006 132.267 34.8006C132.322 34.8006 132.367 34.823 132.367 34.8504C132.367 34.8778 132.434 34.9003 132.516 34.9003C132.599 34.9003 132.666 34.9227 132.666 34.9501C132.666 34.9801 132.866 35 133.165 35C133.464 35 133.664 34.9801 133.664 34.9501C133.664 34.9227 133.731 34.9003 133.814 34.9003C133.896 34.9003 133.963 34.8778 133.963 34.8504C133.963 34.823 134.008 34.8006 134.063 34.8006C134.118 34.8006 134.163 34.7781 134.163 34.7507C134.163 34.7233 134.197 34.7009 134.239 34.7009C134.338 34.7009 134.862 34.1774 134.862 34.0787C134.862 34.037 134.884 34.0028 134.911 34.0028C134.939 34.0028 134.961 33.958 134.961 33.9031C134.961 33.8483 134.984 33.8034 135.011 33.8034C135.039 33.8034 135.061 33.7585 135.061 33.7037C135.061 33.6489 135.084 33.604 135.111 33.604C135.142 33.604 135.161 33.3713 135.161 33.0057C135.161 32.6401 135.142 32.4074 135.111 32.4074C135.084 32.4074 135.061 32.3625 135.061 32.3077C135.061 32.2528 135.039 32.208 135.011 32.208C134.984 32.208 134.961 32.1631 134.961 32.1083C134.961 32.0534 134.939 32.0085 134.911 32.0085C134.884 32.0085 134.862 31.9744 134.862 31.9327C134.862 31.8339 134.338 31.3105 134.239 31.3105C134.197 31.3105 134.163 31.2881 134.163 31.2607C134.163 31.2333 134.118 31.2108 134.063 31.2108C134.008 31.2108 133.963 31.1884 133.963 31.161C133.963 31.1335 133.896 31.1111 133.814 31.1111C133.731 31.1111 133.664 31.0887 133.664 31.0613C133.664 31.0313 133.464 31.0114 133.165 31.0114C132.866 31.0114 132.666 31.0313 132.666 31.0613Z" fill="white"/>
</svg>
