<svg width="160" height="32" viewBox="0 0 160 32" fill="none" xmlns="http://www.w3.org/2000/svg">
<path fill-rule="evenodd" clip-rule="evenodd" d="M98.9343 1.17104C97.7947 2.31658 97.6066 3.32663 98.2915 4.61977C98.9387 5.84131 99.7445 6.31495 101.196 6.3278C103.054 6.34432 104.441 5.17344 104.441 3.58915C104.441 1.85542 104.136 1.24961 102.954 0.634985C101.361 -0.19296 100.128 -0.028473 98.9343 1.17104ZM6.40225 10.0545C3.03238 10.849 0.98913 13.1823 0.98913 16.2363C0.98913 19.5503 2.60065 21.0637 7.61454 22.4604C10.5655 23.2825 11.6689 24.0333 11.6605 25.2134C11.6422 27.7325 8.39801 28.3735 4.9708 26.5352L2.92098 25.4359L1.61372 26.5895C-0.215851 28.2039 0.00768673 29.0006 2.67333 30.369C4.27901 31.1933 5.45586 31.5076 7.33731 31.6145C13.386 31.9577 16.7818 29.5073 16.7781 24.8011C16.7755 21.5734 15.1063 19.9692 10.3766 18.6489C9.17711 18.3141 7.74201 17.8651 7.18682 17.6506C6.15314 17.2519 5.56873 15.9764 5.9559 14.963C6.52059 13.4837 10.3865 13.3453 12.3282 14.7354C13.7326 15.7407 13.8111 15.7308 15.2469 14.3781C16.6181 13.0865 16.6316 12.4083 15.3065 11.4148C13.3637 9.95827 9.38713 9.35062 6.40225 10.0545ZM32.0232 10.0222C29.8156 10.5791 27.97 11.6825 26.4899 13.3295C24.7159 15.303 24.0829 16.8675 23.8298 19.901C23.5197 23.6192 24.3769 26.1434 26.7569 28.5219C29.015 30.7781 31.388 31.6813 34.9931 31.6574C37.7472 31.639 39.5559 31.0901 41.6361 29.641C43.4105 28.4047 43.535 27.2776 42.0174 26.1911C40.6831 25.2362 40.0242 25.2365 38.7392 26.1915C35.5644 28.5509 30.8062 27.3708 29.3831 23.8714L28.8232 22.4946H36.6813H44.5391V20.3338C44.5391 15.9657 42.2307 11.88 39.0373 10.5957C37.1591 9.84004 33.8239 9.56724 32.0232 10.0222ZM56.5966 10.3405C53.1596 11.5727 51.4005 14.3106 51.9959 17.5008C52.4685 20.0324 54.3306 21.3567 59.2502 22.6602C62.7264 23.5806 63.6428 24.9872 61.9053 26.7334C60.6875 27.9575 58.4335 27.9491 56.2814 26.7125C54.3361 25.5945 53.9321 25.5828 52.5602 26.6024C50.4519 28.169 51.5137 29.848 55.4256 31.1342C58.2644 32.0675 62.5193 31.758 64.7273 30.4572C66.8962 29.1794 68.0884 26.8608 67.8177 24.4468C67.4692 21.3395 65.6123 19.7567 60.8223 18.4848C57.291 17.5471 56.1835 16.6053 56.9403 15.1844C57.8681 13.4415 60.3336 13.2025 62.9517 14.6017C64.865 15.6243 65.4749 15.5013 66.7833 13.8292C67.7878 12.546 67.3498 11.7996 64.9975 10.7822C62.3089 9.61938 59.08 9.44975 56.5966 10.3405ZM79.8475 10.1705C76.4739 11.0818 74.6988 13.2425 74.6988 16.4379C74.6988 19.7251 76.414 21.2077 81.8962 22.6602C85.3957 23.5869 86.4571 25.3147 84.4855 26.8737C83.1501 27.9296 80.9337 27.8654 78.9274 26.7125C78.0529 26.2102 77.0565 25.799 76.7128 25.799C75.8271 25.799 74.0318 27.7945 74.186 28.6081C74.2568 28.9815 75.2171 29.7827 76.3202 30.3885C78.1698 31.4044 78.6089 31.49 81.978 31.49C85.1923 31.49 85.8278 31.3798 87.2742 30.5721C89.5319 29.3113 90.666 27.1002 90.4593 24.363C90.326 22.6014 90.1411 22.2188 88.828 20.9877C87.8163 20.039 86.6701 19.4137 85.2105 19.0143C84.0351 18.693 82.3341 18.1419 81.4301 17.7901C80.0217 17.2423 79.7704 16.9864 79.6747 16.0028C79.446 13.6556 82.7607 12.8904 85.6876 14.615C87.4189 15.6346 87.9047 15.5483 89.3847 13.957C90.811 12.4241 89.659 11.1692 85.9286 10.1925C83.4306 9.53861 82.203 9.5342 79.8475 10.1705ZM119.391 10.1231C116.688 10.8927 114.351 12.4796 113.175 14.3447C111.796 16.5301 111.386 18.0674 111.383 21.059C111.379 25.6712 114.285 29.6535 118.739 31.1404C122.702 32.4633 127.769 31.331 130.594 28.491C132.884 26.1893 133.477 24.5778 133.477 20.6588C133.477 16.7573 132.903 15.1793 130.665 12.9297C128.098 10.3497 123.029 9.08773 119.391 10.1231ZM149.593 10.1635C148.812 10.4547 147.55 11.3054 146.787 12.054L145.4 13.4154L145.284 11.9887L145.168 10.5619H142.976H140.784L140.687 20.4304C140.618 27.4035 140.712 30.4465 141.006 30.8027C141.523 31.429 144.67 31.4757 145.277 30.8658C145.58 30.5611 145.716 28.6643 145.718 24.7159C145.719 21.5759 145.882 18.4187 146.08 17.7006C146.91 14.699 150.599 13.0714 152.734 14.7651C154.177 15.9096 154.477 17.5588 154.479 24.3487C154.481 28.5828 154.615 30.5589 154.92 30.8658C155.502 31.4511 158.193 31.429 159.005 30.8324C159.593 30.4003 159.639 29.6762 159.531 22.6631C159.417 15.2446 159.38 14.9102 158.503 13.3714C156.842 10.4543 152.756 8.98346 149.593 10.1635ZM99.0512 10.8031C98.7126 11.1435 98.5972 13.7081 98.5972 20.9029C98.5972 30.0614 98.6326 30.5655 99.3036 30.9264C100.318 31.472 102.818 31.3949 103.307 30.8027C103.601 30.4465 103.694 27.4035 103.626 20.4304L103.528 10.5619L101.517 10.4543C100.267 10.3878 99.3328 10.52 99.0512 10.8031ZM38.0215 15.039C38.7681 15.7899 39.1428 16.5492 39.1834 17.3933L39.2429 18.6394L34.381 18.7025C28.9244 18.7734 28.6314 18.6313 29.6812 16.4188C31.0304 13.5748 35.7824 12.7887 38.0215 15.039ZM125.889 15.0776C127.434 16.1838 128.331 18.2337 128.331 20.6588C128.331 24.5217 126.347 26.9027 122.889 27.1909C120.494 27.3906 119.026 26.6666 117.68 24.6223C116.839 23.3449 116.677 22.7053 116.677 20.6588C116.677 18.6339 116.842 17.9686 117.645 16.7489C118.177 15.9404 119.163 14.9968 119.837 14.652C121.478 13.8112 124.407 14.0172 125.889 15.0776Z" fill="white"/>
</svg>
